<svg xmlns="http://www.w3.org/2000/svg" xmlns:xlink="http://www.w3.org/1999/xlink" width="108" height="108" viewBox="0 0 108 108">
  <defs>
    <filter id="Path_904820" x="0" y="0" width="108" height="108" filterUnits="userSpaceOnUse">
      <feOffset dy="3" input="SourceAlpha"/>
      <feGaussianBlur stdDeviation="3" result="blur"/>
      <feFlood flood-opacity="0.161"/>
      <feComposite operator="in" in2="blur"/>
      <feComposite in="SourceGraphic"/>
    </filter>
  </defs>
  <g id="Group_1224827" data-name="Group 1224827" transform="translate(-195 -2513.131)">
    <g id="Group_1224533" data-name="Group 1224533">
      <g id="Group_1223816" data-name="Group 1223816" transform="translate(204 2519.131)">
        <g id="Group_1203798" data-name="Group 1203798">
          <g id="Group_1202437" data-name="Group 1202437" transform="translate(0 0)">
            <g id="Group_1177315" data-name="Group 1177315">
              <g id="Group_1173585" data-name="Group 1173585">
                <g id="Group_1173428" data-name="Group 1173428">
                  <g id="Group_1171958" data-name="Group 1171958">
                    <g id="Group_1167341" data-name="Group 1167341">
                      <g id="Group_1166792" data-name="Group 1166792">
                        <g transform="matrix(1, 0, 0, 1, -9, -6)" filter="url(#Path_904820)">
                          <g id="Path_904820-2" data-name="Path 904820" transform="translate(9 6)" fill="#fdfbec">
                            <path d="M 44.99999618530273 88.5 C 39.12687301635742 88.5 33.43022155761719 87.35008239746094 28.06829643249512 85.08217620849609 C 22.88852119445801 82.89131927490234 18.23629570007324 79.75459289550781 14.24084663391113 75.7591552734375 C 10.24540901184082 71.76370239257812 7.108683586120605 67.11148071289062 4.917821407318115 61.93170547485352 C 2.649921178817749 56.56977844238281 1.499996185302734 50.87312698364258 1.499996185302734 45.00000381469727 C 1.499996185302734 39.12688064575195 2.649921178817749 33.43022918701172 4.917821407318115 28.06830406188965 C 7.108683586120605 22.88852882385254 10.24540901184082 18.23630332946777 14.24084663391113 14.24085426330566 C 18.23629570007324 10.24541664123535 22.88852119445801 7.108691215515137 28.06829643249512 4.917829036712646 C 33.43022155761719 2.64992880821228 39.12687301635742 1.500003814697266 44.99999618530273 1.500003814697266 C 50.87311935424805 1.500003814697266 56.56977081298828 2.64992880821228 61.93169784545898 4.917829036712646 C 67.11147308349609 7.108691215515137 71.76369476318359 10.24541664123535 75.75914764404297 14.24085426330566 C 79.75458526611328 18.23630332946777 82.89131164550781 22.88852882385254 85.08216857910156 28.06830406188965 C 87.35007476806641 33.43022918701172 88.5 39.12688064575195 88.5 45.00000381469727 C 88.5 50.87312698364258 87.35007476806641 56.56977844238281 85.08216857910156 61.93170547485352 C 82.89131164550781 67.11148071289062 79.75458526611328 71.76370239257812 75.75914764404297 75.7591552734375 C 71.76369476318359 79.75459289550781 67.11147308349609 82.89131927490234 61.93169784545898 85.08217620849609 C 56.56977081298828 87.35008239746094 50.87311935424805 88.5 44.99999618530273 88.5 Z" stroke="none"/>
                            <path d="M 44.99999618530273 3.000007629394531 C 39.32870864868164 3.000007629394531 33.82865142822266 4.110061645507812 28.65262603759766 6.299346923828125 C 23.65165710449219 8.414573669433594 19.15968322753906 11.44334411621094 15.301513671875 15.30152130126953 C 11.44333648681641 19.15969085693359 8.414566040039062 23.65166473388672 6.299339294433594 28.65263366699219 C 4.110054016113281 33.82865905761719 2.999992370605469 39.32871627807617 2.999992370605469 45.00000381469727 C 2.999992370605469 50.67129135131836 4.110054016113281 56.17134857177734 6.299339294433594 61.34737396240234 C 8.414566040039062 66.34834289550781 11.44333648681641 70.84031677246094 15.301513671875 74.698486328125 C 19.15968322753906 78.55666351318359 23.65165710449219 81.58543395996094 28.65262603759766 83.70066070556641 C 33.82865142822266 85.88994598388672 39.32870864868164 87 44.99999618530273 87 C 50.67128372192383 87 56.17134094238281 85.88994598388672 61.34736633300781 83.70066070556641 C 66.34834289550781 81.58543395996094 70.84030914306641 78.55666351318359 74.69847869873047 74.698486328125 C 78.55665588378906 70.84031677246094 81.58542633056641 66.34834289550781 83.70065307617188 61.34737396240234 C 85.88993835449219 56.17134857177734 87 50.67129135131836 87 45.00000381469727 C 87 39.32871627807617 85.88993835449219 33.82865905761719 83.70065307617188 28.65263366699219 C 81.58542633056641 23.65166473388672 78.55665588378906 19.15969085693359 74.69847869873047 15.30152130126953 C 70.84030914306641 11.44334411621094 66.34834289550781 8.414573669433594 61.34736633300781 6.299346923828125 C 56.17134094238281 4.110061645507812 50.67128372192383 3.000007629394531 44.99999618530273 3.000007629394531 M 44.99999618530273 7.62939453125e-06 C 69.85281372070312 7.62939453125e-06 90 20.14718627929688 90 45.00000381469727 C 90 69.85281372070312 69.85281372070312 90 44.99999618530273 90 C 20.14717864990234 90 -7.62939453125e-06 69.85281372070312 -7.62939453125e-06 45.00000381469727 C -7.62939453125e-06 20.14718627929688 20.14717864990234 7.62939453125e-06 44.99999618530273 7.62939453125e-06 Z" stroke="none" fill="#83793c"/>
                          </g>
                        </g>
                      </g>
                    </g>
                  </g>
                </g>
              </g>
            </g>
          </g>
        </g>
      </g>
      <g id="estudiante_2_" data-name="estudiante (2)" transform="translate(217.981 2528.111)">
        <g id="Group_1224531" data-name="Group 1224531" transform="translate(0.842 2.938)">
          <g id="Group_1224516" data-name="Group 1224516" transform="translate(13.737 23.589)">
            <g id="Group_1224509" data-name="Group 1224509">
              <path id="Path_1211626" data-name="Path 1211626" d="M124.99,259.356a3.1,3.1,0,0,1-3.129,0,3.122,3.122,0,0,0-.421.3,13,13,0,0,1-1.026,1.639,8.138,8.138,0,0,0-.091,2.071,3.1,3.1,0,0,0,6.2,0v-1.329A3.1,3.1,0,0,0,124.99,259.356Z" transform="translate(-120.321 -252.673)" fill="#57697d"/>
              <path id="Path_1211627" data-name="Path 1211627" d="M124.99,204.2a3.1,3.1,0,0,1-3.129,0,3.122,3.122,0,0,0-.421.3,13,13,0,0,1-1.026,1.639,8.138,8.138,0,0,0-.091,2.071,3.1,3.1,0,0,0,6.2,0v-1.329A3.1,3.1,0,0,0,124.99,204.2Z" transform="translate(-120.321 -204.201)" fill="#57697d"/>
              <path id="Path_1211628" data-name="Path 1211628" d="M126.532,318.543v-1.329a3.1,3.1,0,0,0-1.538-2.678,3.1,3.1,0,0,1-3.129,0,3.113,3.113,0,0,0-1.538,2.714c0,.154,0,1.281,0,1.315a3.1,3.1,0,0,0,6.2-.021Z" transform="translate(-120.325 -301.167)" fill="#57697d"/>
              <path id="Path_1211629" data-name="Path 1211629" d="M124.99,259.356a3.1,3.1,0,0,1-3.129,0,3.122,3.122,0,0,0-.421.3,13,13,0,0,1-1.026,1.639,8.138,8.138,0,0,0-.091,2.071,3.1,3.1,0,0,0,6.2,0v-1.329A3.1,3.1,0,0,0,124.99,259.356Z" transform="translate(-120.321 -252.673)" fill="#57697d"/>
              <path id="Path_1211630" data-name="Path 1211630" d="M124.99,204.2a3.1,3.1,0,0,1-3.129,0,3.122,3.122,0,0,0-.421.3,13,13,0,0,1-1.026,1.639,8.138,8.138,0,0,0-.091,2.071,3.1,3.1,0,0,0,6.2,0v-1.329A3.1,3.1,0,0,0,124.99,204.2Z" transform="translate(-120.321 -204.201)" fill="#57697d"/>
              <path id="Path_1211631" data-name="Path 1211631" d="M126.532,318.543v-1.329a3.1,3.1,0,0,0-1.538-2.678,3.1,3.1,0,0,1-3.129,0,3.113,3.113,0,0,0-1.538,2.714c0,.154,0,1.281,0,1.315a3.1,3.1,0,0,0,6.2-.021Z" transform="translate(-120.325 -301.167)" fill="#57697d"/>
              <path id="Path_1211632" data-name="Path 1211632" d="M124.59,263.363v-1.329a3.116,3.116,0,0,0-.979-2.261,3.1,3.1,0,0,1-1.749-.418,3.112,3.112,0,0,0-.421.3,12.993,12.993,0,0,1-1.026,1.639,8.139,8.139,0,0,0-.091,2.071,3.1,3.1,0,0,0,2.093,2.933A3.032,3.032,0,0,0,124.59,263.363Z" transform="translate(-120.322 -252.673)" fill="#57697d"/>
              <path id="Path_1211633" data-name="Path 1211633" d="M123.613,204.622l0,0a3.1,3.1,0,0,1-1.748-.418,3.112,3.112,0,0,0-.421.3,13,13,0,0,1-1.026,1.639,8.137,8.137,0,0,0-.091,2.071,3.1,3.1,0,0,0,2.126,2.944,3.09,3.09,0,0,0,2.14-2.944v-1.329a3.09,3.09,0,0,0-.976-2.256Z" transform="translate(-120.322 -204.2)" fill="#57697d"/>
              <path id="Path_1211634" data-name="Path 1211634" d="M122.581,321.447a3.106,3.106,0,0,0,2.011-2.9c0-1.325.17-2.506-.977-3.586l0,0a3.1,3.1,0,0,1-1.747-.417,3.113,3.113,0,0,0-1.538,2.714c0,.154,0,1.281,0,1.315a3.1,3.1,0,0,0,2.148,2.931Z" transform="translate(-120.325 -301.166)" fill="#57697d"/>
            </g>
            <g id="Group_1224511" data-name="Group 1224511" transform="translate(2.014 0)">
              <g id="Group_1224510" data-name="Group 1224510">
                <path id="Path_1211635" data-name="Path 1211635" d="M139.6,204.2a3.094,3.094,0,0,1-1.62.422c1.146,1.08.976,2.266.976,3.585a3.1,3.1,0,0,1-2.012,2.9,3.1,3.1,0,0,0,4.193-2.9v-1.329A3.1,3.1,0,0,0,139.6,204.2Z" transform="translate(-136.941 -204.201)" fill="#3d5168"/>
              </g>
            </g>
            <g id="Group_1224513" data-name="Group 1224513" transform="translate(2.014 6.683)">
              <g id="Group_1224512" data-name="Group 1224512">
                <path id="Path_1211636" data-name="Path 1211636" d="M139.6,259.356a3.094,3.094,0,0,1-1.62.422c1.146,1.08.976,2.266.976,3.585a3.1,3.1,0,0,1-2.012,2.9,3.1,3.1,0,0,0,4.193-2.9v-1.329A3.1,3.1,0,0,0,139.6,259.356Z" transform="translate(-136.941 -259.356)" fill="#3d5168"/>
              </g>
            </g>
            <g id="Group_1224515" data-name="Group 1224515" transform="translate(2.014 13.369)">
              <g id="Group_1224514" data-name="Group 1224514">
                <path id="Path_1211637" data-name="Path 1211637" d="M139.6,314.535a3.1,3.1,0,0,1-1.621.421c1.133,1.066.977,2.222.977,3.586a3.106,3.106,0,0,1-2.012,2.9,3.1,3.1,0,0,0,4.193-2.9v-1.329A3.1,3.1,0,0,0,139.6,314.535Z" transform="translate(-136.944 -314.535)" fill="#3d5168"/>
              </g>
            </g>
          </g>
          <g id="Group_1224524" data-name="Group 1224524" transform="translate(40.483 23.589)">
            <g id="Group_1224517" data-name="Group 1224517">
              <path id="Path_1211638" data-name="Path 1211638" d="M345.724,259.356a3.1,3.1,0,0,1-3.129,0,3.124,3.124,0,0,0-.421.3,12.994,12.994,0,0,1-1.026,1.639,8.137,8.137,0,0,0-.091,2.071,3.1,3.1,0,1,0,6.2,0v-1.329A3.1,3.1,0,0,0,345.724,259.356Z" transform="translate(-341.055 -252.673)" fill="#57697d"/>
              <path id="Path_1211639" data-name="Path 1211639" d="M345.724,204.2a3.1,3.1,0,0,1-3.129,0,3.123,3.123,0,0,0-.421.3,12.994,12.994,0,0,1-1.026,1.639,8.138,8.138,0,0,0-.091,2.071,3.1,3.1,0,0,0,6.2,0v-1.329A3.1,3.1,0,0,0,345.724,204.2Z" transform="translate(-341.055 -204.201)" fill="#57697d"/>
              <path id="Path_1211640" data-name="Path 1211640" d="M347.266,318.543v-1.329a3.1,3.1,0,0,0-1.538-2.678,3.1,3.1,0,0,1-3.129,0,3.113,3.113,0,0,0-1.538,2.714c0,.154,0,1.281,0,1.315a3.1,3.1,0,0,0,6.2-.021Z" transform="translate(-341.059 -301.167)" fill="#57697d"/>
              <path id="Path_1211641" data-name="Path 1211641" d="M345.724,259.356a3.1,3.1,0,0,1-3.129,0,3.124,3.124,0,0,0-.421.3,12.994,12.994,0,0,1-1.026,1.639,8.137,8.137,0,0,0-.091,2.071,3.1,3.1,0,1,0,6.2,0v-1.329A3.1,3.1,0,0,0,345.724,259.356Z" transform="translate(-341.055 -252.673)" fill="#57697d"/>
              <path id="Path_1211642" data-name="Path 1211642" d="M345.724,204.2a3.1,3.1,0,0,1-3.129,0,3.123,3.123,0,0,0-.421.3,12.994,12.994,0,0,1-1.026,1.639,8.138,8.138,0,0,0-.091,2.071,3.1,3.1,0,0,0,6.2,0v-1.329A3.1,3.1,0,0,0,345.724,204.2Z" transform="translate(-341.055 -204.201)" fill="#57697d"/>
              <path id="Path_1211643" data-name="Path 1211643" d="M347.266,318.543v-1.329a3.1,3.1,0,0,0-1.538-2.678,3.1,3.1,0,0,1-3.129,0,3.113,3.113,0,0,0-1.538,2.714c0,.154,0,1.281,0,1.315a3.1,3.1,0,0,0,6.2-.021Z" transform="translate(-341.059 -301.167)" fill="#57697d"/>
              <path id="Path_1211644" data-name="Path 1211644" d="M345.324,263.363v-1.329a3.116,3.116,0,0,0-.979-2.261,3.1,3.1,0,0,1-1.749-.418,3.112,3.112,0,0,0-.421.3,12.991,12.991,0,0,1-1.026,1.639,8.14,8.14,0,0,0-.091,2.071,3.1,3.1,0,0,0,2.093,2.933A3.032,3.032,0,0,0,345.324,263.363Z" transform="translate(-341.056 -252.673)" fill="#57697d"/>
              <path id="Path_1211645" data-name="Path 1211645" d="M344.348,204.622l0,0a3.1,3.1,0,0,1-1.748-.418,3.107,3.107,0,0,0-.421.3,13,13,0,0,1-1.026,1.639,8.139,8.139,0,0,0-.091,2.071,2.245,2.245,0,1,0,4.266,0v-1.329A3.09,3.09,0,0,0,344.348,204.622Z" transform="translate(-341.057 -204.2)" fill="#57697d"/>
              <path id="Path_1211646" data-name="Path 1211646" d="M343.316,321.447a3.106,3.106,0,0,0,2.011-2.9c0-1.751.132-2.362-.981-3.591a3.1,3.1,0,0,1-1.747-.417,3.113,3.113,0,0,0-1.538,2.714c0,.154,0,1.281,0,1.315a3.1,3.1,0,0,0,2.148,2.931Z" transform="translate(-341.059 -301.166)" fill="#57697d"/>
            </g>
            <g id="Group_1224519" data-name="Group 1224519" transform="translate(2.014 0)">
              <g id="Group_1224518" data-name="Group 1224518">
                <path id="Path_1211647" data-name="Path 1211647" d="M360.33,204.2a3.094,3.094,0,0,1-1.62.422,3.09,3.09,0,0,1,.976,2.256v1.329a3.1,3.1,0,0,1-2.012,2.9,3.1,3.1,0,0,0,4.193-2.9v-1.329A3.1,3.1,0,0,0,360.33,204.2Z" transform="translate(-357.675 -204.201)" fill="#3d5168"/>
              </g>
            </g>
            <g id="Group_1224521" data-name="Group 1224521" transform="translate(2.014 6.683)">
              <g id="Group_1224520" data-name="Group 1224520">
                <path id="Path_1211648" data-name="Path 1211648" d="M360.33,259.356a3.093,3.093,0,0,1-1.62.422c1.146,1.08.976,2.266.976,3.585a3.1,3.1,0,0,1-2.012,2.9,3.1,3.1,0,0,0,4.193-2.9v-1.329A3.1,3.1,0,0,0,360.33,259.356Z" transform="translate(-357.675 -259.356)" fill="#3d5168"/>
              </g>
            </g>
            <g id="Group_1224523" data-name="Group 1224523" transform="translate(2.014 13.369)">
              <g id="Group_1224522" data-name="Group 1224522">
                <path id="Path_1211649" data-name="Path 1211649" d="M360.333,314.535a3.1,3.1,0,0,1-1.621.421c1.133,1.066.977,2.222.977,3.586a3.106,3.106,0,0,1-2.011,2.9,3.1,3.1,0,0,0,4.193-2.9v-1.329A3.1,3.1,0,0,0,360.333,314.535Z" transform="translate(-357.678 -314.535)" fill="#3d5168"/>
              </g>
            </g>
          </g>
          <path id="Path_1211650" data-name="Path 1211650" d="M138.713,348.02h-2.37l-4.674,5.741v4.018h-9.347v-4.018l-4.674-5.741h-2.37a5.99,5.99,0,0,0-5.992,6.076v9.534h35.419v-9.617A5.992,5.992,0,0,0,138.713,348.02Z" transform="translate(-96.886 -307.005)" fill="#eaf6ff"/>
          <path id="Path_1211651" data-name="Path 1211651" d="M138.713,348.02h-2.37l-4.674,5.741v4.018h-9.347v-4.018l-4.674-5.741h-2.37a5.99,5.99,0,0,0-5.992,6.076v9.534h35.419v-9.617A5.992,5.992,0,0,0,138.713,348.02Z" transform="translate(-96.886 -307.005)" fill="#eaf6ff"/>
          <g id="Group_1224525" data-name="Group 1224525" transform="translate(39.451 41.015)">
            <path id="Path_1211652" data-name="Path 1211652" d="M334.916,348.02h-2.37l-.006.007a5.992,5.992,0,0,1,5.7,5.985v9.617h2.666v-9.617A5.992,5.992,0,0,0,334.916,348.02Z" transform="translate(-332.54 -348.02)" fill="#d8ecfe"/>
          </g>
          <path id="Path_1211653" data-name="Path 1211653" d="M210.562,287.447v4.343L215.5,299a.606.606,0,0,0,1,0l4.939-7.214v-4.343Z" transform="translate(-185.891 -253.771)" fill="#ffa78f"/>
          <path id="Path_1211654" data-name="Path 1211654" d="M115.487,162.606h-2.536a4.407,4.407,0,0,0-1.95,3.661v.027a4.413,4.413,0,0,0,4.585,4.412h2.75v-8.1Z" transform="translate(-98.393 -144.057)" fill="#ffb09e"/>
          <path id="Path_1211655" data-name="Path 1211655" d="M339.209,162.606h-6.065v8.1h3.394a4.419,4.419,0,0,0,4.621-4.412v-.027A4.407,4.407,0,0,0,339.209,162.606Z" transform="translate(-293.62 -144.057)" fill="#f89580"/>
          <path id="Path_1211656" data-name="Path 1211656" d="M171.524,86.067h-24.06v9.274h0c-.093.889-.072.951-.072,5.975,0,7.408,6.2,12.937,12.341,12.937a12.993,12.993,0,0,0,11.794-12.937C171.524,100.64,171.524,86.721,171.524,86.067Z" transform="translate(-130.371 -76.792)" fill="#ffcebf"/>
          <path id="Path_1211657" data-name="Path 1211657" d="M187.151,330.508l-4.938-7.214-3.909,3,4.674,5.741V341.9h9.347v-9.868L197,326.29l-3.909-3-4.939,7.214A.606.606,0,0,1,187.151,330.508Z" transform="translate(-157.541 -285.275)" fill="#d8ecfe"/>
          <path id="Path_1211658" data-name="Path 1211658" d="M282.546,404.532V395.81a1.212,1.212,0,0,0-1.181-1.211c-4.846-.126-23.08-.129-25.918,6.822v3.112Z" transform="translate(-225.337 -347.915)" fill="#fff3be"/>
          <path id="Path_1211659" data-name="Path 1211659" d="M282.444,457.332h-27v-6.223h27a3.111,3.111,0,0,1,3.112,3.112h0A3.111,3.111,0,0,1,282.444,457.332Z" transform="translate(-225.336 -397.603)" fill="#fd8087"/>
          <path id="Path_1211660" data-name="Path 1211660" d="M257.04,109.713V122.1a12.993,12.993,0,0,1-11.795,12.937A13,13,0,0,0,259.463,122.1V109.713Z" transform="translate(-216.371 -97.573)" fill="#ffb09e"/>
          <path id="Path_1211661" data-name="Path 1211661" d="M141.738,10c-6.987,0-14.643,6.37-14.643,15.423v3.068h7.637a7.915,7.915,0,0,0,7.915-7.915,7.915,7.915,0,0,0,7.915,7.915h5.384V25.42A15.471,15.471,0,0,0,141.738,10Z" transform="translate(-112.537 -9.939)" fill="#57697d"/>
          <g id="Group_1224527" data-name="Group 1224527" transform="translate(28.716 0)">
            <g id="Group_1224526" data-name="Group 1224526">
              <path id="Path_1211662" data-name="Path 1211662" d="M243.942,9.577A15.471,15.471,0,0,1,258.15,25v3.068h2.666V25A15.489,15.489,0,0,0,243.942,9.577Z" transform="translate(-243.942 -9.519)" fill="#3d5168"/>
            </g>
          </g>
          <g id="Group_1224529" data-name="Group 1224529" transform="translate(32.118 38.019)">
            <g id="Group_1224528" data-name="Group 1224528">
              <path id="Path_1211663" data-name="Path 1211663" d="M275.449,323.293l-.917,1.34,2.16,1.656-4.674,5.741V341.9h2.666V332.03l4.674-5.741Z" transform="translate(-272.018 -323.293)" fill="#c4e2ff"/>
            </g>
          </g>
          <path id="Path_1211664" data-name="Path 1211664" d="M100.89,260.364c-3.566-13.308-3.264-12.5-3.633-12.8l-1.009.27a1.046,1.046,0,0,0-.74,1.281l3.173,11.844Z" transform="translate(-84.746 -218.717)" fill="#5de1c4"/>
          <path id="Path_1211665" data-name="Path 1211665" d="M110.724,259.178l2.067-.554L109.5,246.356a1.046,1.046,0,0,0-1.281-.74l-1.138.305c.249.272-.018-.522,3.526,12.7Z" transform="translate(-94.951 -216.978)" fill="#0ed2b3"/>
          <path id="Path_1211666" data-name="Path 1211666" d="M98.341,322.708v-5.4a2.423,2.423,0,0,0-2.423-2.423H92.452a2.423,2.423,0,0,0-2.423,2.423v5.4a2.423,2.423,0,0,0,2.423,2.423h3.465A2.423,2.423,0,0,0,98.341,322.708Z" transform="translate(-79.962 -277.881)" fill="#ffcebf"/>
          <path id="Path_1211667" data-name="Path 1211667" d="M137.048,314.881h-2.423a2.423,2.423,0,0,1,2.423,2.423v5.4a2.423,2.423,0,0,1-2.423,2.423h2.423a2.423,2.423,0,0,0,2.423-2.423v-5.4A2.423,2.423,0,0,0,137.048,314.881Z" transform="translate(-119.155 -277.881)" fill="#ffb09e"/>
          <path id="Path_1211668" data-name="Path 1211668" d="M278.942,394.6c-1.1-.029-1.471-.026.316-.028-6.652-.01-21.292.682-23.811,6.85v3.112h24.676v-8.723A1.212,1.212,0,0,0,278.942,394.6Z" transform="translate(-225.337 -347.916)" fill="#ffe177"/>
          <path id="Path_1211669" data-name="Path 1211669" d="M443.323,394.524c-.759-.02-5.57-.076-2.666,0a1.212,1.212,0,0,1,1.181,1.211v8.723H444.5v-8.723A1.212,1.212,0,0,0,443.323,394.524Z" transform="translate(-387.295 -347.841)" fill="#ffd15b"/>
          <path id="Path_1211670" data-name="Path 1211670" d="M280.021,457.332a3.112,3.112,0,0,0,0-6.223H255.446v6.223h24.575Z" transform="translate(-225.336 -397.603)" fill="#fe646f"/>
          <path id="Path_1211671" data-name="Path 1211671" d="M458.932,451.109h-2.666a3.112,3.112,0,0,1,0,6.223h2.666a3.111,3.111,0,0,0,3.112-3.112h0A3.111,3.111,0,0,0,458.932,451.109Z" transform="translate(-401.823 -397.603)" fill="#fd4755"/>
          <path id="Path_1211672" data-name="Path 1211672" d="M31.8,404.589v-8.723a1.212,1.212,0,0,1,1.181-1.211c4.846-.126,23.08-.129,25.918,6.822v3.112Z" transform="translate(-28.784 -347.965)" fill="#fff0ad"/>
          <path id="Path_1211673" data-name="Path 1211673" d="M37.056,457.332h-27a3.111,3.111,0,0,1-3.112-3.112h0a3.111,3.111,0,0,1,3.112-3.112h27Z" transform="translate(-6.946 -397.603)" fill="#fd8087"/>
          <g id="Group_1224530" data-name="Group 1224530" transform="translate(20.763 29.175)">
            <path id="Path_1211674" data-name="Path 1211674" d="M307.4,252.176H308.5a.962.962,0,0,0,.975-.907.936.936,0,0,0-.936-.965H307.4a.936.936,0,0,0,0,1.872Z" transform="translate(-290.932 -250.304)" fill="#fe8f83"/>
            <path id="Path_1211675" data-name="Path 1211675" d="M180.385,252.176h-1.106a.962.962,0,0,1-.975-.907.936.936,0,0,1,.936-.965h1.145a.936.936,0,0,1,0,1.872Z" transform="translate(-178.303 -250.304)" fill="#fe8f83"/>
          </g>
        </g>
        <g id="Group_1224532" data-name="Group 1224532" transform="translate(0 2.03)">
          <path id="Path_1211676" data-name="Path 1211676" d="M228.861,261.681A3.682,3.682,0,0,0,232.539,258a.909.909,0,0,0-1.818,0A1.86,1.86,0,1,1,227,258a.909.909,0,1,0-1.818,0A3.682,3.682,0,0,0,228.861,261.681Z" transform="translate(-197.898 -226.189)"/>
          <path id="Path_1211677" data-name="Path 1211677" d="M301.469,217.187a.909.909,0,0,0,.909-.909v-1.492h.075a.909.909,0,0,0,0-1.818h-.983a.909.909,0,0,0-.909.909v2.4A.909.909,0,0,0,301.469,217.187Z" transform="translate(-264.142 -187.41)"/>
          <path id="Path_1211678" data-name="Path 1211678" d="M188.3,214.787h.075v1.492a.909.909,0,0,0,1.818,0v-2.4a.909.909,0,0,0-.909-.909H188.3a.909.909,0,0,0,0,1.818Z" transform="translate(-164.69 -187.41)"/>
          <path id="Path_1211679" data-name="Path 1211679" d="M59.026,55.663V50.832a2.109,2.109,0,0,0-2.066-2.12c-1.4-.037-4.18-.067-7.416.115a6.841,6.841,0,0,0-1.428-3.2,3.981,3.981,0,0,0,.391-1.723V42.574A4.023,4.023,0,0,0,47.477,39.9a4,4,0,0,0,1.029-2.68V35.888a4.023,4.023,0,0,0-1.029-2.677,3.992,3.992,0,0,0,1.029-2.68,8.717,8.717,0,0,0-.117-2.29,5.4,5.4,0,0,0,.967-3.066v-.027a5.312,5.312,0,0,0-1.95-4.113V18.418A16.44,16.44,0,0,0,19.761,6.44.909.909,0,0,0,21,7.768a14.623,14.623,0,0,1,24.587,10.65v2.16H38.933a7.014,7.014,0,0,1-7.006-7.006.909.909,0,1,0-1.817,0A7.014,7.014,0,0,1,23.1,20.578H16.375v-2.16a14.541,14.541,0,0,1,2.114-7.564.909.909,0,1,0-1.553-.945,16.358,16.358,0,0,0-2.379,8.508v2.616a5.313,5.313,0,0,0-1.95,4.114v.027A5.366,5.366,0,0,0,13.8,28.528a6.593,6.593,0,0,0-.061,1.245c0,.4,0,.7.011.979l-1.572.421a1.957,1.957,0,0,0-1.382,2.394l1.513,5.646a3.337,3.337,0,0,0-2.239,3.147v5.4a3.3,3.3,0,0,0,.147.972c-2.233-.068-4.076-.044-5.137-.016a2.109,2.109,0,0,0-2.066,2.12v4.824a4.02,4.02,0,0,0,1.01,7.912H49.9a.909.909,0,0,0,0-1.818H31.927V57.352h26.09a2.2,2.2,0,0,1,0,4.406H54.14a.909.909,0,0,0,0,1.818h3.877a4.021,4.021,0,0,0,1.009-7.912ZM36.6,51.045V50.017l4.2-5.156c2.027,0,3.838-.227,5.555,1.512a4.918,4.918,0,0,1,1.369,2.576A44.706,44.706,0,0,0,36.6,51.045Zm-4.674,2.622c0-7.36,0,2.877,0-4.484l4.738-6.921,2.4,1.843L34.988,49.12a.909.909,0,0,0-.2.574v2.1a11.942,11.942,0,0,0-2.856,1.868Zm-4.674-1.861V49.694a.909.909,0,0,0-.2-.574L22.967,44.1l2.4-1.843,4.738,6.921c0,.4,0,4.085,0,4.491a11.967,11.967,0,0,0-2.856-1.868ZM18.8,39.028h-.6l-1.222-4.56a4.091,4.091,0,0,0,1.881-.084,13.911,13.911,0,0,0,1.082,1.608c0,.1,0,.069,0,1.225a2.186,2.186,0,0,1-.964,1.816C18.92,39.03,18.861,39.028,18.8,39.028Zm-2.414-6.778a2.052,2.052,0,0,0-.783-1.245,5.246,5.246,0,0,1-.053-1.07,5.428,5.428,0,0,0,1.788.516,13.769,13.769,0,0,0,.7,2.252,2.2,2.2,0,0,1-1.651-.454Zm5.316,5.62a13.759,13.759,0,0,0,2.967,2.011v.625l-2.537,1.945a3.333,3.333,0,0,0-1.271-2.707A3.99,3.99,0,0,0,21.7,37.871Zm9.3,3.492a13.843,13.843,0,0,0,4.526-.757l.014,0v.074l-4.53,6.617-4.53-6.617v-.036a14.412,14.412,0,0,0,4.52.723Zm14.959-.415a2.2,2.2,0,0,1,.722,1.625,11.459,11.459,0,0,1-.029,1.686A7.186,7.186,0,0,0,42.3,43.038v-.464a2.2,2.2,0,0,1,.722-1.625A4.022,4.022,0,0,0,45.967,40.948Zm.722-3.731a2.193,2.193,0,1,1-4.387,0,13.688,13.688,0,0,1,.03-1.692,13.973,13.973,0,0,0,.782-1.228,4.028,4.028,0,0,0,2.853-.034,2.2,2.2,0,0,1,.722,1.625Zm-1.178-4.745a2.172,2.172,0,0,1-1.6.172l.005-.014a13.658,13.658,0,0,0,.663-2.136c0-.013.007-.026.009-.039a5.409,5.409,0,0,0,2.1-.664A2.527,2.527,0,0,1,45.511,32.472ZM40.5,37.6a4,4,0,0,0,1.01,2.292,4.023,4.023,0,0,0-1.029,2.677V42.9l-3.119-2.391v-.686A13.973,13.973,0,0,0,40.5,37.6Zm-18.37,10.16v-1.8l3.3,4.056v1.029a29.486,29.486,0,0,0-4.085-1.138A3.328,3.328,0,0,0,22.135,47.764ZM46.2,22.4a3.5,3.5,0,0,1,1.336,2.753v.027a3.479,3.479,0,0,1-2.673,3.38c.028-.36.043-.787.043-1.093,0-4.929,0-4.752-.008-5.066h1.3ZM31.019,17.47A8.834,8.834,0,0,0,38.933,22.4h4.148c.015.366.011.037.011,5.066a12.128,12.128,0,0,1-24.256,0c0-3.328-.009-4.436.01-5.066H23.1a8.834,8.834,0,0,0,7.915-4.925ZM14.425,25.148A3.5,3.5,0,0,1,15.762,22.4h1.266c-.012.487-.012,1.241-.01,2.759,0,2.092-.016,2.622.044,3.4a3.473,3.473,0,0,1-2.636-3.377Zm-1.779,7.78,1.77-.474a.139.139,0,0,1,.132.035.313.313,0,0,1,.048.1l1.724,6.435H14.138L12.549,33.1a.137.137,0,0,1,.1-.168Zm-.327,15.9a1.5,1.5,0,0,1-.435-1.059v-5.4a1.516,1.516,0,0,1,1.557-1.515c5.725,0,5.4-.01,5.6.021h.012a1.516,1.516,0,0,1,1.266,1.492v5.4A1.516,1.516,0,0,1,18.8,49.279c-2.506,0-2.285-.231-6.483-.455ZM4.828,50.839a.3.3,0,0,1,.3-.3c6.237-.162,20.192.266,24.267,5H4.828ZM1.818,59.555a2.205,2.205,0,0,1,2.2-2.2H30.11v4.406H4.02a2.205,2.205,0,0,1-2.2-2.2Zm30.822-4.02c4.069-4.742,18.017-5.168,24.273-5.005a.3.3,0,0,1,.3.3v4.7Z" transform="translate(0 -2.03)"/>
        </g>
      </g>
    </g>
  </g>
</svg>
