<svg xmlns="http://www.w3.org/2000/svg" xmlns:xlink="http://www.w3.org/1999/xlink" width="108" height="108" viewBox="0 0 108 108">
  <defs>
    <filter id="Path_904820" x="0" y="0" width="108" height="108" filterUnits="userSpaceOnUse">
      <feOffset dy="3" input="SourceAlpha"/>
      <feGaussianBlur stdDeviation="3" result="blur"/>
      <feFlood flood-opacity="0.161"/>
      <feComposite operator="in" in2="blur"/>
      <feComposite in="SourceGraphic"/>
    </filter>
  </defs>
  <g id="Group_1224836" data-name="Group 1224836" transform="translate(-200.087 -3411.46)">
    <g id="Group_1224768" data-name="Group 1224768">
      <g id="Group_1224255" data-name="Group 1224255" transform="translate(209.087 3417.46)">
        <g id="Group_1203639" data-name="Group 1203639" transform="translate(0 0)">
          <g id="Group_1202437" data-name="Group 1202437">
            <g id="Group_1177315" data-name="Group 1177315">
              <g id="Group_1173585" data-name="Group 1173585" transform="translate(0 0)">
                <g id="Group_1173428" data-name="Group 1173428">
                  <g id="Group_1171958" data-name="Group 1171958">
                    <g id="Group_1167341" data-name="Group 1167341">
                      <g id="Group_1166792" data-name="Group 1166792">
                        <g transform="matrix(1, 0, 0, 1, -9, -6)" filter="url(#Path_904820)">
                          <g id="Path_904820-2" data-name="Path 904820" transform="translate(9 6)" fill="#edf3fc">
                            <path d="M 44.99999618530273 88.50002288818359 C 39.12687301635742 88.50002288818359 33.43022155761719 87.35009765625 28.06829643249512 85.08218383789062 C 22.88852119445801 82.89133453369141 18.23629570007324 79.75460815429688 14.24084663391113 75.75916290283203 C 10.24540901184082 71.76371002197266 7.108683586120605 67.11148834228516 4.917821407318115 61.93171310424805 C 2.649921178817749 56.56978607177734 1.499996185302734 50.87313461303711 1.499996185302734 45.0000114440918 C 1.499996185302734 39.12688827514648 2.649921178817749 33.43023681640625 4.917821407318115 28.06829833984375 C 7.108683586120605 22.88852310180664 10.24540901184082 18.2363109588623 14.24084663391113 14.2408618927002 C 18.23629570007324 10.24541187286377 22.88852119445801 7.108686447143555 28.06829643249512 4.917823791503906 C 33.43022155761719 2.649924039840698 39.12687301635742 1.499998927116394 44.99999618530273 1.499998927116394 C 50.87311935424805 1.499998927116394 56.56977081298828 2.649924039840698 61.93169784545898 4.917823791503906 C 67.11147308349609 7.108686447143555 71.76369476318359 10.24541187286377 75.75914764404297 14.2408618927002 C 79.75458526611328 18.2363109588623 82.89131164550781 22.88852310180664 85.08216857910156 28.06829833984375 C 87.35007476806641 33.43023681640625 88.5 39.12688827514648 88.5 45.0000114440918 C 88.5 50.87313461303711 87.35007476806641 56.56978607177734 85.08216857910156 61.93171310424805 C 82.89131164550781 67.11148834228516 79.75458526611328 71.76371002197266 75.75914764404297 75.75916290283203 C 71.76369476318359 79.75460815429688 67.11147308349609 82.89133453369141 61.93169784545898 85.08218383789062 C 56.56977081298828 87.35009765625 50.87311935424805 88.50002288818359 44.99999618530273 88.50002288818359 Z" stroke="none"/>
                            <path d="M 44.99999618530273 3 C 39.32870864868164 3 33.82865142822266 4.110054016113281 28.65262603759766 6.299339294433594 C 23.65165710449219 8.414566040039062 19.15968322753906 11.44333648681641 15.301513671875 15.301513671875 C 11.44333648681641 19.15968322753906 8.414566040039062 23.65165710449219 6.299339294433594 28.65262603759766 C 4.110054016113281 33.82866668701172 2.999992370605469 39.3287239074707 2.999992370605469 45.0000114440918 C 2.999992370605469 50.67129898071289 4.110054016113281 56.17135620117188 6.299339294433594 61.34738159179688 C 8.414566040039062 66.34836578369141 11.44333648681641 70.84032440185547 15.301513671875 74.69849395751953 C 19.15968322753906 78.55668640136719 23.65165710449219 81.58545684814453 28.65262603759766 83.70068359375 C 33.82865142822266 85.88996887207031 39.32870864868164 87.00002288818359 44.99999618530273 87.00002288818359 C 50.67128372192383 87.00002288818359 56.17134094238281 85.88996887207031 61.34736633300781 83.70068359375 C 66.34834289550781 81.58545684814453 70.84030914306641 78.55668640136719 74.69847869873047 74.69849395751953 C 78.55665588378906 70.84032440185547 81.58542633056641 66.34836578369141 83.70065307617188 61.34738159179688 C 85.88993835449219 56.17135620117188 87 50.67129898071289 87 45.0000114440918 C 87 39.3287239074707 85.88993835449219 33.82866668701172 83.70065307617188 28.65262603759766 C 81.58542633056641 23.65165710449219 78.55665588378906 19.15968322753906 74.69847869873047 15.301513671875 C 70.84030914306641 11.44333648681641 66.34834289550781 8.414566040039062 61.34736633300781 6.299339294433594 C 56.17134094238281 4.110054016113281 50.67128372192383 3 44.99999618530273 3 M 44.99999618530273 0 C 69.85281372070312 0 90 20.14718627929688 90 45.0000114440918 C 90 69.85282897949219 69.85281372070312 90.00002288818359 44.99999618530273 90.00002288818359 C 20.14717864990234 90.00002288818359 -7.62939453125e-06 69.85282897949219 -7.62939453125e-06 45.0000114440918 C -7.62939453125e-06 20.14718627929688 20.14717864990234 0 44.99999618530273 0 Z" stroke="none" fill="#5692e8"/>
                          </g>
                        </g>
                      </g>
                    </g>
                  </g>
                </g>
              </g>
            </g>
          </g>
        </g>
      </g>
      <g id="tecnologia" transform="translate(227.059 3435.431)">
        <g id="Group_1224766" data-name="Group 1224766" transform="translate(0.872 0.872)">
          <g id="Group_1224755" data-name="Group 1224755" transform="translate(35.748)">
            <path id="Path_1212020" data-name="Path 1212020" d="M50.719,1V7.975H42V1Z" transform="translate(-42 -1)" fill="#f0d0b4"/>
          </g>
          <g id="Group_1224756" data-name="Group 1224756" transform="translate(7.847)">
            <path id="Path_1212021" data-name="Path 1212021" d="M18.719,1V7.975H10V1Z" transform="translate(-10 -1)" fill="#f0d0b4"/>
          </g>
          <g id="Group_1224757" data-name="Group 1224757" transform="translate(21.797)">
            <path id="Path_1212022" data-name="Path 1212022" d="M34.719,1V7.975H26V1Z" transform="translate(-26 -1)" fill="#f0d0b4"/>
          </g>
          <g id="Group_1224758" data-name="Group 1224758" transform="translate(3.488 12.207)">
            <path id="Path_1212023" data-name="Path 1212023" d="M50.338,48.132H5V18.488A3.488,3.488,0,0,1,8.488,15H46.851a3.488,3.488,0,0,1,3.488,3.488Z" transform="translate(-5 -15)" fill="#ccd1d9"/>
          </g>
          <g id="Group_1224759" data-name="Group 1224759" transform="translate(6.975 15.694)">
            <path id="Path_1212024" data-name="Path 1212024" d="M46.491,45.157H9.872A.872.872,0,0,1,9,44.285V19.872A.872.872,0,0,1,9.872,19h36.62a.872.872,0,0,1,.872.872V44.285A.872.872,0,0,1,46.491,45.157Z" transform="translate(-9 -19)" fill="#69d6f4"/>
          </g>
          <g id="Group_1224760" data-name="Group 1224760" transform="translate(0 45.338)">
            <path id="Path_1212025" data-name="Path 1212025" d="M51.57,53H2.744a1.7,1.7,0,0,0-1.229.514A1.7,1.7,0,0,0,1,54.744a5.236,5.236,0,0,0,5.231,5.231H48.082a5.239,5.239,0,0,0,5.231-5.231A1.749,1.749,0,0,0,51.57,53Z" transform="translate(-1 -53)" fill="#969faa"/>
          </g>
          <g id="Group_1224761" data-name="Group 1224761" transform="translate(43.595 48.826)">
            <path id="Path_1212026" data-name="Path 1212026" d="M51,57h3.488v3.488H51Z" transform="translate(-51 -57)" fill="#ff826e"/>
          </g>
          <g id="Group_1224762" data-name="Group 1224762" transform="translate(36.62 48.826)">
            <path id="Path_1212027" data-name="Path 1212027" d="M43,57h3.488v3.488H43Z" transform="translate(-43 -57)" fill="#ff826e"/>
          </g>
          <g id="Group_1224763" data-name="Group 1224763" transform="translate(20.054 45.338)">
            <path id="Path_1212028" data-name="Path 1212028" d="M36.207,53v1.744a1.749,1.749,0,0,1-1.744,1.744H25.744A1.749,1.749,0,0,1,24,54.744V53Z" transform="translate(-24 -53)" fill="#ff826e"/>
          </g>
          <g id="Group_1224764" data-name="Group 1224764" transform="translate(12.207 25.285)">
            <path id="Path_1212029" data-name="Path 1212029" d="M42.9,41.335v5.231H37.277V46.54a8.719,8.719,0,1,0-17.046-2.59,8.639,8.639,0,0,0,.4,2.616H15V41.335l2.215-.706A12.668,12.668,0,0,1,18.3,38l-1.064-2.058,3.706-3.706L23,33.3a12.668,12.668,0,0,1,2.633-1.081L26.335,30h5.231l.706,2.215A12.668,12.668,0,0,1,34.905,33.3l2.058-1.064,3.706,3.706L39.6,38a12.668,12.668,0,0,1,1.081,2.633Z" transform="translate(-15 -30)" fill="#ffc729"/>
          </g>
          <g id="Group_1224765" data-name="Group 1224765" transform="translate(17.438 30.516)">
            <path id="Path_1212030" data-name="Path 1212030" d="M38.438,44.719a8.74,8.74,0,0,1-.392,2.59v.026H32.021a3.443,3.443,0,0,0,1.186-2.616,3.488,3.488,0,0,0-6.975,0,3.443,3.443,0,0,0,1.186,2.616H21.4a8.719,8.719,0,1,1,17.037-2.616Z" transform="translate(-21 -36)" fill="#fcd770"/>
          </g>
        </g>
        <g id="Group_1224767" data-name="Group 1224767">
          <path id="Path_1212031" data-name="Path 1212031" d="M51.442,47.132H50.57V18.359A4.364,4.364,0,0,0,46.21,14H43.595v1.744H46.21a2.619,2.619,0,0,1,2.616,2.616V47.132H5.231V18.359a2.619,2.619,0,0,1,2.616-2.616h2.616V14H7.847a4.364,4.364,0,0,0-4.359,4.359V47.132H2.616A2.619,2.619,0,0,0,0,49.748a6.111,6.111,0,0,0,6.1,6.1H47.954a6.111,6.111,0,0,0,6.1-6.1A2.619,2.619,0,0,0,51.442,47.132ZM21.8,48.876H32.26v.872a.872.872,0,0,1-.872.872H22.669a.872.872,0,0,1-.872-.872Zm18.31,5.231H38.363V52.363h1.744Zm6.975,0H45.338V52.363h1.744Zm1.744-.088v-3.4H43.595v3.488H41.851V50.62H36.62v3.488H6.1a4.364,4.364,0,0,1-4.359-4.359.872.872,0,0,1,.872-.872H20.054v.872a2.619,2.619,0,0,0,2.616,2.616h8.719A2.619,2.619,0,0,0,34,49.748v-.872H51.442a.872.872,0,0,1,.872.872,4.368,4.368,0,0,1-3.488,4.271Z" transform="translate(0 -1.793)"/>
          <path id="Path_1212032" data-name="Path 1212032" d="M20.207,19.744V18H9.744A1.746,1.746,0,0,0,8,19.744V44.157A1.746,1.746,0,0,0,9.744,45.9h36.62a1.746,1.746,0,0,0,1.744-1.744V19.744A1.746,1.746,0,0,0,46.363,18H35.9v1.744H46.363V44.157H42.876v-5L40.492,38.4a13.131,13.131,0,0,0-.8-1.943l1.144-2.222-4.6-4.6-2.222,1.144a13.17,13.17,0,0,0-1.943-.8L31.3,27.591H24.8l-.764,2.384a13.131,13.131,0,0,0-1.943.8l-2.222-1.144-4.6,4.6,1.144,2.222a13.17,13.17,0,0,0-.8,1.943l-2.385.766v5H9.744V19.744Zm0,22.669a7.848,7.848,0,1,1,15.477,1.744H32.046a4.359,4.359,0,1,0-7.985,0H20.424A7.853,7.853,0,0,1,20.207,42.413Zm5.231,0a2.616,2.616,0,1,1,4.544,1.744H26.124A2.607,2.607,0,0,1,25.438,42.413Zm-10.463-1.98,2.054-.657.127-.451a11.239,11.239,0,0,1,1.005-2.439l.228-.409-.985-1.913,2.8-2.8,1.913.985.409-.228a11.239,11.239,0,0,1,2.439-1.005l.451-.127.657-2.053h3.959l.657,2.054.451.127a11.239,11.239,0,0,1,2.439,1.005l.409.228,1.913-.985,2.8,2.8-.985,1.913.228.409a11.238,11.238,0,0,1,1.005,2.439l.127.451,2.054.657v3.724H37.48a9.591,9.591,0,1,0-18.852,0H14.975Z" transform="translate(-1.025 -2.306)"/>
          <path id="Path_1212033" data-name="Path 1212033" d="M13,4h3.488V5.744H13Z" transform="translate(-1.665 -0.512)"/>
          <path id="Path_1212034" data-name="Path 1212034" d="M29,4h3.488V5.744H29Z" transform="translate(-3.715 -0.512)"/>
          <path id="Path_1212035" data-name="Path 1212035" d="M45,4h3.488V5.744H45Z" transform="translate(-5.765 -0.512)"/>
          <path id="Path_1212036" data-name="Path 1212036" d="M29.359,23.541H31.1V8.719h4.359V0H25V8.719h4.359Zm-2.616-21.8h6.975V6.975H26.744Z" transform="translate(-3.203)"/>
          <path id="Path_1212037" data-name="Path 1212037" d="M44.719,12.207H36V23.541h1.744V13.95h8.719V8.719h4.359V0H40.359V8.719h4.359ZM42.1,1.744h6.975V6.975H42.1Z" transform="translate(-4.612)"/>
          <path id="Path_1212038" data-name="Path 1212038" d="M13.359,13.95h8.719v9.591h1.744V12.207H15.1V8.719h4.359V0H9V8.719h4.359ZM10.744,1.744h6.975V6.975H10.744Z" transform="translate(-1.153)"/>
        </g>
      </g>
    </g>
  </g>
</svg>
