<svg xmlns="http://www.w3.org/2000/svg" xmlns:xlink="http://www.w3.org/1999/xlink" width="108" height="108" viewBox="0 0 108 108">
  <defs>
    <filter id="Path_904820" x="0" y="0" width="108" height="108" filterUnits="userSpaceOnUse">
      <feOffset dy="3" input="SourceAlpha"/>
      <feGaussianBlur stdDeviation="3" result="blur"/>
      <feFlood flood-opacity="0.161"/>
      <feComposite operator="in" in2="blur"/>
      <feComposite in="SourceGraphic"/>
    </filter>
  </defs>
  <g id="Group_1224788" data-name="Group 1224788" transform="translate(-619.97 -475.056)">
    <g id="Group_1224355" data-name="Group 1224355">
      <g id="Group_1206304" data-name="Group 1206304" transform="translate(-0.029 -405.944)">
        <g id="Group_1203639" data-name="Group 1203639" transform="translate(0 81)">
          <g id="Group_1202437" data-name="Group 1202437" transform="translate(0.523 386.813)">
            <g id="Group_1177315" data-name="Group 1177315" transform="translate(-0.523 -112.813)">
              <g id="Group_1173585" data-name="Group 1173585" transform="translate(629 532)">
                <g id="Group_1173428" data-name="Group 1173428" transform="translate(0 0)">
                  <g id="Group_1171958" data-name="Group 1171958">
                    <g id="Group_1167341" data-name="Group 1167341">
                      <g id="Group_1166792" data-name="Group 1166792">
                        <g transform="matrix(1, 0, 0, 1, -9, -6)" filter="url(#Path_904820)">
                          <g id="Path_904820-2" data-name="Path 904820" transform="translate(9 6)" fill="#fdfbec">
                            <path d="M 44.99999618530273 88.49999237060547 C 39.12687301635742 88.49999237060547 33.43022155761719 87.35006713867188 28.06829643249512 85.08216857910156 C 22.88852119445801 82.89130401611328 18.23629570007324 79.75457763671875 14.24084663391113 75.75914001464844 C 10.24540901184082 71.76369476318359 7.108683586120605 67.11146545410156 4.917821407318115 61.93169403076172 C 2.649921178817749 56.56976699829102 1.499996185302734 50.87311553955078 1.499996185302734 44.99999237060547 C 1.499996185302734 39.12686920166016 2.649921178817749 33.43021774291992 4.917821407318115 28.06829261779785 C 7.108683586120605 22.88851737976074 10.24540901184082 18.23630523681641 14.24084663391113 14.24085521697998 C 18.23629570007324 10.24540519714355 22.88852119445801 7.108692169189453 28.06829643249512 4.917829990386963 C 33.43022155761719 2.649929761886597 39.12687301635742 1.500004887580872 44.99999618530273 1.500004887580872 C 50.87311935424805 1.500004887580872 56.56977081298828 2.649929761886597 61.93169784545898 4.917829990386963 C 67.11147308349609 7.108692169189453 71.76369476318359 10.24540519714355 75.75914764404297 14.24085521697998 C 79.75458526611328 18.23630523681641 82.89131164550781 22.88851737976074 85.08216857910156 28.06829261779785 C 87.35007476806641 33.43021774291992 88.5 39.12686920166016 88.5 44.99999237060547 C 88.5 50.87311553955078 87.35007476806641 56.56976699829102 85.08216857910156 61.93169403076172 C 82.89131164550781 67.11146545410156 79.75458526611328 71.76369476318359 75.75914764404297 75.75914001464844 C 71.76369476318359 79.75457763671875 67.11147308349609 82.89130401611328 61.93169784545898 85.08216857910156 C 56.56977081298828 87.35006713867188 50.87311935424805 88.49999237060547 44.99999618530273 88.49999237060547 Z" stroke="none"/>
                            <path d="M 44.99999618530273 2.999992370605469 C 39.32870864868164 2.999992370605469 33.82865142822266 4.11004638671875 28.65262603759766 6.299331665039062 C 23.65165710449219 8.414566040039062 19.15968322753906 11.44333648681641 15.301513671875 15.30150604248047 C 11.44333648681641 19.15967559814453 8.414566040039062 23.65164947509766 6.299339294433594 28.65262222290039 C 4.110054016113281 33.82864761352539 2.999992370605469 39.32870483398438 2.999992370605469 44.99999237060547 C 2.999992370605469 50.67127990722656 4.110054016113281 56.17132186889648 6.299339294433594 61.34736633300781 C 8.414566040039062 66.34833526611328 11.44333648681641 70.84029388427734 15.301513671875 74.69846343994141 C 19.15968322753906 78.55663299560547 23.65165710449219 81.58540344238281 28.65262603759766 83.70063781738281 C 33.82865142822266 85.88992309570312 39.32870864868164 86.99997711181641 44.99999618530273 86.99997711181641 C 50.67128372192383 86.99997711181641 56.17134094238281 85.88992309570312 61.34736633300781 83.70063781738281 C 66.34834289550781 81.58540344238281 70.84030914306641 78.55663299560547 74.69847869873047 74.69846343994141 C 78.55665588378906 70.84029388427734 81.58542633056641 66.34833526611328 83.70065307617188 61.34736633300781 C 85.88993835449219 56.17132186889648 87 50.67127990722656 87 44.99999237060547 C 87 39.32870483398438 85.88993835449219 33.82864761352539 83.70065307617188 28.65262222290039 C 81.58542633056641 23.65164947509766 78.55665588378906 19.15967559814453 74.69847869873047 15.30150604248047 C 70.84030914306641 11.44333648681641 66.34834289550781 8.414566040039062 61.34736633300781 6.299331665039062 C 56.17134094238281 4.11004638671875 50.67128372192383 2.999992370605469 44.99999618530273 2.999992370605469 M 44.99999618530273 -7.62939453125e-06 C 69.85281372070312 -7.62939453125e-06 90 20.14717864990234 90 44.99999237060547 C 90 69.85279083251953 69.85281372070312 89.99997711181641 44.99999618530273 89.99997711181641 C 20.14717864990234 89.99997711181641 -7.62939453125e-06 69.85279083251953 -7.62939453125e-06 44.99999237060547 C -7.62939453125e-06 20.14717864990234 20.14717864990234 -7.62939453125e-06 44.99999618530273 -7.62939453125e-06 Z" stroke="none" fill="#83793c"/>
                          </g>
                        </g>
                      </g>
                    </g>
                  </g>
                </g>
              </g>
            </g>
          </g>
        </g>
      </g>
      <g id="psicologia" transform="translate(642.79 494.872)">
        <g id="Group_1224353" data-name="Group 1224353" transform="translate(0.913 0.918)">
          <g id="Group_1224350" data-name="Group 1224350" transform="translate(10.561)">
            <g id="Group_1224348" data-name="Group 1224348" transform="translate(4.764)">
              <path id="Path_1211135" data-name="Path 1211135" d="M158.455,12.708l-2.866,1.654a11.3,11.3,0,0,0-3.373-1.946V9.107a1.6,1.6,0,0,0-1.606-1.6h-4.69a1.606,1.606,0,0,0-1.606,1.6v3.308a11.4,11.4,0,0,0-3.377,1.945l-2.862-1.652a1.606,1.606,0,0,0-2.192.588l-2.345,4.061a1.605,1.605,0,0,0,.588,2.192l2.86,1.652a11.439,11.439,0,0,0,0,3.9l-2.866,1.654a1.606,1.606,0,0,0-.587,2.193l2.345,4.061a1.606,1.606,0,0,0,2.192.589l2.866-1.654a11.329,11.329,0,0,0,3.374,1.948V37.2a1.605,1.605,0,0,0,1.6,1.606h4.691a1.606,1.606,0,0,0,1.6-1.606V33.89a11.431,11.431,0,0,0,3.376-1.946l2.862,1.652a1.6,1.6,0,0,0,2.193-.587l2.344-4.063a1.6,1.6,0,0,0-.587-2.193L159.544,25.1a11.39,11.39,0,0,0,0-3.9l2.866-1.654a1.605,1.605,0,0,0,.587-2.193L160.647,13.3a1.6,1.6,0,0,0-2.192-.589Zm-4.372,13.8a6.717,6.717,0,1,1-2.458-9.175A6.716,6.716,0,0,1,154.083,26.511Z" transform="translate(-133.325 -7.502)" fill="#685e68"/>
            </g>
            <path id="Path_1211136" data-name="Path 1211136" d="M124.75,167.2V152.181h31.972v9.045" transform="translate(-121.03 -134.559)" fill="#ffc344"/>
            <path id="Path_1211137" data-name="Path 1211137" d="M185.734,422.917H163.1a11.314,11.314,0,0,1,22.629,0Z" transform="translate(-154.714 -362.384)" fill="#9be69d"/>
            <path id="Path_1211138" data-name="Path 1211138" d="M177.42,412a11.317,11.317,0,0,0-8.316,10.912h-6A11.325,11.325,0,0,1,177.42,412Z" transform="translate(-154.714 -362.384)" fill="#6fd7a3"/>
            <path id="Path_1211139" data-name="Path 1211139" d="M133.621,185.025c0,2.788-1.665,5.047-3.72,5.047a3.206,3.206,0,0,1-2.427-1.225,13.7,13.7,0,0,1-8.662,10.95c-.384.147-.777.278-1.177.391v2.063a3.72,3.72,0,1,1-7.439,0v-2.063a13.7,13.7,0,0,1-9.839-11.341,3.206,3.206,0,0,1-2.427,1.225c-2.055,0-3.72-2.259-3.72-5.047s1.665-5.047,3.72-5.047a3.155,3.155,0,0,1,2.306,1.089c5.644-1.052,7.67-7.533,7.67-7.533s4.358,7.549,19.309,3.947a13.625,13.625,0,0,1,.382,3.22v.365a3.155,3.155,0,0,1,2.306-1.089C131.956,179.977,133.621,182.237,133.621,185.025Z" transform="translate(-94.21 -153.311)" fill="#ffdfcf"/>
            <path id="Path_1211140" data-name="Path 1211140" d="M118.812,246.262c-.384.147-.777.278-1.177.391v2.063a3.72,3.72,0,0,1-7.439,0v-2.063a13.7,13.7,0,0,1-9.839-11.341,3.206,3.206,0,0,1-2.427,1.225c-2.055,0-3.72-2.259-3.72-5.047s1.665-5.047,3.72-5.047a3.155,3.155,0,0,1,2.306,1.089,8.084,8.084,0,0,0,2.23-.764c0,.965-.007,1.627-.007,1.805,0,9.35,6.8,16.931,15.188,16.931A1.463,1.463,0,0,1,118.812,246.262Z" transform="translate(-94.21 -199.776)" fill="#ffcebf"/>
            <g id="Group_1224349" data-name="Group 1224349" transform="translate(2.361 29.965)">
              <path id="Path_1211141" data-name="Path 1211141" d="M378.9,256.2a3.894,3.894,0,0,1,1.782-2.673,2.817,2.817,0,0,1,.239,3C380,257.979,378.9,256.2,378.9,256.2Z" transform="translate(-346.587 -253.524)" fill="#ffcebf"/>
              <path id="Path_1211142" data-name="Path 1211142" d="M115.972,256.2a3.894,3.894,0,0,0-1.782-2.673,2.817,2.817,0,0,0-.239,3C114.868,257.979,115.972,256.2,115.972,256.2Z" transform="translate(-113.596 -253.524)" fill="#ffb09e"/>
            </g>
          </g>
          <g id="Group_1224351" data-name="Group 1224351" transform="translate(42.27 13.807)">
            <circle id="Ellipse_12668" data-name="Ellipse 12668" cx="9.132" cy="9.132" r="9.132" transform="translate(0 0.001)" fill="#fef056"/>
            <path id="Path_1211143" data-name="Path 1211143" d="M366.059,138.815a9.132,9.132,0,1,1,0-17.64,9.134,9.134,0,0,0,0,17.64Z" transform="translate(-354.553 -120.863)" fill="#fedf30"/>
          </g>
          <g id="Group_1224352" data-name="Group 1224352" transform="translate(0 13.807)">
            <circle id="Ellipse_12669" data-name="Ellipse 12669" cx="9.132" cy="9.132" r="9.132" transform="translate(0 0.001)" fill="#fe646f"/>
            <path id="Path_1211144" data-name="Path 1211144" d="M19.006,138.815a9.132,9.132,0,1,1,0-17.64,9.134,9.134,0,0,0,0,17.64Z" transform="translate(-7.5 -120.863)" fill="#fd4755"/>
          </g>
        </g>
        <g id="Group_1224354" data-name="Group 1224354" transform="translate(0 0.005)">
          <path id="Path_1211145" data-name="Path 1211145" d="M223.071,240.848a.913.913,0,0,0-1.827,0v2.4a.913.913,0,0,0,1.827,0Z" transform="translate(-194.297 -210.712)"/>
          <path id="Path_1211146" data-name="Path 1211146" d="M277.583,243.253v-2.4a.913.913,0,1,0-1.827,0v2.4a.913.913,0,0,0,1.827,0Z" transform="translate(-242.17 -210.713)"/>
          <path id="Path_1211147" data-name="Path 1211147" d="M233.678,313.6h3.833a.913.913,0,1,0,0-1.827h-3.833a.913.913,0,1,0,0,1.827Z" transform="translate(-204.415 -273.801)"/>
          <path id="Path_1211148" data-name="Path 1211148" d="M53.229,13.856V10.783A2.889,2.889,0,0,0,50.343,7.9H45.3l-.948-1.641a2.523,2.523,0,0,0-3.441-.923L38.584,6.678a12.105,12.105,0,0,0-2.54-1.466V2.523A2.52,2.52,0,0,0,33.526,0h-4.69a2.521,2.521,0,0,0-2.519,2.518V5.211a12.3,12.3,0,0,0-2.544,1.465L21.448,5.333a2.523,2.523,0,0,0-3.439.923L17.06,7.9H12.017a2.889,2.889,0,0,0-2.886,2.886v3.073a10.049,10.049,0,0,0-8.216,14.2.914.914,0,1,0,1.66-.763A8.23,8.23,0,1,1,4.948,30.3a.913.913,0,1,0-1.135,1.432A9.934,9.934,0,0,0,10.045,33.9c.208,0,.414-.008.619-.021.445,2.708,2.306,4.711,4.531,4.711a3.788,3.788,0,0,0,1.814-.47A14.565,14.565,0,0,0,26.547,48.47v1.389c0,.092,0,.182.009.273a12.218,12.218,0,0,0-7.6,11.32.914.914,0,0,0,.913.913H42.495a.913.913,0,0,0,.913-.913,12.146,12.146,0,0,0-3.582-8.646A12.315,12.315,0,0,0,35.8,50.13c.005-.09.009-.18.009-.271V48.469q.3-.1.591-.212a14.672,14.672,0,0,0,1.95-.92.914.914,0,0,0-.9-1.59,12.818,12.818,0,0,1-1.706.8c-.353.136-.723.259-1.1.365a.913.913,0,0,0-.664.879v2.063a2.806,2.806,0,1,1-5.612,0V47.8a.913.913,0,0,0-.666-.879,12.742,12.742,0,0,1-9.181-10.582.913.913,0,0,0-1.6-.472,2.328,2.328,0,0,1-1.733.9c-1.293,0-2.42-1.362-2.725-3.161a9.981,9.981,0,0,0,2.454-.971,3.7,3.7,0,0,1,.384,1.057.914.914,0,0,0,.9.779.923.923,0,0,0,.136-.01.914.914,0,0,0,.769-1.038,5.344,5.344,0,0,0-.677-1.821,10.126,10.126,0,0,0,1.982-2.2c3.921-1.08,6.067-4.492,7.016-6.492a12.114,12.114,0,0,0,3.134,2.258c4.5,2.3,9.962,2.009,14.034,1.259a10.066,10.066,0,0,0,3.32,5.179,5.347,5.347,0,0,0-.677,1.821.913.913,0,0,0,1.806.274,3.7,3.7,0,0,1,.385-1.062,9.977,9.977,0,0,0,2.454.971c-.3,1.8-1.432,3.161-2.725,3.161a2.328,2.328,0,0,1-1.733-.9.913.913,0,0,0-1.6.472,12.667,12.667,0,0,1-3.27,6.949.914.914,0,0,0,1.342,1.239,14.491,14.491,0,0,0,3.447-6.4,3.786,3.786,0,0,0,1.814.469c2.224,0,4.086-2,4.531-4.712.2.013.411.021.619.021a10.044,10.044,0,0,0,.913-20.047ZM31.18,54.492a4.634,4.634,0,0,0,4.154-2.578,10.479,10.479,0,0,1,3.2,2.184,10.32,10.32,0,0,1,3.007,6.44H20.819a10.392,10.392,0,0,1,6.21-8.624,4.638,4.638,0,0,0,4.151,2.579ZM50.343,9.724A1.06,1.06,0,0,1,51.4,10.783v3.073a10.036,10.036,0,0,0-6.957,3.771h-.954a12.327,12.327,0,0,0-.042-2.525l2.328-1.344a2.521,2.521,0,0,0,.921-3.44l-.342-.593h3.988ZM19.59,7.169a.693.693,0,0,1,.944-.254L23.4,8.568a.913.913,0,0,0,1.042-.089,10.493,10.493,0,0,1,3.108-1.791.913.913,0,0,0,.6-.857V2.523a.692.692,0,0,1,.692-.691h4.69a.691.691,0,0,1,.691.691V5.832a.913.913,0,0,0,.6.857,10.389,10.389,0,0,1,3.1,1.792.913.913,0,0,0,1.041.089l2.863-1.654a.693.693,0,0,1,.946.253l2.346,4.062a.692.692,0,0,1-.253.944L42,13.83a.914.914,0,0,0-.443.946,10.545,10.545,0,0,1,.1,2.851H38.737a7.6,7.6,0,0,0-.723-4.45.914.914,0,0,0-1.637.812,5.783,5.783,0,0,1,.509,3.639H25.475a5.8,5.8,0,0,1,8.388-6.2A.913.913,0,1,0,34.709,9.8a7.627,7.627,0,0,0-11.083,7.822H20.708a10.439,10.439,0,0,1,.1-2.853.913.913,0,0,0-.443-.947L17.5,12.176a.691.691,0,0,1-.254-.944Zm-8.632,6.686V10.783a1.06,1.06,0,0,1,1.059-1.059H16l-.342.593a2.518,2.518,0,0,0,.923,3.44L18.91,15.1a12.253,12.253,0,0,0-.038,2.527h-.956a10.038,10.038,0,0,0-6.957-3.771ZM29.523,23.6a8.906,8.906,0,0,1-3.563-2.914.914.914,0,0,0-1.663.183c-.015.049-1.351,4.154-4.692,6.068a10.023,10.023,0,0,0-.535-7.481H43.289a9.983,9.983,0,0,0-1.019,4.4c0,.256.013.51.032.761-6.414,1.194-10.475.121-12.779-1.021Zm22.792,8.478a8.218,8.218,0,1,1,8.218-8.218A8.227,8.227,0,0,1,52.315,32.076Z" transform="translate(0 -0.005)"/>
          <path id="Path_1211149" data-name="Path 1211149" d="M388.765,188.343a.913.913,0,0,0-.914.913,4.589,4.589,0,1,1-9.179,0,.913.913,0,1,0-1.827,0,6.416,6.416,0,1,0,12.833,0A.913.913,0,0,0,388.765,188.343Z" transform="translate(-330.947 -165.404)"/>
          <path id="Path_1211150" data-name="Path 1211150" d="M403.443,163.239a.913.913,0,0,0,.913-.913v-2.4a.913.913,0,0,0-1.827,0v2.4A.914.914,0,0,0,403.443,163.239Z" transform="translate(-353.503 -139.642)"/>
          <path id="Path_1211151" data-name="Path 1211151" d="M442.436,163.239a.913.913,0,0,0,.913-.913v-2.4a.913.913,0,0,0-1.827,0v2.4A.914.914,0,0,0,442.436,163.239Z" transform="translate(-387.747 -139.642)"/>
          <path id="Path_1211152" data-name="Path 1211152" d="M44.176,200.2a.913.913,0,1,0,1.827,0,2.838,2.838,0,0,1,5.675,0,.913.913,0,0,0,1.827,0,4.665,4.665,0,0,0-9.329,0Z" transform="translate(-38.795 -171.719)"/>
          <path id="Path_1211153" data-name="Path 1211153" d="M57.3,162.325v-2.4a.913.913,0,0,0-1.827,0v2.4a.913.913,0,1,0,1.827,0Z" transform="translate(-48.72 -139.642)"/>
          <path id="Path_1211154" data-name="Path 1211154" d="M96.3,162.325v-2.4a.913.913,0,0,0-1.827,0v2.4a.913.913,0,0,0,1.827,0Z" transform="translate(-82.964 -139.642)"/>
        </g>
      </g>
    </g>
  </g>
</svg>
