<svg xmlns="http://www.w3.org/2000/svg" width="88.16" height="88.16" viewBox="0 0 88.16 88.16">
  <g id="Group_1224804" data-name="Group 1224804" transform="translate(-199.67 -5536.763)">
    <g id="Group_1224445" data-name="Group 1224445">
      <g id="Grupo_1206198" data-name="Grupo 1206198" transform="translate(0 1998.545)">
        <g id="Grupo_1203824" data-name="Grupo 1203824" transform="translate(199.67 3538.218)">
          <g id="Grupo_1203344" data-name="Grupo 1203344">
            <g id="Grupo_1177900" data-name="Grupo 1177900">
              <g id="Grupo_1172010" data-name="Grupo 1172010">
                <g id="Grupo_1171046" data-name="Grupo 1171046">
                  <g id="Grupo_1148525" data-name="Grupo 1148525">
                    <g id="Trazado_982547" data-name="Trazado 982547">
                      <path id="Path_1045263" data-name="Path 1045263" d="M44.08,86.66A42.592,42.592,0,0,1,27.507,4.846,42.592,42.592,0,0,1,60.654,83.315,42.311,42.311,0,0,1,44.08,86.66Z" fill="#fdfbec"/>
                      <path id="Path_1045264" data-name="Path 1045264" d="M44.08,3A41.092,41.092,0,0,0,28.091,81.933,41.092,41.092,0,0,0,60.069,6.227,40.82,40.82,0,0,0,44.08,3m0-3A44.08,44.08,0,1,1,0,44.08,44.08,44.08,0,0,1,44.08,0Z" fill="#83793c"/>
                    </g>
                  </g>
                </g>
              </g>
            </g>
          </g>
        </g>
      </g>
      <g id="objetivo_3_" data-name="objetivo (3)" transform="translate(207.17 5547.583)">
        <path id="Path_1211346" data-name="Path 1211346" d="M45.7,458.827H33.023v-4.472A2.356,2.356,0,0,1,35.379,452h7.965a2.356,2.356,0,0,1,2.356,2.356Zm0,0" transform="translate(-28.729 -393.216)" fill="#a7c7d3"/>
        <path id="Path_1211347" data-name="Path 1211347" d="M143.174,419.71H130.5V409.391a2.356,2.356,0,0,1,2.356-2.356h7.966a2.356,2.356,0,0,1,2.356,2.356Zm0,0" transform="translate(-113.525 -354.099)" fill="#89b4c9"/>
        <path id="Path_1211348" data-name="Path 1211348" d="M240.65,377.688H227.972v-16.6a2.356,2.356,0,0,1,2.356-2.356h7.966a2.356,2.356,0,0,1,2.356,2.356Zm0,0" transform="translate(-198.324 -312.076)" fill="#6c96b3"/>
        <path id="Path_1211349" data-name="Path 1211349" d="M338.126,313.947H325.449V287.816a2.356,2.356,0,0,1,2.356-2.356h7.965a2.356,2.356,0,0,1,2.356,2.356Zm0,0" transform="translate(-283.123 -248.335)" fill="#618aaa"/>
        <path id="Path_1211350" data-name="Path 1211350" d="M351.906,26.878h12.751a.429.429,0,0,0,.283-.75l-3.312-2.916a.429.429,0,0,1,0-.643l3.312-2.917a.428.428,0,0,0-.283-.75H351.906Zm0,0" transform="translate(-306.139 -16.444)" fill="#fdb659"/>
        <path id="Path_1211351" data-name="Path 1211351" d="M235.571,108.93l-13.813,7.5c-1.232.669-1.569,1.846-2,3.361l-2.747,9.713,6.731-2.758,2.613-7.9,6.951-4.223A5.087,5.087,0,0,0,235.571,108.93Zm0,0" transform="translate(-188.789 -94.763)" fill="#83d9ff"/>
        <path id="Path_1211352" data-name="Path 1211352" d="M235.571,108.93l-1.594.865a5.085,5.085,0,0,1-2.351,3.372l-6.334,3.848a1.966,1.966,0,0,0-.845,1.062l-.9,2.734a10.251,10.251,0,0,1-5.845,6.265l-.687,2.429,6.731-2.759,2.613-7.9,6.951-4.223a5.088,5.088,0,0,0,2.264-5.7Zm0,0" transform="translate(-188.789 -94.763)" fill="#5fc9ed"/>
        <path id="Path_1211353" data-name="Path 1211353" d="M223.743,245.926l3.978,4.7c.659.873,1.232,1.486,1.114,2.447l-.931,7.519h-2.427l-.635-6.465a1.08,1.08,0,0,0-.647-.885l-7.183-4.558Zm0,0" transform="translate(-188.789 -213.942)" fill="#38627c"/>
        <path id="Path_1211354" data-name="Path 1211354" d="M182.615,248.685l-.388,7.127a3.132,3.132,0,0,1-.173,1.43l-4.581,9.637h2.575l6.887-9.148a3.723,3.723,0,0,0,.585-1.691l1.826-10.114Zm0,0" transform="translate(-154.392 -213.943)" fill="#4f7693"/>
        <path id="Path_1211355" data-name="Path 1211355" d="M232.475,113.081l1.13,2.2a2.108,2.108,0,0,1-.915,2.838l-.873.447a2.108,2.108,0,0,1-2.837-.915l-1.13-2.2a2.109,2.109,0,0,1,.915-2.838l.873-.447A2.108,2.108,0,0,1,232.475,113.081Zm0,0" transform="translate(-198.014 -97.376)" fill="#fecbaa"/>
        <path id="Path_1211356" data-name="Path 1211356" d="M59.446,8.951,56.6,6.446l2.845-2.505a1.4,1.4,0,0,0-.928-2.459H46.743V.976a.976.976,0,1,0-1.952,0V14.138L36.776,18.49a3.088,3.088,0,0,0-.317-1.025l-1.129-2.2a3.088,3.088,0,0,0-4.151-1.339l-.873.447a3.083,3.083,0,0,0-1.339,4.151L30.1,20.724a3.065,3.065,0,0,0,1.112,1.208,8.549,8.549,0,0,0-1.177,2.831l-.21.745a.976.976,0,0,0,.674,1.2.961.961,0,0,0,.266.037.977.977,0,0,0,.939-.711l.21-.743c.428-1.508.69-2.316,1.527-2.77l1.5-.814.185-.094c.061-.031.119-.067.177-.1l10.685-5.8a4.13,4.13,0,0,1-1.97,3.316L37.063,23.25l-.024.014-2.163,1.314a.976.976,0,0,0,.933,1.712l-1.641,4.96-1.2.492-3.261,1.337.94-3.322a.976.976,0,1,0-1.879-.531l-1.485,5.251a.937.937,0,0,0-.035.212l-.389,7.139a3.266,3.266,0,0,1-.08,1.053l-4.316,9.08H19.328A3.336,3.336,0,0,0,16,55.292v2.817a3.306,3.306,0,0,0-1.38-.3H6.651A3.335,3.335,0,0,0,3.319,61.14v3.5H.976a.976.976,0,0,0,0,1.952H58.517a.976.976,0,0,0,0-1.952H55.979V39.481a3.335,3.335,0,0,0-3.332-3.332h-5.9V19.124a6.086,6.086,0,0,0,.98-5.216.976.976,0,0,0-.98-.716V11.41H58.517a1.4,1.4,0,0,0,.929-2.459ZM30.634,16.766a1.124,1.124,0,0,1,.561-.66l.873-.447a1.132,1.132,0,0,1,1.524.491l1.13,2.205a1.134,1.134,0,0,1-.376,1.455l-.318.172-.671.344a1.133,1.133,0,0,1-1.524-.492l-1.13-2.2a1.125,1.125,0,0,1-.07-.864Zm-1.961,35.5a3.313,3.313,0,0,0-1.071-.286l1.071-1.423ZM33.306,44.4a3.678,3.678,0,0,0,.7-1.749c.026-.126.508-2.757.508-2.757s.456.284.5.3a.1.1,0,0,1,.06.085l.531,5.4H32.342Zm5.771-5.387-.824,6.663h-.68l-.549-5.583a2.056,2.056,0,0,0-1.15-1.65l-.981-.622.654-3.624s2.754,3.272,2.819,3.355c.57.741.765,1.038.712,1.461ZM28.536,43.734a5.291,5.291,0,0,0,.273-1.812l.355-6.511,4.514-1.85-.82,4.545c0,.012-.005.025-.007.037L32.172,41.9a3.718,3.718,0,0,1-.408,1.3l-6.595,8.759h-.544ZM5.271,61.14a1.381,1.381,0,0,1,1.38-1.379h7.965A1.381,1.381,0,0,1,16,61.14v3.5H5.271Zm12.677,0V55.292a1.382,1.382,0,0,1,1.38-1.38h7.965a1.381,1.381,0,0,1,1.38,1.38v9.344H17.948v-3.5ZM54.027,39.481V64.636H43.3V58.784a.976.976,0,0,0-1.952,0v5.851H30.625V49.009A1.381,1.381,0,0,1,32,47.63H39.97a1.381,1.381,0,0,1,1.38,1.379V53.9a.976.976,0,1,0,1.952,0V39.481a1.382,1.382,0,0,1,1.38-1.38h7.965a1.382,1.382,0,0,1,1.38,1.38Zm-9.345-3.332a3.335,3.335,0,0,0-3.332,3.332v6.5a3.3,3.3,0,0,0-1.131-.29l.8-6.438a3.769,3.769,0,0,0-1.1-2.891c-.066-.085-3.859-4.589-3.859-4.589l2.327-7.036,6.41-3.894v15.31ZM46.743,9.458V3.434H57.067L54.843,5.392a1.4,1.4,0,0,0,0,2.108l2.224,1.958H46.743Zm0,0" transform="translate(0 0)"/>
      </g>
    </g>
  </g>
</svg>
