<svg xmlns="http://www.w3.org/2000/svg" xmlns:xlink="http://www.w3.org/1999/xlink" width="108" height="108" viewBox="0 0 108 108">
  <defs>
    <filter id="Path_904820" x="0" y="0" width="108" height="108" filterUnits="userSpaceOnUse">
      <feOffset dy="3" input="SourceAlpha"/>
      <feGaussianBlur stdDeviation="3" result="blur"/>
      <feFlood flood-opacity="0.161"/>
      <feComposite operator="in" in2="blur"/>
      <feComposite in="SourceGraphic"/>
    </filter>
  </defs>
  <g id="Group_1224790" data-name="Group 1224790" transform="translate(-205 -1509.138)">
    <g id="Group_1224365" data-name="Group 1224365">
      <g id="Group_1206306" data-name="Group 1206306" transform="translate(214 1515.138)">
        <g id="Group_1203792" data-name="Group 1203792">
          <g id="Group_1203172" data-name="Group 1203172" transform="translate(0 0)">
            <g id="Group_1202793" data-name="Group 1202793">
              <g id="Group_1178315" data-name="Group 1178315">
                <g id="Group_1173585" data-name="Group 1173585">
                  <g id="Group_1173428" data-name="Group 1173428">
                    <g id="Group_1171958" data-name="Group 1171958">
                      <g id="Group_1167341" data-name="Group 1167341">
                        <g id="Group_1166792" data-name="Group 1166792">
                          <g transform="matrix(1, 0, 0, 1, -9, -6)" filter="url(#Path_904820)">
                            <g id="Path_904820-2" data-name="Path 904820" transform="translate(9 6)" fill="#effbfe">
                              <path d="M 44.99999618530273 88.49999237060547 C 39.12687301635742 88.49999237060547 33.43022155761719 87.35006713867188 28.06829643249512 85.08216857910156 C 22.88852119445801 82.89130401611328 18.23629570007324 79.75457763671875 14.24084663391113 75.75914001464844 C 10.24540901184082 71.76369476318359 7.108683586120605 67.11146545410156 4.917821407318115 61.93169403076172 C 2.649921178817749 56.56976699829102 1.499996185302734 50.87311553955078 1.499996185302734 44.99999237060547 C 1.499996185302734 39.12686920166016 2.649921178817749 33.43021774291992 4.917821407318115 28.06829261779785 C 7.108683586120605 22.88851737976074 10.24540901184082 18.23630523681641 14.24084663391113 14.24085521697998 C 18.23629570007324 10.24540519714355 22.88852119445801 7.108692169189453 28.06829643249512 4.917829990386963 C 33.43022155761719 2.649929761886597 39.12687301635742 1.500004887580872 44.99999618530273 1.500004887580872 C 50.87311935424805 1.500004887580872 56.56977081298828 2.649929761886597 61.93169784545898 4.917829990386963 C 67.11147308349609 7.108692169189453 71.76369476318359 10.24540519714355 75.75914764404297 14.24085521697998 C 79.75458526611328 18.23630523681641 82.89131164550781 22.88851737976074 85.08216857910156 28.06829261779785 C 87.35007476806641 33.43021774291992 88.5 39.12686920166016 88.5 44.99999237060547 C 88.5 50.87311553955078 87.35007476806641 56.56976699829102 85.08216857910156 61.93169403076172 C 82.89131164550781 67.11146545410156 79.75458526611328 71.76369476318359 75.75914764404297 75.75914001464844 C 71.76369476318359 79.75457763671875 67.11147308349609 82.89130401611328 61.93169784545898 85.08216857910156 C 56.56977081298828 87.35006713867188 50.87311935424805 88.49999237060547 44.99999618530273 88.49999237060547 Z" stroke="none"/>
                              <path d="M 44.99999618530273 2.999992370605469 C 39.32870864868164 2.999992370605469 33.82865142822266 4.11004638671875 28.65262603759766 6.299331665039062 C 23.65165710449219 8.414566040039062 19.15968322753906 11.44333648681641 15.301513671875 15.30150604248047 C 11.44333648681641 19.15967559814453 8.414566040039062 23.65164947509766 6.299339294433594 28.65262222290039 C 4.110054016113281 33.82864761352539 2.999992370605469 39.32870483398438 2.999992370605469 44.99999237060547 C 2.999992370605469 50.67127990722656 4.110054016113281 56.17132186889648 6.299339294433594 61.34736633300781 C 8.414566040039062 66.34833526611328 11.44333648681641 70.84029388427734 15.301513671875 74.69846343994141 C 19.15968322753906 78.55663299560547 23.65165710449219 81.58540344238281 28.65262603759766 83.70063781738281 C 33.82865142822266 85.88992309570312 39.32870864868164 86.99997711181641 44.99999618530273 86.99997711181641 C 50.67128372192383 86.99997711181641 56.17134094238281 85.88992309570312 61.34736633300781 83.70063781738281 C 66.34834289550781 81.58540344238281 70.84030914306641 78.55663299560547 74.69847869873047 74.69846343994141 C 78.55665588378906 70.84029388427734 81.58542633056641 66.34833526611328 83.70065307617188 61.34736633300781 C 85.88993835449219 56.17132186889648 87 50.67127990722656 87 44.99999237060547 C 87 39.32870483398438 85.88993835449219 33.82864761352539 83.70065307617188 28.65262222290039 C 81.58542633056641 23.65164947509766 78.55665588378906 19.15967559814453 74.69847869873047 15.30150604248047 C 70.84030914306641 11.44333648681641 66.34834289550781 8.414566040039062 61.34736633300781 6.299331665039062 C 56.17134094238281 4.11004638671875 50.67128372192383 2.999992370605469 44.99999618530273 2.999992370605469 M 44.99999618530273 -7.62939453125e-06 C 69.85281372070312 -7.62939453125e-06 90 20.14717864990234 90 44.99999237060547 C 90 69.85279083251953 69.85281372070312 89.99997711181641 44.99999618530273 89.99997711181641 C 20.14717864990234 89.99997711181641 -7.62939453125e-06 69.85279083251953 -7.62939453125e-06 44.99999237060547 C -7.62939453125e-06 20.14717864990234 20.14717864990234 -7.62939453125e-06 44.99999618530273 -7.62939453125e-06 Z" stroke="none" fill="#6ae2f6"/>
                            </g>
                          </g>
                        </g>
                      </g>
                    </g>
                  </g>
                </g>
              </g>
            </g>
          </g>
        </g>
      </g>
      <g id="comportamiento_3_" data-name="comportamiento (3)" transform="translate(224 1528.931)">
        <g id="Group_1224363" data-name="Group 1224363" transform="translate(0.925 0.925)">
          <g id="Group_1224356" data-name="Group 1224356" transform="translate(0 28.918)">
            <path id="Path_1211155" data-name="Path 1211155" d="M238.651,340.99l1.435,5.063h18.709l-.762-2.308a4.788,4.788,0,0,0-4.689-3.84H244.15Z" transform="translate(-210.147 -327.832)" fill="#fdd0bf"/>
            <path id="Path_1211156" data-name="Path 1211156" d="M236.156,339.911l1.742,6.147h9.853a6.341,6.341,0,0,0-.993-1.3l-4.8-4.845Z" transform="translate(-207.959 -327.837)" fill="#fcc1ac"/>
            <path id="Path_1211157" data-name="Path 1211157" d="M262.716,372.735l6.337-1.641h12.4a4.788,4.788,0,0,1,4.78,4.607v1.943h-23.52v-4.909Z" transform="translate(-231.244 -355.175)" fill="#fedecf"/>
            <path id="Path_1211158" data-name="Path 1211158" d="M262.713,371.091v6.551h9.079a6.367,6.367,0,0,0-1.752-5.55l-.99-1Z" transform="translate(-231.241 -355.172)" fill="#fdd0bf"/>
            <path id="Path_1211159" data-name="Path 1211159" d="M262.716,415.74l27.581-.35a8.265,8.265,0,0,1,1.084.2,1.888,1.888,0,0,0,1.151-1.74,5.328,5.328,0,0,0-5.324-5.333H271.827l-8.1,1.1Z" transform="translate(-231.244 -387.985)" fill="#fdd0bf"/>
            <path id="Path_1211160" data-name="Path 1211160" d="M262.713,415.741h27.932a1.89,1.89,0,0,0,.734-.148,7.8,7.8,0,0,0-7.242-4.924h-11.4a.867.867,0,0,1-.861-.924q.014-.255.008-.514a6.468,6.468,0,0,0-.057-.71h-7.913Z" transform="translate(-231.241 -387.986)" fill="#fcc1ac"/>
            <path id="Path_1211161" data-name="Path 1211161" d="M7.512,244.031a.119.119,0,0,1,.15-.115,11.51,11.51,0,0,0,7.868-.8c5.319-2.554,11.377-.282,14.07,2.439l14.946,15.1a3.834,3.834,0,0,1,.114,5.316,3.76,3.76,0,0,1-2.736,1.18h0l1.961.784,3-.784H60.4a5.328,5.328,0,0,1,5.292,4.755c.02.19-.311.309-.311.5,0,1.043-.841,1.184-1.881,1.184.406,0-23.633.048-24.3.048a5.112,5.112,0,0,1-2.82-.849L16.968,259.736c-2.059-1.362-6.265-1.874-8.8-1.9a.122.122,0,0,1-.122-.123L7.5,255.987Z" transform="translate(-7.502 -242.002)" fill="#fedecf"/>
            <path id="Path_1211162" data-name="Path 1211162" d="M7.5,355.2l.01,2.576a.121.121,0,0,0,.121.122c2.532.023,7.045.76,9.1,2.121l19.229,12.718a5.106,5.106,0,0,0,2.82.848H63.846a1.886,1.886,0,0,0,1.874-1.888,5.6,5.6,0,0,0-.031-.578H40.125a6.172,6.172,0,0,1-3.616-1.17l-16.45-11.89A21.6,21.6,0,0,0,7.5,355.2Z" transform="translate(-7.502 -341.214)" fill="#fdd0bf"/>
            <path id="Path_1211163" data-name="Path 1211163" d="M183.006,366.826a6.216,6.216,0,0,1-9.158.848s-.011-.01-.028-.026l-.006,0-10.651-9.806a1.234,1.234,0,0,1,1.673-1.814l9.208,8.478c.059.056.119.109.175.16s.13.12.191.176.1.092.148.137l.928.855.016.015.01.01,0,0s0,0,0,0l0,0a3.76,3.76,0,0,0,2.521.964Z" transform="translate(-143.618 -341.677)" fill="#fdd0bf"/>
            <path id="Path_1211164" data-name="Path 1211164" d="M266.051,437.981l.01.01h0Z" transform="translate(-234.168 -413.814)" fill="#fcc1ac"/>
          </g>
          <g id="Group_1224358" data-name="Group 1224358" transform="translate(31.62 16.587)">
            <g id="Group_1224357" data-name="Group 1224357">
              <path id="Path_1211165" data-name="Path 1211165" d="M283.2,151.894c0,5.516-3.568,9.347-9.085,9.347a12.353,12.353,0,0,1-8.052-3.046A9.989,9.989,0,0,1,279.9,144.012a16.252,16.252,0,0,1,2.206,2.9A8.464,8.464,0,0,1,283.2,151.894Z" transform="translate(-263.912 -142.01)" fill="#dcbdf9"/>
              <path id="Path_1211166" data-name="Path 1211166" d="M298.155,166.229a9.988,9.988,0,0,1-17.971,6,9.989,9.989,0,0,0,13.981-13.991,9.976,9.976,0,0,1,3.989,7.987Z" transform="translate(-278.177 -156.24)" fill="#d0aff2"/>
            </g>
          </g>
          <g id="Group_1224360" data-name="Group 1224360" transform="translate(22.563 4.733)">
            <g id="Group_1224359" data-name="Group 1224359">
              <path id="Path_1211167" data-name="Path 1211167" d="M209.375,51.36a10.034,10.034,0,0,0-2.913-3.474h0A9.989,9.989,0,0,0,192.628,62.07a12.352,12.352,0,0,0,8.052,3.046c5.516,0,9.085-3.83,9.085-9.347C209.765,54.084,209.265,51.4,209.375,51.36Z" transform="translate(-190.474 -45.885)" fill="#bbec6c"/>
              <path id="Path_1211168" data-name="Path 1211168" d="M222.458,90.483A9.99,9.99,0,0,1,206.746,100.8a9.989,9.989,0,0,0,16.895-10.518A4.887,4.887,0,0,1,222.458,90.483Z" transform="translate(-204.739 -84.811)" fill="#a0e254"/>
            </g>
          </g>
          <g id="Group_1224362" data-name="Group 1224362" transform="translate(39.746)">
            <g id="Group_1224361" data-name="Group 1224361">
              <path id="Path_1211169" data-name="Path 1211169" d="M349.106,17.386c0,5.516-3.568,9.347-9.085,9.347a12.352,12.352,0,0,1-8.052-3.046A9.989,9.989,0,0,1,345.8,9.5a16.253,16.253,0,0,1,2.206,2.9,8.463,8.463,0,0,1,1.1,4.983Z" transform="translate(-329.815 -7.502)" fill="#fe819c"/>
              <path id="Path_1211170" data-name="Path 1211170" d="M364.058,31.72a9.988,9.988,0,0,1-17.971,6,9.989,9.989,0,0,0,13.981-13.991,9.976,9.976,0,0,1,3.989,7.987Z" transform="translate(-344.08 -21.731)" fill="#fc7085"/>
            </g>
          </g>
        </g>
        <g id="Group_1224364" data-name="Group 1224364" transform="translate(0 0)">
          <path id="Path_1211171" data-name="Path 1211171" d="M366.261,189.4v-2.664a.925.925,0,1,0-1.85,0V189.4a.925.925,0,1,0,1.85,0Z" transform="translate(-319.473 -162.896)"/>
          <path id="Path_1211172" data-name="Path 1211172" d="M316.092,242.113a.925.925,0,1,0,1.308,1.308,2.84,2.84,0,0,1,4.017,0,.925.925,0,1,0,1.308-1.308,4.69,4.69,0,0,0-6.632,0Z" transform="translate(-276.875 -211.052)"/>
          <path id="Path_1211173" data-name="Path 1211173" d="M192.086,26.411c-.036.362-.055.726-.055,1.09a10.882,10.882,0,0,0,.651,3.72.925.925,0,0,0,1.739-.631,9.036,9.036,0,0,1-.541-3.089,9.183,9.183,0,0,1,.05-.941,10.845,10.845,0,0,0,4.759-1.123V26.5a.925.925,0,0,0,1.85,0V24.285a10.921,10.921,0,0,0,3.615-4.935,10.865,10.865,0,0,0,5.81,2.422,9.063,9.063,0,0,1-12.771,12.735.925.925,0,0,0-1.174,1.429,10.912,10.912,0,0,0,16.207-14.17,10.929,10.929,0,0,0,9.758-10.852c0-.33-.017-.675-.049-1.025a.925.925,0,1,0-1.842.172c.027.294.041.581.041.853a9.065,9.065,0,1,1-1.356-4.768.925.925,0,0,0,1.572-.975,10.913,10.913,0,0,0-19.545,2.036,10.806,10.806,0,0,0-6.918-2.474,10.914,10.914,0,0,0-1.8,21.677Zm1.8-19.828a8.983,8.983,0,0,1,6.4,2.649,10.907,10.907,0,0,0,2.388,8.646,9.065,9.065,0,1,1-8.787-11.3Z" transform="translate(-160.411 0)"/>
          <path id="Path_1211174" data-name="Path 1211174" d="M291.908,94.188a.925.925,0,0,0,.925-.925V90.6a.925.925,0,0,0-1.85,0v2.664A.925.925,0,0,0,291.908,94.188Z" transform="translate(-255.1 -78.616)"/>
          <path id="Path_1211175" data-name="Path 1211175" d="M237.889,94.188a.925.925,0,0,0,.925-.925V90.6a.925.925,0,1,0-1.85,0v2.664A.925.925,0,0,0,237.889,94.188Z" transform="translate(-207.742 -78.616)"/>
          <path id="Path_1211176" data-name="Path 1211176" d="M242.647,147.054a.925.925,0,0,0,0,1.308,4.7,4.7,0,0,0,6.634,0,.925.925,0,0,0-1.308-1.308,2.842,2.842,0,0,1-4.019,0A.925.925,0,0,0,242.647,147.054Z" transform="translate(-212.487 -128.682)"/>
          <path id="Path_1211177" data-name="Path 1211177" d="M425.931,53.193a.925.925,0,0,0-1.308,0l-1.6,1.6a.925.925,0,0,0,0,1.308l1.6,1.6a.925.925,0,1,0,1.308-1.308l-.944-.944.944-.944A.925.925,0,0,0,425.931,53.193Z" transform="translate(-370.622 -46.396)"/>
          <path id="Path_1211178" data-name="Path 1211178" d="M371.185,57.7a.925.925,0,0,0,1.308,0l1.6-1.6a.925.925,0,0,0,0-1.308l-1.6-1.6a.925.925,0,1,0-1.308,1.308l.944.944-.944.944A.925.925,0,0,0,371.185,57.7Z" transform="translate(-325.174 -46.396)"/>
          <path id="Path_1211179" data-name="Path 1211179" d="M383.3,111.073a2.84,2.84,0,0,1,4.017,0,.925.925,0,1,0,1.308-1.308,4.69,4.69,0,0,0-6.633,0,.925.925,0,0,0,1.308,1.308Z" transform="translate(-334.651 -95.025)"/>
          <path id="Path_1211180" data-name="Path 1211180" d="M176.9,259.086h-.149a5.687,5.687,0,0,0-5.6-4.615h-1.617a5.726,5.726,0,0,0-5.393-3.846H151.873l-8.156-8.245a13.559,13.559,0,0,0-5.636-3.219.925.925,0,0,0-.528,1.773,11.664,11.664,0,0,1,4.848,2.747l14.992,15.156a2.87,2.87,0,0,1,0,4.017,2.831,2.831,0,0,1-1.913.848,3,3,0,0,1-2.036-.752L141.9,252.308a.925.925,0,1,0-1.253,1.361L152.2,264.31a4.676,4.676,0,0,0,3.178,1.248c.4-.02,18.105,0,18.463-.007a4.407,4.407,0,0,1,4.4,4.408.962.962,0,0,1-.958.963h-5.483a.925.925,0,1,0,0,1.85h5.483a2.814,2.814,0,0,0,2.808-2.813,6.251,6.251,0,0,0-.265-1.8h.524a2.814,2.814,0,0,0,2.808-2.813A6.259,6.259,0,0,0,176.9,259.086Zm-2.051,0H159.725a4.657,4.657,0,0,0-1.016-1.551l-1.2-1.215h13.648A3.844,3.844,0,0,1,174.854,259.086Zm-10.708-6.611a3.868,3.868,0,0,1,3.375,2H155.677l-1.975-2Zm16.2,13.833H178.9a6.236,6.236,0,0,0-5.067-2.606H159.1a4.7,4.7,0,0,0,.956-2.765H176.9a4.407,4.407,0,0,1,4.4,4.408A.962.962,0,0,1,180.341,266.307Z" transform="translate(-120.011 -209.634)"/>
          <path id="Path_1211181" data-name="Path 1211181" d="M47.811,385.475H32.574a4.169,4.169,0,0,1-2.308-.695L11.05,372.063c-2.345-1.552-7.192-2.275-9.729-2.275a.925.925,0,0,0,0,1.85c2.344,0,6.794.7,8.708,1.968l19.216,12.718a6.015,6.015,0,0,0,3.329,1H47.811a.925.925,0,1,0,0-1.85Z" transform="translate(-0.347 -324.187)"/>
          <path id="Path_1211182" data-name="Path 1211182" d="M.684,238.253a12.562,12.562,0,0,0,8.587-.755,10.945,10.945,0,0,1,4.256-1.066.925.925,0,1,0-.073-1.848,12.754,12.754,0,0,0-4.966,1.239,10.743,10.743,0,0,1-7.321.644.925.925,0,1,0-.482,1.786Z" transform="translate(0 -205.655)"/>
        </g>
      </g>
    </g>
  </g>
</svg>
