<svg xmlns="http://www.w3.org/2000/svg" xmlns:xlink="http://www.w3.org/1999/xlink" width="103" height="103" viewBox="0 0 103 103">
  <defs>
    <filter id="Path_904820" x="0" y="0" width="103" height="103" filterUnits="userSpaceOnUse">
      <feOffset dy="3" input="SourceAlpha"/>
      <feGaussianBlur stdDeviation="3" result="blur"/>
      <feFlood flood-opacity="0.161"/>
      <feComposite operator="in" in2="blur"/>
      <feComposite in="SourceGraphic"/>
    </filter>
  </defs>
  <g id="Group_1224822" data-name="Group 1224822" transform="translate(-172 -1019)">
    <g id="Group_1224508" data-name="Group 1224508">
      <g id="Group_1206497" data-name="Group 1206497" transform="translate(11 -4873)">
        <g id="Group_1203801" data-name="Group 1203801" transform="translate(170 5898)">
          <g id="Group_1203172" data-name="Group 1203172" transform="translate(0 0)">
            <g id="Group_1202793" data-name="Group 1202793">
              <g id="Group_1178315" data-name="Group 1178315">
                <g id="Group_1173585" data-name="Group 1173585">
                  <g id="Group_1173428" data-name="Group 1173428">
                    <g id="Group_1171958" data-name="Group 1171958">
                      <g id="Group_1167341" data-name="Group 1167341">
                        <g id="Group_1166792" data-name="Group 1166792">
                          <g transform="matrix(1, 0, 0, 1, -9, -6)" filter="url(#Path_904820)">
                            <g id="Path_904820-2" data-name="Path 904820" transform="translate(9 6)" fill="#effbfe">
                              <path d="M 42.49999618530273 83.49997711181641 C 36.96437454223633 83.49997711181641 31.59512519836426 82.41616058349609 26.54140853881836 80.27861785888672 C 21.65933799743652 78.21367645263672 17.27447891235352 75.25721740722656 13.50861930847168 71.49135589599609 C 9.742773056030273 67.72550964355469 6.786302089691162 63.34065246582031 4.721360683441162 58.45858001708984 C 2.583819627761841 53.40486145019531 1.499996185302734 48.03561401367188 1.499996185302734 42.49999237060547 C 1.499996185302734 36.96437072753906 2.583819627761841 31.59512138366699 4.721360683441162 26.54140472412109 C 6.786302089691162 21.65933418273926 9.742773056030273 17.27447509765625 13.50861930847168 13.50861549377441 C 17.27447891235352 9.742769241333008 21.65933799743652 6.786310195922852 26.54140853881836 4.721368789672852 C 31.59512519836426 2.58382773399353 36.96437454223633 1.500004172325134 42.49999618530273 1.500004172325134 C 48.03561782836914 1.500004172325134 53.40486526489258 2.58382773399353 58.45858383178711 4.721368789672852 C 63.34065628051758 6.786310195922852 67.72551727294922 9.742769241333008 71.49137115478516 13.50861549377441 C 75.25721740722656 17.27447509765625 78.21369171142578 21.65933418273926 80.27863311767578 26.54140472412109 C 82.41617584228516 31.59512138366699 83.5 36.96437072753906 83.5 42.49999237060547 C 83.5 48.03561401367188 82.41617584228516 53.40486145019531 80.27863311767578 58.45858001708984 C 78.21369171142578 63.34065246582031 75.25721740722656 67.72550964355469 71.49137115478516 71.49135589599609 C 67.72551727294922 75.25721740722656 63.34065628051758 78.21367645263672 58.45858383178711 80.27861785888672 C 53.40486526489258 82.41616058349609 48.03561782836914 83.49997711181641 42.49999618530273 83.49997711181641 Z" stroke="none"/>
                              <path d="M 42.49999618530273 2.999992370605469 C 37.16621017456055 2.999992370605469 31.99355697631836 4.043952941894531 27.1257438659668 6.102874755859375 C 22.42246246337891 8.092178344726562 18.19786071777344 10.94069671630859 14.56927490234375 14.56927490234375 C 10.94070434570312 18.19786071777344 8.092185974121094 22.42245864868164 6.102874755859375 27.12572479248047 C 4.043952941894531 31.99355316162109 2.999992370605469 37.16620635986328 2.999992370605469 42.49999237060547 C 2.999992370605469 47.83377838134766 4.043952941894531 53.00641632080078 6.102874755859375 57.87424468994141 C 8.092185974121094 62.5775260925293 10.94070434570312 66.8021240234375 14.56927490234375 70.43070220947266 C 18.19786071777344 74.05927276611328 22.42246246337891 76.90779113769531 27.1257438659668 78.89710998535156 C 31.99355697631836 80.95601654052734 37.16621017456055 81.99997711181641 42.49999618530273 81.99997711181641 C 47.83378219604492 81.99997711181641 53.00643539428711 80.95601654052734 57.87425231933594 78.89710998535156 C 62.57752990722656 76.90779113769531 66.80213165283203 74.05927276611328 70.43071746826172 70.43070220947266 C 74.05928802490234 66.8021240234375 76.90780639648438 62.5775260925293 78.89711761474609 57.87424468994141 C 80.95603942871094 53.00641632080078 82 47.83377838134766 82 42.49999237060547 C 82 37.16620635986328 80.95603942871094 31.99355316162109 78.89711761474609 27.12572479248047 C 76.90780639648438 22.42245864868164 74.05928802490234 18.19786071777344 70.43071746826172 14.56927490234375 C 66.80213165283203 10.94069671630859 62.57752990722656 8.092178344726562 57.87425231933594 6.102874755859375 C 53.00643539428711 4.043952941894531 47.83378219604492 2.999992370605469 42.49999618530273 2.999992370605469 M 42.49999618530273 -7.62939453125e-06 C 65.97209167480469 -7.62939453125e-06 85 19.02788543701172 85 42.49999237060547 C 85 65.97208404541016 65.97209167480469 84.99997711181641 42.49999618530273 84.99997711181641 C 19.02790069580078 84.99997711181641 -7.62939453125e-06 65.97208404541016 -7.62939453125e-06 42.49999237060547 C -7.62939453125e-06 19.02788543701172 19.02790069580078 -7.62939453125e-06 42.49999618530273 -7.62939453125e-06 Z" stroke="none" fill="#6ae2f6"/>
                            </g>
                          </g>
                        </g>
                      </g>
                    </g>
                  </g>
                </g>
              </g>
            </g>
          </g>
        </g>
      </g>
      <g id="ensenanza-creativa" transform="translate(113.32 941.344)">
        <g id="Group_1224470" data-name="Group 1224470" transform="translate(82.881 102.113)">
          <g id="Group_1224469" data-name="Group 1224469" transform="translate(0 0)">
            <g id="Group_1224468" data-name="Group 1224468">
              <g id="XMLID_1_">
                <path id="Path_1211592" data-name="Path 1211592" d="M798.648,467.57l1.948,4.753h-3.9Z" transform="translate(-771.356 -460.752)" fill="#ffc4b0"/>
                <path id="Path_1211593" data-name="Path 1211593" d="M796.7,597.1h3.9v7.722h-3.9Z" transform="translate(-771.356 -585.529)" fill="#f06b77"/>
                <path id="Path_1211594" data-name="Path 1211594" d="M593.162,289.934a9.42,9.42,0,1,1,16.345,7.541,5.4,5.4,0,0,0-1.242,2.36,1.6,1.6,0,0,1-1.56,1.218h-2.256V293.33l-1.948-4.753-1.948,4.753v7.722H598.3a1.6,1.6,0,0,1-1.56-1.218,5.4,5.4,0,0,0-1.243-2.36,9.385,9.385,0,0,1-2.412-6.295A9.49,9.49,0,0,1,593.162,289.934Z" transform="translate(-575.208 -281.759)" fill="#ffe07d"/>
                <path id="Path_1211595" data-name="Path 1211595" d="M735.824,807.56h2.467v2.521a1.252,1.252,0,0,1-1.252,1.252h-6.327a1.252,1.252,0,0,1-1.252-1.252V807.56h6.364Z" transform="translate(-706.584 -788.267)" fill="#508bb3"/>
                <path id="Path_1211596" data-name="Path 1211596" d="M782.917,910.424v.675a2.6,2.6,0,0,1-2.6,2.6h-.092a2.6,2.6,0,0,1-2.6-2.6v-.719h5.3Z" transform="translate(-752.977 -887.314)" fill="#417499"/>
                <path id="Path_1211597" data-name="Path 1211597" d="M877.3,625.86V660.9H850a4.339,4.339,0,0,1,4.339-4.339h18.508v-30.7Z" transform="translate(-822.701 -613.234)" fill="#f06b77"/>
                <path id="Path_1211598" data-name="Path 1211598" d="M128.96,656.557A4.339,4.339,0,0,1,133.3,660.9H106V625.86h4.452v30.7Z" transform="translate(-106 -613.234)" fill="#f06b77"/>
                <g id="Group_1224467" data-name="Group 1224467" transform="translate(4.452 8.174)">
                  <path id="Path_1211599" data-name="Path 1211599" d="M850,544.019V522.743h.039a2.6,2.6,0,0,0,2.6-2.6v-.719h.515a1.252,1.252,0,0,0,1.252-1.252v-2.521H854.2a1.6,1.6,0,0,0,1.56-1.218,5.406,5.406,0,0,1,1.242-2.36,9.43,9.43,0,0,0,2.331-7.541h13.516v35.149H854.339A4.339,4.339,0,0,0,850,544.019Z" transform="translate(-827.153 -504.53)" fill="#e1efff"/>
                  <path id="Path_1211600" data-name="Path 1211600" d="M250.187,522.743v21.275a4.339,4.339,0,0,0-4.339-4.339H227.34V504.53h13.5a9.494,9.494,0,0,0-.082,1.246,9.384,9.384,0,0,0,2.412,6.295,5.4,5.4,0,0,1,1.243,2.36,1.6,1.6,0,0,0,1.56,1.218h-.211v2.521a1.252,1.252,0,0,0,1.252,1.252h.515v.719a2.6,2.6,0,0,0,2.6,2.6Z" transform="translate(-227.34 -504.53)" fill="#e1efff"/>
                </g>
              </g>
            </g>
          </g>
        </g>
        <g id="Group_1224507" data-name="Group 1224507" transform="translate(82 95.27)">
          <g id="Group_1224490" data-name="Group 1224490" transform="translate(0 14.136)">
            <g id="Group_1224489" data-name="Group 1224489">
              <g id="Group_1224473" data-name="Group 1224473" transform="translate(4.452)">
                <g id="Group_1224471" data-name="Group 1224471" transform="translate(22.847 18.213)">
                  <path id="Path_1211601" data-name="Path 1211601" d="M826.881,999.937a.881.881,0,0,1-.881-.881V977.781a.881.881,0,0,1,1.761,0v21.276A.881.881,0,0,1,826.881,999.937Z" transform="translate(-826 -976.9)" fill="#212121"/>
                </g>
                <g id="Group_1224472" data-name="Group 1224472">
                  <path id="Path_1211602" data-name="Path 1211602" d="M227.068,521.78a.881.881,0,0,1-.881-.881,3.463,3.463,0,0,0-3.459-3.459H204.221a.881.881,0,0,1-.881-.881V481.411a.881.881,0,0,1,.881-.881h13.5a.881.881,0,0,1,0,1.761H205.1v33.388h17.627A5.219,5.219,0,0,1,227.068,518a5.219,5.219,0,0,1,4.339-2.321h17.627V482.291H236.4a.881.881,0,0,1,0-1.761h13.517a.881.881,0,0,1,.881.881V516.56a.881.881,0,0,1-.881.881H231.407a3.463,3.463,0,0,0-3.459,3.459A.881.881,0,0,1,227.068,521.78Z" transform="translate(-203.34 -480.53)" fill="#212121"/>
                </g>
              </g>
              <g id="Group_1224474" data-name="Group 1224474" transform="translate(0 4.452)">
                <path id="Path_1211603" data-name="Path 1211603" d="M137.479,638.658h-54.6a.881.881,0,0,1-.881-.881V602.741a.881.881,0,0,1,.881-.881h4.452a.881.881,0,1,1,0,1.761H83.761V636.9H136.6V603.621h-3.572a.881.881,0,1,1,0-1.761h4.452a.881.881,0,0,1,.881.881v35.037A.881.881,0,0,1,137.479,638.658Z" transform="translate(-82 -601.86)" fill="#212121"/>
              </g>
              <g id="Group_1224481" data-name="Group 1224481" transform="translate(9.937 5.97)">
                <g id="Group_1224475" data-name="Group 1224475">
                  <path id="Path_1211604" data-name="Path 1211604" d="M358.209,644.981h-4.519a.881.881,0,1,1,0-1.761h4.518a.881.881,0,0,1,0,1.761Z" transform="translate(-352.81 -643.22)" fill="#212121"/>
                </g>
                <g id="Group_1224476" data-name="Group 1224476" transform="translate(0 4.642)">
                  <path id="Path_1211605" data-name="Path 1211605" d="M360.492,771.5h-6.8a.881.881,0,1,1,0-1.761h6.8a.881.881,0,1,1,0,1.761Z" transform="translate(-352.81 -769.74)" fill="#212121"/>
                </g>
                <g id="Group_1224477" data-name="Group 1224477" transform="translate(0 9.284)">
                  <path id="Path_1211606" data-name="Path 1211606" d="M362.054,898h-8.364a.881.881,0,1,1,0-1.761h8.363a.881.881,0,0,1,0,1.761Z" transform="translate(-352.81 -896.24)" fill="#212121"/>
                </g>
                <g id="Group_1224478" data-name="Group 1224478" transform="translate(0 13.926)">
                  <path id="Path_1211607" data-name="Path 1211607" d="M365.568,1024.511H353.691a.881.881,0,0,1,0-1.761h11.878a.881.881,0,1,1,0,1.761Z" transform="translate(-352.81 -1022.75)" fill="#212121"/>
                </g>
                <g id="Group_1224479" data-name="Group 1224479" transform="translate(0 18.568)">
                  <path id="Path_1211608" data-name="Path 1211608" d="M365.568,1151.021H353.691a.881.881,0,0,1,0-1.761h11.878a.881.881,0,1,1,0,1.761Z" transform="translate(-352.81 -1149.26)" fill="#212121"/>
                </g>
                <g id="Group_1224480" data-name="Group 1224480" transform="translate(0 23.21)">
                  <path id="Path_1211609" data-name="Path 1211609" d="M365.568,1277.521H353.691a.881.881,0,0,1,0-1.761h11.878a.881.881,0,0,1,0,1.761Z" transform="translate(-352.81 -1275.76)" fill="#212121"/>
                </g>
              </g>
              <g id="Group_1224488" data-name="Group 1224488" transform="translate(32.784 5.97)">
                <g id="Group_1224482" data-name="Group 1224482" transform="translate(7.345)">
                  <path id="Path_1211610" data-name="Path 1211610" d="M1181.054,644.981h-4.533a.881.881,0,1,1,0-1.761h4.533a.881.881,0,1,1,0,1.761Z" transform="translate(-1175.64 -643.22)" fill="#212121"/>
                </g>
                <g id="Group_1224483" data-name="Group 1224483" transform="translate(5.076 4.642)">
                  <path id="Path_1211611" data-name="Path 1211611" d="M1121.492,771.5h-6.8a.881.881,0,0,1,0-1.761h6.8a.881.881,0,1,1,0,1.761Z" transform="translate(-1113.81 -769.74)" fill="#212121"/>
                </g>
                <g id="Group_1224484" data-name="Group 1224484" transform="translate(3.514 9.284)">
                  <path id="Path_1211612" data-name="Path 1211612" d="M1080.494,898h-8.364a.881.881,0,0,1,0-1.761h8.364a.881.881,0,0,1,0,1.761Z" transform="translate(-1071.25 -896.24)" fill="#212121"/>
                </g>
                <g id="Group_1224485" data-name="Group 1224485" transform="translate(0 13.926)">
                  <path id="Path_1211613" data-name="Path 1211613" d="M988.229,1024.511H976.351a.881.881,0,0,1,0-1.761h11.878a.881.881,0,0,1,0,1.761Z" transform="translate(-975.47 -1022.75)" fill="#212121"/>
                </g>
                <g id="Group_1224486" data-name="Group 1224486" transform="translate(0 18.568)">
                  <path id="Path_1211614" data-name="Path 1211614" d="M988.229,1151.021H976.351a.881.881,0,0,1,0-1.761h11.878a.881.881,0,0,1,0,1.761Z" transform="translate(-975.47 -1149.26)" fill="#212121"/>
                </g>
                <g id="Group_1224487" data-name="Group 1224487" transform="translate(0 23.21)">
                  <path id="Path_1211615" data-name="Path 1211615" d="M988.229,1277.521H976.351a.881.881,0,0,1,0-1.761h11.878a.881.881,0,0,1,0,1.761Z" transform="translate(-975.47 -1275.76)" fill="#212121"/>
                </g>
              </g>
            </g>
          </g>
          <g id="Group_1224506" data-name="Group 1224506" transform="translate(13.674 0)">
            <g id="Group_1224505" data-name="Group 1224505">
              <g id="Group_1224498" data-name="Group 1224498" transform="translate(4.198 5.962)">
                <g id="Group_1224491" data-name="Group 1224491" transform="translate(5.004 19.293)">
                  <path id="Path_1211616" data-name="Path 1211616" d="M713.919,789.094h-6.327a2.135,2.135,0,0,1-2.133-2.133v-2.521a.881.881,0,0,1,.881-.881h8.831a.881.881,0,0,1,.881.881v2.521A2.135,2.135,0,0,1,713.919,789.094Zm-6.7-3.773v1.64a.372.372,0,0,0,.371.371h6.327a.372.372,0,0,0,.371-.371v-1.64Z" transform="translate(-705.46 -783.56)" fill="#212121"/>
                </g>
                <g id="Group_1224492" data-name="Group 1224492" transform="translate(6.771 23.11)">
                  <path id="Path_1211617" data-name="Path 1211617" d="M757.2,892.609H757.1a3.487,3.487,0,0,1-3.483-3.483v-.675a.881.881,0,1,1,1.761,0v.675a1.724,1.724,0,0,0,1.722,1.722h.092a1.724,1.724,0,0,0,1.722-1.722v-.675a.881.881,0,1,1,1.761,0v.675A3.487,3.487,0,0,1,757.2,892.609Z" transform="translate(-753.62 -887.57)" fill="#212121"/>
                </g>
                <g id="Group_1224493" data-name="Group 1224493">
                  <path id="Path_1211618" data-name="Path 1211618" d="M583.585,278.8h-8.409a2.469,2.469,0,0,1-2.417-1.9,4.534,4.534,0,0,0-1.041-1.975,10.3,10.3,0,0,1,7.5-17.183h.16a10.3,10.3,0,0,1,7.663,17.184A4.531,4.531,0,0,0,586,276.909,2.469,2.469,0,0,1,583.585,278.8Zm-4.206-19.293h-.133a8.539,8.539,0,0,0-6.219,14.244,6.3,6.3,0,0,1,1.444,2.745.723.723,0,0,0,.7.541h8.409a.724.724,0,0,0,.7-.541,6.305,6.305,0,0,1,1.444-2.745,8.539,8.539,0,0,0-6.354-14.245Z" transform="translate(-569.08 -257.75)" fill="#212121"/>
                </g>
                <g id="Group_1224497" data-name="Group 1224497" transform="translate(7.471 6.818)">
                  <g id="Group_1224496" data-name="Group 1224496">
                    <g id="Group_1224494" data-name="Group 1224494" transform="translate(0 4.753)">
                      <path id="Path_1211619" data-name="Path 1211619" d="M777.477,582.584a.881.881,0,0,1-.881-.881v-6.842h-2.135V581.7a.881.881,0,0,1-1.761,0v-7.723a.881.881,0,0,1,.881-.881h3.9a.881.881,0,0,1,.881.881V581.7A.88.88,0,0,1,777.477,582.584Z" transform="translate(-772.7 -573.1)" fill="#212121"/>
                    </g>
                    <g id="Group_1224495" data-name="Group 1224495">
                      <path id="Path_1211620" data-name="Path 1211620" d="M777.476,450.084h-3.9a.881.881,0,0,1-.815-1.215l1.948-4.753a.881.881,0,0,1,1.63,0l1.948,4.753a.881.881,0,0,1-.815,1.215Zm-2.584-1.761h1.271l-.635-1.551Z" transform="translate(-772.699 -443.57)" fill="#212121"/>
                    </g>
                  </g>
                </g>
              </g>
              <g id="Group_1224504" data-name="Group 1224504">
                <g id="Group_1224499" data-name="Group 1224499" transform="translate(13.625)">
                  <path id="Path_1211621" data-name="Path 1211621" d="M826.881,100.044a.881.881,0,0,1-.881-.881V96.151a.881.881,0,0,1,1.761,0v3.012A.881.881,0,0,1,826.881,100.044Z" transform="translate(-826 -95.27)" fill="#212121"/>
                </g>
                <g id="Group_1224500" data-name="Group 1224500" transform="translate(5.759 2.108)">
                  <path id="Path_1211622" data-name="Path 1211622" d="M614,157.09a.881.881,0,0,1-.764-.44l-1.506-2.609a.88.88,0,1,1,1.525-.881l1.506,2.609A.881.881,0,0,1,614,157.09Z" transform="translate(-611.608 -152.72)" fill="#212121"/>
                </g>
                <g id="Group_1224501" data-name="Group 1224501" transform="translate(0 7.866)">
                  <path id="Path_1211623" data-name="Path 1211623" d="M458.157,312.926a.878.878,0,0,1-.44-.118l-2.609-1.506a.88.88,0,1,1,.881-1.525l2.609,1.506a.881.881,0,0,1-.441,1.643Z" transform="translate(-454.668 -309.658)" fill="#212121"/>
                </g>
                <g id="Group_1224502" data-name="Group 1224502" transform="translate(24.641 7.867)">
                  <path id="Path_1211624" data-name="Path 1211624" d="M1127.1,312.928a.881.881,0,0,1-.441-1.643l2.609-1.506a.88.88,0,1,1,.881,1.525l-2.609,1.506A.879.879,0,0,1,1127.1,312.928Z" transform="translate(-1126.221 -309.66)" fill="#212121"/>
                </g>
                <g id="Group_1224503" data-name="Group 1224503" transform="translate(19.985 2.108)">
                  <path id="Path_1211625" data-name="Path 1211625" d="M1000.208,157.088a.881.881,0,0,1-.762-1.321l1.506-2.609a.88.88,0,1,1,1.525.881l-1.506,2.609A.879.879,0,0,1,1000.208,157.088Z" transform="translate(-999.328 -152.718)" fill="#212121"/>
                </g>
              </g>
            </g>
          </g>
        </g>
      </g>
    </g>
  </g>
</svg>
