<svg xmlns="http://www.w3.org/2000/svg" xmlns:xlink="http://www.w3.org/1999/xlink" width="103" height="103" viewBox="0 0 103 103">
  <defs>
    <filter id="Path_904820" x="0" y="0" width="103" height="103" filterUnits="userSpaceOnUse">
      <feOffset dy="3" input="SourceAlpha"/>
      <feGaussianBlur stdDeviation="3" result="blur"/>
      <feFlood flood-opacity="0.161"/>
      <feComposite operator="in" in2="blur"/>
      <feComposite in="SourceGraphic"/>
    </filter>
  </defs>
  <g id="Group_1224839" data-name="Group 1224839" transform="translate(-171 -4286)">
    <g id="Group_1224777" data-name="Group 1224777">
      <g id="Group_1224256" data-name="Group 1224256" transform="translate(10 -1606)">
        <g id="Group_1203801" data-name="Group 1203801" transform="translate(170 5898)">
          <g id="Group_1203172" data-name="Group 1203172" transform="translate(0 0)">
            <g id="Group_1202793" data-name="Group 1202793">
              <g id="Group_1178315" data-name="Group 1178315">
                <g id="Group_1173585" data-name="Group 1173585">
                  <g id="Group_1173428" data-name="Group 1173428">
                    <g id="Group_1171958" data-name="Group 1171958">
                      <g id="Group_1167341" data-name="Group 1167341">
                        <g id="Group_1166792" data-name="Group 1166792">
                          <g transform="matrix(1, 0, 0, 1, -9, -6)" filter="url(#Path_904820)">
                            <g id="Path_904820-2" data-name="Path 904820" transform="translate(9 6)" fill="#effbfe">
                              <path d="M 42.49999618530273 83.49997711181641 C 36.96437454223633 83.49997711181641 31.59512519836426 82.41616058349609 26.54140853881836 80.27861785888672 C 21.65933799743652 78.21367645263672 17.27447891235352 75.25721740722656 13.50861930847168 71.49135589599609 C 9.742773056030273 67.72550964355469 6.786302089691162 63.34065246582031 4.721360683441162 58.45858001708984 C 2.583819627761841 53.40486145019531 1.499996185302734 48.03561401367188 1.499996185302734 42.49999237060547 C 1.499996185302734 36.96437072753906 2.583819627761841 31.59512138366699 4.721360683441162 26.54140472412109 C 6.786302089691162 21.65933418273926 9.742773056030273 17.27447509765625 13.50861930847168 13.50861549377441 C 17.27447891235352 9.742769241333008 21.65933799743652 6.786310195922852 26.54140853881836 4.721368789672852 C 31.59512519836426 2.58382773399353 36.96437454223633 1.500004172325134 42.49999618530273 1.500004172325134 C 48.03561782836914 1.500004172325134 53.40486526489258 2.58382773399353 58.45858383178711 4.721368789672852 C 63.34065628051758 6.786310195922852 67.72551727294922 9.742769241333008 71.49137115478516 13.50861549377441 C 75.25721740722656 17.27447509765625 78.21369171142578 21.65933418273926 80.27863311767578 26.54140472412109 C 82.41617584228516 31.59512138366699 83.5 36.96437072753906 83.5 42.49999237060547 C 83.5 48.03561401367188 82.41617584228516 53.40486145019531 80.27863311767578 58.45858001708984 C 78.21369171142578 63.34065246582031 75.25721740722656 67.72550964355469 71.49137115478516 71.49135589599609 C 67.72551727294922 75.25721740722656 63.34065628051758 78.21367645263672 58.45858383178711 80.27861785888672 C 53.40486526489258 82.41616058349609 48.03561782836914 83.49997711181641 42.49999618530273 83.49997711181641 Z" stroke="none"/>
                              <path d="M 42.49999618530273 2.999992370605469 C 37.16621017456055 2.999992370605469 31.99355697631836 4.043952941894531 27.1257438659668 6.102874755859375 C 22.42246246337891 8.092178344726562 18.19786071777344 10.94069671630859 14.56927490234375 14.56927490234375 C 10.94070434570312 18.19786071777344 8.092185974121094 22.42245864868164 6.102874755859375 27.12572479248047 C 4.043952941894531 31.99355316162109 2.999992370605469 37.16620635986328 2.999992370605469 42.49999237060547 C 2.999992370605469 47.83377838134766 4.043952941894531 53.00641632080078 6.102874755859375 57.87424468994141 C 8.092185974121094 62.5775260925293 10.94070434570312 66.8021240234375 14.56927490234375 70.43070220947266 C 18.19786071777344 74.05927276611328 22.42246246337891 76.90779113769531 27.1257438659668 78.89710998535156 C 31.99355697631836 80.95601654052734 37.16621017456055 81.99997711181641 42.49999618530273 81.99997711181641 C 47.83378219604492 81.99997711181641 53.00643539428711 80.95601654052734 57.87425231933594 78.89710998535156 C 62.57752990722656 76.90779113769531 66.80213165283203 74.05927276611328 70.43071746826172 70.43070220947266 C 74.05928802490234 66.8021240234375 76.90780639648438 62.5775260925293 78.89711761474609 57.87424468994141 C 80.95603942871094 53.00641632080078 82 47.83377838134766 82 42.49999237060547 C 82 37.16620635986328 80.95603942871094 31.99355316162109 78.89711761474609 27.12572479248047 C 76.90780639648438 22.42245864868164 74.05928802490234 18.19786071777344 70.43071746826172 14.56927490234375 C 66.80213165283203 10.94069671630859 62.57752990722656 8.092178344726562 57.87425231933594 6.102874755859375 C 53.00643539428711 4.043952941894531 47.83378219604492 2.999992370605469 42.49999618530273 2.999992370605469 M 42.49999618530273 -7.62939453125e-06 C 65.97209167480469 -7.62939453125e-06 85 19.02788543701172 85 42.49999237060547 C 85 65.97208404541016 65.97209167480469 84.99997711181641 42.49999618530273 84.99997711181641 C 19.02790069580078 84.99997711181641 -7.62939453125e-06 65.97208404541016 -7.62939453125e-06 42.49999237060547 C -7.62939453125e-06 19.02788543701172 19.02790069580078 -7.62939453125e-06 42.49999618530273 -7.62939453125e-06 Z" stroke="none" fill="#6ae2f6"/>
                            </g>
                          </g>
                        </g>
                      </g>
                    </g>
                  </g>
                </g>
              </g>
            </g>
          </g>
        </g>
      </g>
      <g id="alrededor-del-mundo" transform="translate(196.452 4308.452)">
        <circle id="Ellipse_12709" data-name="Ellipse 12709" cx="25.285" cy="25.285" r="25.285" transform="translate(0.763 0.763)" fill="#62dbfb"/>
        <path id="Path_1212039" data-name="Path 1212039" d="M81.088,46.187a25.288,25.288,0,0,1-34.9,34.9,25.286,25.286,0,1,0,34.9-34.9Z" transform="translate(-41.488 -41.487)" fill="#01d0fb"/>
        <path id="Path_1212040" data-name="Path 1212040" d="M315.3,113.891l-1.3,2.212a7.5,7.5,0,0,0-.526,6.542l.215.55a6.3,6.3,0,0,0,4.1,3.756,2.864,2.864,0,0,1,1.289.794l1.394,1.491a2.865,2.865,0,0,0,1.572.861,2.865,2.865,0,0,1,2.343,2.734l.006.212a2.865,2.865,0,0,1-.742,2.009l-2.716,2.993a2.866,2.866,0,0,0-.484.734l-1.392,3.045a2.865,2.865,0,0,0-.045,2.278l.752,1.834a25.29,25.29,0,0,0,7.789-36.876l-7.1,1.256a7.5,7.5,0,0,0-5.155,3.577Z" transform="translate(-281.11 -97.961)" fill="#a2e62e"/>
        <path id="Path_1212041" data-name="Path 1212041" d="M379.105,109.058l-3.744.663a25.336,25.336,0,0,1-2.968,19.845,2.864,2.864,0,0,0,1.2.53,2.865,2.865,0,0,1,2.343,2.734l.006.212a2.865,2.865,0,0,1-.742,2.009l-2.716,2.993a2.866,2.866,0,0,0-.484.734l-1.392,3.045a2.865,2.865,0,0,0-.045,2.278l.752,1.834a25.29,25.29,0,0,0,7.789-36.877Z" transform="translate(-332.667 -97.961)" fill="#97d729"/>
        <path id="Path_1212042" data-name="Path 1212042" d="M7.5,32.785a25.317,25.317,0,0,0,.847,6.507L12.6,37.128a4.108,4.108,0,0,0,2.244-3.6l.008-.6A4.108,4.108,0,0,1,18.5,28.9l1.417-.158a4.108,4.108,0,0,0,3.448-2.8l1.407-4.3a4.108,4.108,0,0,1,3.9-2.83A4.108,4.108,0,0,0,32.785,14.7V7.5A25.285,25.285,0,0,0,7.5,32.785Z" transform="translate(-6.737 -6.737)" fill="#a2e62e"/>
        <path id="Path_1212043" data-name="Path 1212043" d="M183.929,290.944l2.2,1.362a2.062,2.062,0,0,1,.976,1.752v3.555a2.062,2.062,0,0,0,.5,1.342l.931,1.086a2.062,2.062,0,0,1-.639,3.183l-2.193,1.1a2.062,2.062,0,0,1-.927.22H182.4a3.648,3.648,0,0,1-3.171-1.844l-1.52-2.673a3.647,3.647,0,0,1-.46-2.156l.832-8.567a2.062,2.062,0,0,1,1.541-1.8l.761-.195a2.062,2.062,0,0,1,2.572,1.937A2.061,2.061,0,0,0,183.929,290.944Z" transform="translate(-159.199 -258.023)" fill="#a2e62e"/>
        <g id="Group_1224778" data-name="Group 1224778" transform="translate(40.026 7.523)">
          <path id="Path_1212044" data-name="Path 1212044" d="M404.689,134.034v-2.878a2.672,2.672,0,0,0-2.672-2.672h-5.961a2.672,2.672,0,0,0-2.672,2.672v2.878a1.645,1.645,0,0,0,1.645,1.645h8.017A1.645,1.645,0,0,0,404.689,134.034Z" transform="translate(-393.383 -122.934)" fill="#fea95c"/>
          <path id="Path_1212045" data-name="Path 1212045" d="M404.37,128.484h-5.961A2.672,2.672,0,0,0,396,129.992a6.569,6.569,0,0,0,10.773,0A2.673,2.673,0,0,0,404.37,128.484Z" transform="translate(-395.736 -122.934)" fill="#fe9738"/>
          <circle id="Ellipse_12710" data-name="Ellipse 12710" cx="3.289" cy="3.289" r="3.289" transform="translate(2.364)" fill="#fed2a4"/>
          <path id="Path_1212046" data-name="Path 1212046" d="M427.194,75.364a3.29,3.29,0,0,1-3.543,5.191,3.289,3.289,0,1,0,3.543-5.191Z" transform="translate(-420.571 -75.219)" fill="#ffbd86"/>
        </g>
        <g id="Group_1224779" data-name="Group 1224779" transform="translate(11.514 28.671)">
          <path id="Path_1212047" data-name="Path 1212047" d="M124.47,341.881V339a2.672,2.672,0,0,0-2.672-2.672h-5.961A2.672,2.672,0,0,0,113.164,339v2.878a1.645,1.645,0,0,0,1.645,1.645h8.017A1.644,1.644,0,0,0,124.47,341.881Z" transform="translate(-113.164 -330.781)" fill="#fe93d3"/>
          <path id="Path_1212048" data-name="Path 1212048" d="M124.151,336.332H118.19a2.672,2.672,0,0,0-2.406,1.508,6.569,6.569,0,0,0,10.773,0A2.673,2.673,0,0,0,124.151,336.332Z" transform="translate(-115.517 -330.782)" fill="#fe73c5"/>
          <circle id="Ellipse_12711" data-name="Ellipse 12711" cx="3.289" cy="3.289" r="3.289" transform="translate(2.364)" fill="#fed2a4"/>
          <path id="Path_1212049" data-name="Path 1212049" d="M146.975,283.212a3.29,3.29,0,0,1-3.543,5.191,3.289,3.289,0,1,0,3.543-5.191Z" transform="translate(-140.352 -283.067)" fill="#ffbd86"/>
        </g>
        <g id="Group_1224780" data-name="Group 1224780" transform="translate(0.763 0.763)">
          <path id="Path_1212050" data-name="Path 1212050" d="M18.806,67.6V64.721a2.672,2.672,0,0,0-2.672-2.672H10.172A2.672,2.672,0,0,0,7.5,64.721V67.6a1.645,1.645,0,0,0,1.645,1.645h8.017A1.645,1.645,0,0,0,18.806,67.6Z" transform="translate(-7.5 -56.499)" fill="#ffe177"/>
          <path id="Path_1212051" data-name="Path 1212051" d="M18.487,62.049H12.526a2.672,2.672,0,0,0-2.406,1.508,6.569,6.569,0,0,0,10.773,0,2.672,2.672,0,0,0-2.406-1.508Z" transform="translate(-9.853 -56.499)" fill="#ffd15b"/>
          <circle id="Ellipse_12712" data-name="Ellipse 12712" cx="3.289" cy="3.289" r="3.289" transform="translate(2.364)" fill="#fed2a4"/>
          <path id="Path_1212052" data-name="Path 1212052" d="M41.312,8.929a3.29,3.29,0,0,1-3.543,5.191,3.289,3.289,0,1,0,3.543-5.191Z" transform="translate(-34.689 -8.784)" fill="#ffbd86"/>
        </g>
        <g id="Group_1224781" data-name="Group 1224781" transform="translate(0)">
          <path id="Path_1212053" data-name="Path 1212053" d="M2.511,32.953l3.7-1.881A4.858,4.858,0,0,0,8.868,26.8l.008-.6a3.35,3.35,0,0,1,2.973-3.277l1.417-.158a4.882,4.882,0,0,0,4.088-3.325l1.407-4.3a3.335,3.335,0,0,1,2.475-2.227l.6.144a.756.756,0,0,0,.774-.267,4.877,4.877,0,0,0,4.205-4.824V1.539a24.372,24.372,0,0,1,8.23,1.689.763.763,0,0,0,.56-1.42A26.079,26.079,0,0,0,10.261,5.33a4.052,4.052,0,1,0-7.575.3A3.441,3.441,0,0,0,0,8.986v2.878a2.41,2.41,0,0,0,2.408,2.408h.4a26.1,26.1,0,0,0-.953,21.449.763.763,0,1,0,1.417-.568q-.435-1.085-.762-2.2Zm3.9-31.426A2.526,2.526,0,1,1,3.89,4.052,2.529,2.529,0,0,1,6.416,1.526ZM1.526,11.864V8.986A1.911,1.911,0,0,1,3.435,7.077h.288a4.042,4.042,0,0,0,5.386,0H9.4a1.911,1.911,0,0,1,1.909,1.909v2.878a.882.882,0,0,1-.881.881H2.408a.882.882,0,0,1-.881-.881Zm3.008,2.408H5.952l.067.13a.763.763,0,0,0,1.407-.13h3a2.41,2.41,0,0,0,2.408-2.408V10.8a.762.762,0,0,0,.01-1.484l-.01,0V8.986a3.43,3.43,0,0,0-1.309-2.7A24.59,24.59,0,0,1,25.285,1.54V7.965A3.348,3.348,0,0,1,21.94,11.31a4.905,4.905,0,0,0-.655.045l-.37-.089a.763.763,0,0,0-.875.429,4.86,4.86,0,0,0-2.73,2.972l-1.407,4.3A3.352,3.352,0,0,1,13.1,21.246L11.68,21.4c-.1.011-.193.026-.288.042L11,20.69a.763.763,0,0,0-1.355.7l.288.555a4.88,4.88,0,0,0-2.582,4.229l-.009.6a3.336,3.336,0,0,1-1.827,2.934L2.121,31.439A24.6,24.6,0,0,1,4.535,14.272Z" transform="translate(0)"/>
          <path id="Path_1212054" data-name="Path 1212054" d="M81.7,44.813a3.441,3.441,0,0,0-2.686-3.352,4.051,4.051,0,0,0-5.446-5.252,26.162,26.162,0,0,0-5.055-3.749.763.763,0,1,0-.755,1.327,24.632,24.632,0,0,1,4.556,3.339,4.036,4.036,0,0,0-1.083,2.754c0,.121.006.241.017.359l-2.434.431a8.253,8.253,0,0,0-5.68,3.941l-1.3,2.211a8.223,8.223,0,0,0-.58,7.207l.215.55a7.086,7.086,0,0,0,2.062,2.851l-.66.508a.763.763,0,1,0,.931,1.209l1.043-.8.032-.027a6.974,6.974,0,0,0,1.19.473,2.1,2.1,0,0,1,.514.229,2.064,2.064,0,0,1,.431.353L68.4,60.862a3.611,3.611,0,0,0,1.992,1.09,2.1,2.1,0,0,1,1.718,2.006l.006.212a2.093,2.093,0,0,1-.544,1.473L68.86,68.635a3.628,3.628,0,0,0-.615.93l-1.392,3.046A3.641,3.641,0,0,0,66.8,75.5l.492,1.2a24.516,24.516,0,0,1-32.905-9.369.763.763,0,1,0-1.323.761,26.056,26.056,0,0,0,46.407-2.409.763.763,0,0,0-1.395-.619,24.52,24.52,0,0,1-9.452,10.863l-.412-1.006a2.109,2.109,0,0,1,.032-1.672L69.633,70.2a2.108,2.108,0,0,1,.357-.54l2.716-2.993a3.613,3.613,0,0,0,.939-2.543l-.006-.212a3.626,3.626,0,0,0-2.966-3.462,2.093,2.093,0,0,1-1.154-.632l-1.394-1.491a3.635,3.635,0,0,0-1.632-1,5.578,5.578,0,0,1-3.6-3.3l-.215-.55a6.705,6.705,0,0,1,.473-5.877l1.3-2.211c.02-.034.042-.066.062-.1l.947.229a.763.763,0,1,0,.359-1.484l-.255-.062a6.727,6.727,0,0,1,3.518-1.8l1.355-.24a3.435,3.435,0,0,0-1.568,2.881v.038a.763.763,0,0,0-.01,1.485l.01,0V47.69A2.41,2.41,0,0,0,71.277,50.1h2.87a.78.78,0,0,0,.05.075.763.763,0,0,0,1.07.139l.278-.214h3.749a2.422,2.422,0,0,0,.361-.027,24.68,24.68,0,0,1-.406,11.741.763.763,0,1,0,1.468.417,26.214,26.214,0,0,0,.339-12.9,2.4,2.4,0,0,0,.646-1.639Zm-3.89-4.934a2.526,2.526,0,1,1-2.526-2.526A2.529,2.529,0,0,1,77.811,39.879Zm-6.534,8.693a.882.882,0,0,1-.881-.881V44.813A1.911,1.911,0,0,1,72.3,42.9h.288a4.042,4.042,0,0,0,5.386,0h.288a1.911,1.911,0,0,1,1.909,1.909v2.878a.882.882,0,0,1-.881.881H71.277Z" transform="translate(-29.606 -29.067)"/>
          <path id="Path_1212055" data-name="Path 1212055" d="M105.663,286.147a2.41,2.41,0,0,0,2.408,2.408h4.579c.035.07.071.139.11.207l1.52,2.672a4.419,4.419,0,0,0,3.834,2.231h2.372a2.844,2.844,0,0,0,1.269-.3l2.193-1.1a2.825,2.825,0,0,0,.876-4.362l-.932-1.087a1.3,1.3,0,0,1-.312-.844v-3.555a2.807,2.807,0,0,0-1.337-2.4l-2.2-1.363a1.3,1.3,0,0,1-.44-.453,1.314,1.314,0,0,1-.174-.612,2.825,2.825,0,0,0-3.524-2.653l-.76.2a2.835,2.835,0,0,0-.423.145,4.039,4.039,0,0,0-4.814-.352.763.763,0,0,0-1.155.946l.049.094a4.044,4.044,0,0,0-.454,3.961,3.441,3.441,0,0,0-2.686,3.352v2.878Zm10.622-9.74a1.3,1.3,0,0,1,1.62,1.22,2.824,2.824,0,0,0,1.335,2.318l1.57.973-.28.216a.763.763,0,0,0,.932,1.209l.508-.391a1.3,1.3,0,0,1,.085.46v3.555a2.82,2.82,0,0,0,.68,1.838l.931,1.086a1.3,1.3,0,0,1-.4,2.005L121.07,292a1.309,1.309,0,0,1-.584.139h-2.372a2.89,2.89,0,0,1-2.508-1.459l-1.208-2.124h1.69a2.41,2.41,0,0,0,2.408-2.408v-1.52l.186-.143a.762.762,0,0,0-.189-1.315,3.441,3.441,0,0,0-2.683-3.252,4.046,4.046,0,0,0-.093-3.364Zm-1.68,1.928a2.526,2.526,0,1,1-2.526-2.526A2.529,2.529,0,0,1,114.605,278.335Zm-7.416,4.934a1.911,1.911,0,0,1,1.909-1.909h.288a4.042,4.042,0,0,0,5.386,0h.288a1.911,1.911,0,0,1,1.909,1.909v2.878a.882.882,0,0,1-.881.881h-8.017a.882.882,0,0,1-.881-.881Z" transform="translate(-94.912 -246.375)"/>
          <path id="Path_1212056" data-name="Path 1212056" d="M115.908,241.7a.763.763,0,0,0,.677-1.114l-.572-1.1a.763.763,0,0,0-1.355.7l.572,1.1A.763.763,0,0,0,115.908,241.7Z" transform="translate(-102.914 -214.744)"/>
          <path id="Path_1212057" data-name="Path 1212057" d="M73.979,161.732a.763.763,0,0,0,1.355-.7l-.572-1.1a.763.763,0,1,0-1.355.7Z" transform="translate(-65.86 -143.283)"/>
          <path id="Path_1212058" data-name="Path 1212058" d="M362.894,245.5l-1.043.8a.763.763,0,1,0,.932,1.209l1.043-.8a.763.763,0,1,0-.932-1.209Z" transform="translate(-324.766 -220.378)"/>
          <path id="Path_1212059" data-name="Path 1212059" d="M288.831,303.516a.763.763,0,0,0-1.07-.139l-1.042.8a.763.763,0,1,0,.932,1.209l1.042-.8A.763.763,0,0,0,288.831,303.516Z" transform="translate(-257.278 -272.366)"/>
          <path id="Path_1212060" data-name="Path 1212060" d="M400.461,216.562l-1.043.8a.763.763,0,1,0,.932,1.209l1.043-.8a.763.763,0,1,0-.932-1.209Z" transform="translate(-358.511 -194.384)"/>
          <path id="Path_1212061" data-name="Path 1212061" d="M290.21,134.55a.763.763,0,0,0,.179-1.505l-1.275-.308a.763.763,0,1,0-.359,1.484l1.275.308A.767.767,0,0,0,290.21,134.55Z" transform="translate(-258.85 -119.211)"/>
          <path id="Path_1212062" data-name="Path 1212062" d="M242.818,123.111l1.275.308a.763.763,0,0,0,.359-1.484l-1.275-.308a.763.763,0,1,0-.359,1.484Z" transform="translate(-217.587 -109.232)"/>
          <path id="Path_1212063" data-name="Path 1212063" d="M150.942,100.9l1.275.308a.763.763,0,0,0,.359-1.484l-1.275-.308a.763.763,0,1,0-.359,1.484Z" transform="translate(-135.059 -89.279)"/>
        </g>
      </g>
    </g>
  </g>
</svg>
