<svg xmlns="http://www.w3.org/2000/svg" xmlns:xlink="http://www.w3.org/1999/xlink" width="108" height="108" viewBox="0 0 108 108">
  <defs>
    <filter id="Path_904820" x="0" y="0" width="108" height="108" filterUnits="userSpaceOnUse">
      <feOffset dy="3" input="SourceAlpha"/>
      <feGaussianBlur stdDeviation="3" result="blur"/>
      <feFlood flood-opacity="0.161"/>
      <feComposite operator="in" in2="blur"/>
      <feComposite in="SourceGraphic"/>
    </filter>
  </defs>
  <g id="Group_1224809" data-name="Group 1224809" transform="translate(-200.088 -854)">
    <g id="Group_1224453" data-name="Group 1224453">
      <g id="Group_1206312" data-name="Group 1206312" transform="translate(209.088 860)">
        <g id="Group_1203639" data-name="Group 1203639" transform="translate(0 0)">
          <g id="Group_1202437" data-name="Group 1202437" transform="translate(0 0)">
            <g id="Group_1177315" data-name="Group 1177315">
              <g id="Group_1173585" data-name="Group 1173585" transform="translate(0)">
                <g id="Group_1173428" data-name="Group 1173428">
                  <g id="Group_1171958" data-name="Group 1171958">
                    <g id="Group_1167341" data-name="Group 1167341">
                      <g id="Group_1166792" data-name="Group 1166792">
                        <g transform="matrix(1, 0, 0, 1, -9, -6)" filter="url(#Path_904820)">
                          <g id="Path_904820-2" data-name="Path 904820" transform="translate(9 6)" fill="#ebe9f0">
                            <path d="M 44.99999618530273 88.49997711181641 C 39.12687301635742 88.49997711181641 33.43022155761719 87.35005187988281 28.06829643249512 85.0821533203125 C 22.88852119445801 82.89128875732422 18.23629570007324 79.75457763671875 14.24084663391113 75.75912475585938 C 10.24540901184082 71.76367950439453 7.108683586120605 67.1114501953125 4.917821407318115 61.93169021606445 C 2.649921178817749 56.56975173950195 1.499996185302734 50.87311172485352 1.499996185302734 44.9999885559082 C 1.499996185302734 39.12686538696289 2.649921178817749 33.43021392822266 4.917821407318115 28.06828880310059 C 7.108683586120605 22.88851356506348 10.24540901184082 18.23630142211914 14.24084663391113 14.24085140228271 C 18.23629570007324 10.24540138244629 22.88852119445801 7.108688354492188 28.06829643249512 4.917826175689697 C 33.43022155761719 2.649925947189331 39.12687301635742 1.500001072883606 44.99999618530273 1.500001072883606 C 50.87311935424805 1.500001072883606 56.56977081298828 2.649925947189331 61.93169784545898 4.917826175689697 C 67.11147308349609 7.108688354492188 71.76369476318359 10.24540138244629 75.75914764404297 14.24085140228271 C 79.75458526611328 18.23630142211914 82.89131164550781 22.88851356506348 85.08216857910156 28.06828880310059 C 87.35007476806641 33.43021392822266 88.5 39.12686538696289 88.5 44.9999885559082 C 88.5 50.87311172485352 87.35007476806641 56.56975173950195 85.08216857910156 61.93169021606445 C 82.89131164550781 67.1114501953125 79.75458526611328 71.76367950439453 75.75914764404297 75.75912475585938 C 71.76369476318359 79.75457763671875 67.11147308349609 82.89128875732422 61.93169784545898 85.0821533203125 C 56.56977081298828 87.35005187988281 50.87311935424805 88.49997711181641 44.99999618530273 88.49997711181641 Z" stroke="none"/>
                            <path d="M 44.99999618530273 3 C 39.32870864868164 3 33.82865142822266 4.110061645507812 28.65262603759766 6.299331665039062 C 23.65165710449219 8.414573669433594 19.15968322753906 11.44332885742188 15.301513671875 15.301513671875 C 11.44333648681641 19.15969085693359 8.414566040039062 23.65164947509766 6.299339294433594 28.65261840820312 C 4.110054016113281 33.82864379882812 2.999992370605469 39.32870101928711 2.999992370605469 44.9999885559082 C 2.999992370605469 50.6712760925293 4.110054016113281 56.17131805419922 6.299339294433594 61.34735870361328 C 8.414566040039062 66.34832763671875 11.44333648681641 70.84028625488281 15.301513671875 74.69845581054688 C 19.15968322753906 78.55663299560547 23.65165710449219 81.58540344238281 28.65262603759766 83.70063018798828 C 33.82865142822266 85.88991546630859 39.32870864868164 86.99997711181641 44.99999618530273 86.99997711181641 C 50.67128372192383 86.99997711181641 56.17134094238281 85.88991546630859 61.34736633300781 83.70063018798828 C 66.34834289550781 81.58540344238281 70.84030914306641 78.55663299560547 74.69847869873047 74.69845581054688 C 78.55665588378906 70.84028625488281 81.58542633056641 66.34832763671875 83.70065307617188 61.34735870361328 C 85.88993835449219 56.17131805419922 87 50.6712760925293 87 44.9999885559082 C 87 39.32870101928711 85.88993835449219 33.82864379882812 83.70065307617188 28.65261840820312 C 81.58542633056641 23.65164947509766 78.55665588378906 19.15969085693359 74.69847869873047 15.301513671875 C 70.84030914306641 11.44332885742188 66.34834289550781 8.414573669433594 61.34736633300781 6.299331665039062 C 56.17134094238281 4.110061645507812 50.67128372192383 3 44.99999618530273 3 M 44.99999618530273 0 C 69.85281372070312 0 90 20.14717102050781 90 44.9999885559082 C 90 69.85279083251953 69.85281372070312 89.99997711181641 44.99999618530273 89.99997711181641 C 20.14717864990234 89.99997711181641 -7.62939453125e-06 69.85279083251953 -7.62939453125e-06 44.9999885559082 C -7.62939453125e-06 20.14717102050781 20.14717864990234 0 44.99999618530273 0 Z" stroke="none" fill="#453179"/>
                          </g>
                        </g>
                      </g>
                    </g>
                  </g>
                </g>
              </g>
            </g>
          </g>
        </g>
      </g>
      <g id="funcion-cognitiva_1_" data-name="funcion-cognitiva (1)" transform="translate(218.202 871)">
        <g id="Group_1224451" data-name="Group 1224451" transform="translate(6.467 0.908)">
          <g id="Group_1224450" data-name="Group 1224450" transform="translate(0 2.936)">
            <path id="Path_1211418" data-name="Path 1211418" d="M170.7,332.176l-4.11-23.742H145.233l-4.291,23.742Z" transform="translate(-125.456 -274.929)" fill="#ffbd86"/>
            <path id="Path_1211419" data-name="Path 1211419" d="M170.6,308.434H149.244l-3.739,20.685a20.733,20.733,0,0,0,15.744-8.061l1.252-1.623a24.566,24.566,0,0,0,9.088-5.278Z" transform="translate(-129.466 -274.929)" fill="#f6a96c"/>
            <path id="Path_1211420" data-name="Path 1211420" d="M59.538,52.753a21.01,21.01,0,1,0-42.019.2v2a9.365,9.365,0,0,1-1.2,4.584L13.25,65.01a1.485,1.485,0,0,0-.169.44A1.416,1.416,0,0,0,14.114,67.1l3.406.887-.562,1.733a.789.789,0,0,0,.326.909l.734.468a.789.789,0,0,1,.133,1.224.788.788,0,0,0-.1.987l.666,1.027a.79.79,0,0,1,.127.429v3.313a4.2,4.2,0,0,0,4.2,4.2h5.375a17.07,17.07,0,0,0,13.517-6.645l1.141-1.479A4.326,4.326,0,0,1,45.145,72.7,21.018,21.018,0,0,0,59.538,52.753Z" transform="translate(-13.055 -31.744)" fill="#fed2a4"/>
            <path id="Path_1211421" data-name="Path 1211421" d="M101.544,61.306A21.017,21.017,0,0,0,87.485,41.475a5.292,5.292,0,0,0,.606,4.052,5.325,5.325,0,0,0,0,10.335A5.325,5.325,0,0,0,95.4,63.169a5.311,5.311,0,0,0,.921,1.937,2.444,2.444,0,0,1,.184,2.65A21.07,21.07,0,0,1,84.644,77.6a4.206,4.206,0,0,0-2.012,1.435l-1.141,1.479A17.07,17.07,0,0,1,67.975,87.16H62.6a4.185,4.185,0,0,1-1.752-.383,4.2,4.2,0,0,0,4.2,4.052h5.375a17.07,17.07,0,0,0,13.516-6.645l1.141-1.479a4.327,4.327,0,0,1,2.073-1.455,21.017,21.017,0,0,0,14.393-19.945Z" transform="translate(-55.061 -40.297)" fill="#ffbd86"/>
          </g>
          <path id="Path_1211422" data-name="Path 1211422" d="M232.392,234l2.5,4.334a8.74,8.74,0,0,1,1.17,4.367v.6a.979.979,0,0,0,.979.979H239a.979.979,0,0,0,.979-.979V234Z" transform="translate(-205.832 -206.571)" fill="#fe646f"/>
          <path id="Path_1211423" data-name="Path 1211423" d="M135.1,77.289a5.112,5.112,0,0,0-2.482-4.386,3.318,3.318,0,0,0-2.787-3.193,7.667,7.667,0,0,0-5.328-3.095,3.317,3.317,0,0,0-4.336-1.2,5.113,5.113,0,0,0-6.674,1.1,4.425,4.425,0,0,0-5.976,4.144,3.318,3.318,0,0,0-2.472,5.53,3.318,3.318,0,0,0,3.576,5.342,4.423,4.423,0,0,0,6.858,3.341,5.118,5.118,0,0,0,5.5,1.369,7.672,7.672,0,0,0,12.664-5.375,5.1,5.1,0,0,0,1.455-3.571Z" transform="translate(-93.157 -57.713)" fill="#fe99a0"/>
          <path id="Path_1211424" data-name="Path 1211424" d="M263.956,95.275a5.114,5.114,0,0,0-1.027-7.957,3.318,3.318,0,0,0-2.787-3.193,7.667,7.667,0,0,0-5.319-3.093,5.331,5.331,0,0,0,1.385,9.516.243.243,0,0,1,.143.347,5.327,5.327,0,0,0,6.8,7.377,7.635,7.635,0,0,0,.8-3Z" transform="translate(-223.472 -72.127)" fill="#fd8087"/>
          <path id="Path_1211425" data-name="Path 1211425" d="M305.393,20.833a2.144,2.144,0,0,0-1.813-2.118l-2.439-.381a9.36,9.36,0,0,0-.893-2.154l1.456-2a2.144,2.144,0,0,0-3-3l-2,1.456a9.359,9.359,0,0,0-2.154-.893l-.381-2.439a2.144,2.144,0,0,0-4.236,0l-.381,2.439a9.357,9.357,0,0,0-2.154.893l-2-1.456a2.144,2.144,0,0,0-3,3l1.456,2a9.358,9.358,0,0,0-.893,2.154l-2.439.381a2.144,2.144,0,0,0,0,4.236l2.439.381a9.356,9.356,0,0,0,.893,2.154l-1.456,2a2.144,2.144,0,0,0,3,3l2-1.456a9.359,9.359,0,0,0,2.154.893l.381,2.439a2.144,2.144,0,0,0,4.236,0l.381-2.439a9.356,9.356,0,0,0,2.154-.893l2,1.456a2.144,2.144,0,0,0,3-3l-1.456-2a9.359,9.359,0,0,0,.893-2.154l2.439-.381A2.144,2.144,0,0,0,305.393,20.833Z" transform="translate(-246.555 -7.5)" fill="#80d261"/>
          <path id="Path_1211426" data-name="Path 1211426" d="M382.772,42.5l-2.439-.381a9.36,9.36,0,0,0-.893-2.154l1.456-2a2.144,2.144,0,0,0-3-3l-1.376,1a12.039,12.039,0,0,1-7.7,18.212l.3,1.948a2.144,2.144,0,0,0,4.236,0l.381-2.439a9.357,9.357,0,0,0,2.154-.893l2,1.456a2.144,2.144,0,0,0,3-3l-1.456-2a9.359,9.359,0,0,0,.893-2.154l2.439-.381a2.144,2.144,0,0,0,0-4.237Z" transform="translate(-325.747 -31.287)" fill="#68ca44"/>
          <circle id="Ellipse_12675" data-name="Ellipse 12675" cx="3.914" cy="3.914" r="3.914" transform="translate(41.59 9.419)" fill="#4fc123"/>
        </g>
        <g id="Group_1224452" data-name="Group 1224452" transform="translate(5.559 0)">
          <path id="Path_1211427" data-name="Path 1211427" d="M368.369,424.952a.908.908,0,0,0-1.79.31l1.526,8.816a.908.908,0,0,0,.894.753.924.924,0,0,0,.156-.013.908.908,0,0,0,.74-1.05Z" transform="translate(-322.851 -372.831)"/>
          <path id="Path_1211428" data-name="Path 1211428" d="M63.632,11.226l-1.878-.293a10.284,10.284,0,0,0-.526-1.268l1.121-1.536a3.052,3.052,0,0,0-4.264-4.265L56.548,4.985a10.284,10.284,0,0,0-1.268-.526l-.293-1.878a3.052,3.052,0,0,0-6.031,0l-.293,1.878a10.294,10.294,0,0,0-1.268.526L45.858,3.864a3.037,3.037,0,0,0-3.957.307,3.074,3.074,0,0,0-.605.859,21.967,21.967,0,0,0-9.352-2.1h-.015A21.58,21.58,0,0,0,19.03,7.19a.908.908,0,1,0,1.079,1.461,19.776,19.776,0,0,1,11.821-3.9h.014a20.13,20.13,0,0,1,9.123,2.189,3.064,3.064,0,0,0,.526,1.187l1.121,1.536a10.286,10.286,0,0,0-.446,1.044,8.478,8.478,0,0,0-3.944-1.743,4.2,4.2,0,0,0-3.338-1.635,4.241,4.241,0,0,0-1.461.261,6.024,6.024,0,0,0-7.013,1.077,5.332,5.332,0,0,0-6.536,4.356,4.226,4.226,0,0,0-2.756,6.354,4.226,4.226,0,0,0,3.6,6.439q.189,0,.376-.017a5.331,5.331,0,0,0,7.443,3.385,6,6,0,0,0,4.641,1.408l1.46,2.53a7.841,7.841,0,0,1,1.048,3.913v.6a1.889,1.889,0,0,0,1.887,1.887h1.957a1.889,1.889,0,0,0,1.887-1.887V31.9a8.588,8.588,0,0,0,6.313-7.46,6.017,6.017,0,0,0,.431-.561c.132.051.265.1.4.145l.293,1.878a3.035,3.035,0,0,0,2.758,2.569A20.176,20.176,0,0,1,38.271,43.936,5.218,5.218,0,0,0,35.764,45.7l-1.139,1.478a16.267,16.267,0,0,1-12.8,6.291H16.452a3.3,3.3,0,0,1-3.294-3.294V46.862a1.72,1.72,0,0,0-.273-.925l-.616-.948a1.7,1.7,0,0,0-.354-2.562l-.655-.417.535-1.646a.908.908,0,0,0-.635-1.159l-3.408-.887a.5.5,0,0,1-.367-.593.616.616,0,0,1,.069-.17l3.071-5.468a10.306,10.306,0,0,0,1.315-5.029v-2a20.362,20.362,0,0,1,5.267-13.682.908.908,0,1,0-1.347-1.218,22.176,22.176,0,0,0-5.736,14.9v2A8.486,8.486,0,0,1,8.941,31.2L5.867,36.671a2.438,2.438,0,0,0-.265.706,2.331,2.331,0,0,0,1.693,2.7l2.475.644-.265.816a1.7,1.7,0,0,0,.7,1.956l.614.391A1.708,1.708,0,0,0,10.7,45.9l.647,1v3.28a5.116,5.116,0,0,0,5.11,5.11h5.374c.085,0,.169,0,.253,0L21.059,60.93a.908.908,0,0,0,.732,1.055.92.92,0,0,0,.163.015.909.909,0,0,0,.893-.747l1.1-6.1a17.964,17.964,0,0,0,12.115-6.87L37.2,46.809a3.408,3.408,0,0,1,1.64-1.148,21.852,21.852,0,0,0,8.387-5.116l1.335,7.711a.908.908,0,1,0,1.79-.31l-1.572-9.082a21.888,21.888,0,0,0,4.852-10.872,3.038,3.038,0,0,0,1.352-2.09l.293-1.878a10.271,10.271,0,0,0,1.268-.526l1.536,1.121a3.052,3.052,0,0,0,4.265-4.264l-1.121-1.536a10.275,10.275,0,0,0,.526-1.268l1.878-.293a3.052,3.052,0,0,0,0-6.031ZM39.7,37.632a.07.07,0,0,1-.07.07H37.675a.071.071,0,0,1-.07-.07v-.6a9.66,9.66,0,0,0-1.291-4.821L35.9,31.5a8.577,8.577,0,0,0,3.391.7q.208,0,.413-.01v5.447Zm-.413-7.253a6.764,6.764,0,0,1-4.411-1.637.908.908,0,0,0-.9-.167,4.207,4.207,0,0,1-4.528-1.126.908.908,0,0,0-1.174-.143A3.513,3.513,0,0,1,22.83,24.65a.908.908,0,0,0-1.208-.787,2.409,2.409,0,0,1-2.6-3.878.908.908,0,0,0,0-1.212,2.409,2.409,0,0,1,1.8-4.016.908.908,0,0,0,.908-.908,3.515,3.515,0,0,1,4.749-3.293.909.909,0,0,0,1.022-.276,4.206,4.206,0,0,1,5.489-.905.908.908,0,0,0,.9.038,2.408,2.408,0,0,1,3.15.876.908.908,0,0,0,.67.424,6.723,6.723,0,0,1,2.16.619,3.051,3.051,0,0,0,.445,5.925l1.878.293a10.276,10.276,0,0,0,.526,1.268l-1.121,1.536a3.052,3.052,0,0,0,4.264,4.265l.135-.1a6.768,6.768,0,0,1-6.7,5.859ZM63.351,15.462l-2.439.381a.908.908,0,0,0-.736.657,8.459,8.459,0,0,1-.807,1.945.908.908,0,0,0,.055.985l1.456,2a1.236,1.236,0,0,1-1.726,1.726l-2-1.456a.908.908,0,0,0-.985-.056,8.459,8.459,0,0,1-1.945.806.908.908,0,0,0-.657.736l-.381,2.439a1.236,1.236,0,0,1-2.442,0l-.381-2.439a.908.908,0,0,0-.657-.736,8.457,8.457,0,0,1-1.945-.806.909.909,0,0,0-.985.056l-2,1.456a1.236,1.236,0,0,1-1.726-1.726l1.456-2a.908.908,0,0,0,.055-.985,8.464,8.464,0,0,1-.807-1.945.908.908,0,0,0-.736-.657l-2.439-.381a1.236,1.236,0,0,1,0-2.442l2.439-.381a.908.908,0,0,0,.736-.657,8.456,8.456,0,0,1,.807-1.945.908.908,0,0,0-.056-.985l-1.456-2a1.236,1.236,0,0,1,1.726-1.726l2,1.456a.908.908,0,0,0,.985.055,8.461,8.461,0,0,1,1.945-.806.908.908,0,0,0,.657-.736l.381-2.439a1.236,1.236,0,0,1,2.442,0L53.573,5.3a.908.908,0,0,0,.657.736,8.455,8.455,0,0,1,1.945.806.908.908,0,0,0,.985-.055l2-1.456a1.236,1.236,0,0,1,1.727,1.726l-1.456,2a.908.908,0,0,0-.055.985,8.461,8.461,0,0,1,.807,1.945.908.908,0,0,0,.736.657l2.439.381a1.236,1.236,0,0,1,0,2.442Z" transform="translate(-5.559 0)"/>
          <path id="Path_1211429" data-name="Path 1211429" d="M356.774,79.9a.908.908,0,0,0-.336,1.24,3.006,3.006,0,1,1-2.764-1.507.908.908,0,1,0-.092-1.814,4.821,4.821,0,1,0,4.432,2.417A.908.908,0,0,0,356.774,79.9Z" transform="translate(-307.418 -68.395)"/>
        </g>
      </g>
    </g>
  </g>
</svg>
