<svg xmlns="http://www.w3.org/2000/svg" xmlns:xlink="http://www.w3.org/1999/xlink" width="97.533" height="97.533" viewBox="0 0 97.533 97.533">
  <defs>
    <filter id="Path_982547" x="0" y="0" width="97.533" height="97.533" filterUnits="userSpaceOnUse">
      <feOffset dy="3" input="SourceAlpha"/>
      <feGaussianBlur stdDeviation="3" result="blur"/>
      <feFlood flood-opacity="0.161"/>
      <feComposite operator="in" in2="blur"/>
      <feComposite in="SourceGraphic"/>
    </filter>
  </defs>
  <g id="Group_1224798" data-name="Group 1224798" transform="translate(-190.5 -3670)">
    <g id="Group_1224388" data-name="Group 1224388">
      <g id="Group_1206309" data-name="Group 1206309" transform="translate(0.5 -7017.641)">
        <g id="Group_1204178" data-name="Group 1204178" transform="translate(199 10693.641)">
          <g id="Group_1203357" data-name="Group 1203357" transform="translate(0)">
            <g id="Group_1202156" data-name="Group 1202156">
              <g id="Group_1177900" data-name="Group 1177900">
                <g id="Group_1172010" data-name="Group 1172010">
                  <g id="Group_1171046" data-name="Group 1171046">
                    <g id="Group_1148525" data-name="Group 1148525">
                      <g transform="matrix(1, 0, 0, 1, -9, -6)" filter="url(#Path_982547)">
                        <g id="Path_982547-2" data-name="Path 982547" transform="translate(9 6)" fill="#fdfbec">
                          <path d="M 39.7666015625 78.033203125 C 34.59997940063477 78.033203125 29.58870124816895 77.02164459228516 24.87196731567383 75.02663421630859 C 20.31538963317871 73.099365234375 16.22284507751465 70.34000396728516 12.70802402496338 66.82518005371094 C 9.193202018737793 63.31035614013672 6.433835029602051 59.21781158447266 4.506568431854248 54.66123580932617 C 2.511557102203369 49.94449996948242 1.500001549720764 44.93322372436523 1.500001549720764 39.7666015625 C 1.500001549720764 34.59997940063477 2.511557102203369 29.58870124816895 4.506568431854248 24.87196731567383 C 6.433835029602051 20.31538963317871 9.193202018737793 16.22284507751465 12.70802402496338 12.70802402496338 C 16.22284507751465 9.193202018737793 20.31538963317871 6.433835029602051 24.87196731567383 4.506568431854248 C 29.58870124816895 2.511557102203369 34.59997940063477 1.500001549720764 39.7666015625 1.500001549720764 C 44.93322372436523 1.500001549720764 49.94449996948242 2.511557102203369 54.66123580932617 4.506568431854248 C 59.21781158447266 6.433835029602051 63.31035614013672 9.193202018737793 66.82518005371094 12.70802402496338 C 70.34000396728516 16.22284507751465 73.099365234375 20.31538963317871 75.02663421630859 24.87196731567383 C 77.02164459228516 29.58870124816895 78.033203125 34.59997940063477 78.033203125 39.7666015625 C 78.033203125 44.93322372436523 77.02164459228516 49.94449996948242 75.02663421630859 54.66123580932617 C 73.099365234375 59.21781158447266 70.34000396728516 63.31035614013672 66.82518005371094 66.82518005371094 C 63.31035614013672 70.34000396728516 59.21781158447266 73.099365234375 54.66123580932617 75.02663421630859 C 49.94449996948242 77.02164459228516 44.93322372436523 78.033203125 39.7666015625 78.033203125 Z" stroke="none"/>
                          <path d="M 39.7666015625 3 C 34.80181503295898 3 29.98714065551758 3.971687316894531 25.45630264282227 5.888076782226562 C 21.07851409912109 7.739715576171875 17.146240234375 10.39113616943359 13.76869201660156 13.76869201660156 C 10.39113616943359 17.146240234375 7.739715576171875 21.07851409912109 5.888076782226562 25.45630264282227 C 3.971687316894531 29.98714065551758 3 34.80181503295898 3 39.7666015625 C 3 44.73138809204102 3.971687316894531 49.54606628417969 5.888076782226562 54.076904296875 C 7.739715576171875 58.45468902587891 10.39113616943359 62.386962890625 13.76869201660156 65.76451110839844 C 17.146240234375 69.14206695556641 21.07851409912109 71.79348754882812 25.45630264282227 73.64512634277344 C 29.98714065551758 75.56151580810547 34.80181503295898 76.533203125 39.7666015625 76.533203125 C 44.73138809204102 76.533203125 49.54606628417969 75.56151580810547 54.076904296875 73.64512634277344 C 58.45468902587891 71.79348754882812 62.386962890625 69.14206695556641 65.76451110839844 65.76451110839844 C 69.14206695556641 62.386962890625 71.79348754882812 58.45468902587891 73.64512634277344 54.076904296875 C 75.56151580810547 49.54606628417969 76.533203125 44.73138809204102 76.533203125 39.7666015625 C 76.533203125 34.80181503295898 75.56151580810547 29.98714065551758 73.64512634277344 25.45630264282227 C 71.79348754882812 21.07851409912109 69.14206695556641 17.146240234375 65.76451110839844 13.76869201660156 C 62.386962890625 10.39113616943359 58.45468902587891 7.739715576171875 54.076904296875 5.888076782226562 C 49.54606628417969 3.971687316894531 44.73138809204102 3 39.7666015625 3 M 39.7666015625 0 C 61.72908782958984 0 79.533203125 17.80411529541016 79.533203125 39.7666015625 C 79.533203125 61.72908782958984 61.72908782958984 79.533203125 39.7666015625 79.533203125 C 17.80411529541016 79.533203125 0 61.72908782958984 0 39.7666015625 C 0 17.80411529541016 17.80411529541016 0 39.7666015625 0 Z" stroke="none" fill="#83793c"/>
                        </g>
                      </g>
                    </g>
                  </g>
                </g>
              </g>
            </g>
          </g>
        </g>
      </g>
      <g id="recompensa_1_" data-name="recompensa (1)" transform="translate(209.615 3687.303)">
        <g id="Group_1224386" data-name="Group 1224386" transform="translate(1.932 1.932)">
          <g id="Group_1224371" data-name="Group 1224371" transform="translate(25.383 34.49)">
            <path id="Path_1211213" data-name="Path 1211213" d="M46.727,39.932V41.8a.935.935,0,0,1-.932.932H29.239l-.009-.009a2.756,2.756,0,0,0,0-3.71L29.239,39H45.795A.935.935,0,0,1,46.727,39.932Z" transform="translate(-29.23 -39)" fill="#ffc729"/>
          </g>
          <g id="Group_1224372" data-name="Group 1224372" transform="translate(27.033 15.847)">
            <path id="Path_1211214" data-name="Path 1211214" d="M44.983,20.678a1.7,1.7,0,0,1-.047.373l-.82,3.561-.065-.019H42.559a12.426,12.426,0,0,0-9.695,4.661l-1.827-8.212A1.605,1.605,0,0,1,31,20.678,1.683,1.683,0,0,1,32.678,19H43.3a1.671,1.671,0,0,1,1.678,1.678Z" transform="translate(-31 -19)" fill="#ffc729"/>
          </g>
          <g id="Group_1224373" data-name="Group 1224373" transform="translate(28.897 21.44)">
            <path id="Path_1211215" data-name="Path 1211215" d="M44.251,25.019l-1.725,7.467a.727.727,0,0,0-.205-.028,2.8,2.8,0,0,0,0,5.593H34.864L33.41,31.525,33,29.661A12.426,12.426,0,0,1,42.695,25h1.491Z" transform="translate(-33 -25)" fill="#fcd770"/>
          </g>
          <g id="Group_1224374" data-name="Group 1224374" transform="translate(29.83 4.661)">
            <path id="Path_1211216" data-name="Path 1211216" d="M44.636,10.869l-2.517,2.657.485,3.589L39.323,15.39l-3.291,1.725.494-3.589L34,10.869l3.458-.14L39.323,7l1.864,3.729Z" transform="translate(-34 -7)" fill="#fcd770"/>
          </g>
          <g id="Group_1224375" data-name="Group 1224375" transform="translate(3.729 27.266)">
            <path id="Path_1211217" data-name="Path 1211217" d="M31.579,31.949H20.654a.945.945,0,0,1-.886-.634l-.019-.065-3.5,3.5-3.5-3.5-.019.065a.945.945,0,0,1-.886.634h-.261a5.5,5.5,0,0,0-3,.876,5.343,5.343,0,0,0-.951.764A5.584,5.584,0,0,0,9.6,42.762v.009L7.864,50.593H26.508l-1.864-7.457H22.779V37.542h2.8a2.734,2.734,0,0,1,2.079.941l.009-.009h5.369Z" transform="translate(-6 -31.25)" fill="#b4dd7f"/>
          </g>
          <g id="Group_1224376" data-name="Group 1224376">
            <path id="Path_1211218" data-name="Path 1211218" d="M15.05,11.322H9.457a1.818,1.818,0,0,1-.923-.242l-1.314.988A3.726,3.726,0,0,0,5.729,15.05v3.729a9.318,9.318,0,0,0,7.224,9.079v.009l-.466,1.4-.019.065a.945.945,0,0,1-.886.634h-.261a5.5,5.5,0,0,0-3,.876A9.016,9.016,0,0,1,2,22.247v-7.2a13.05,13.05,0,1,1,26.1,0v7.457a9.315,9.315,0,0,1-3.729,7.457h-3.99a.945.945,0,0,1-.886-.634l-.019-.065-.653-1.958V27.3a9.305,9.305,0,0,0,5.546-8.52V14.5a3.183,3.183,0,0,0-3.179-3.179Z" transform="translate(-2 -2)" fill="#656d78"/>
          </g>
          <g id="Group_1224377" data-name="Group 1224377" transform="translate(9.322 46.609)">
            <path id="Path_1211219" data-name="Path 1211219" d="M17.593,52v8.39a2.8,2.8,0,0,0-5.593,0V52Z" transform="translate(-12 -52)" fill="#f0d0b4"/>
          </g>
          <g id="Group_1224378" data-name="Group 1224378" transform="translate(14.915 46.609)">
            <path id="Path_1211220" data-name="Path 1211220" d="M23.593,52v8.39a2.8,2.8,0,0,0-5.593,0V52Z" transform="translate(-18 -52)" fill="#f0d0b4"/>
          </g>
          <g id="Group_1224379" data-name="Group 1224379" transform="translate(14.915 52.202)">
            <path id="Path_1211221" data-name="Path 1211221" d="M22.773,58.82a2.79,2.79,0,0,1,.82,1.976.935.935,0,0,1-.932.932H18.932A.935.935,0,0,1,18,60.8a2.795,2.795,0,0,1,4.773-1.976Z" transform="translate(-18 -58)" fill="#969faa"/>
          </g>
          <g id="Group_1224380" data-name="Group 1224380" transform="translate(35.423 28.897)">
            <path id="Path_1211222" data-name="Path 1211222" d="M43.729,33.932v3.729a.935.935,0,0,1-.932.932A2.8,2.8,0,0,1,42.8,33a.727.727,0,0,1,.205.028A.928.928,0,0,1,43.729,33.932Z" transform="translate(-40 -33)" fill="#f0d0b4"/>
          </g>
          <g id="Group_1224381" data-name="Group 1224381" transform="translate(20.508 33.558)">
            <path id="Path_1211223" data-name="Path 1211223" d="M28.875,38.941a2.756,2.756,0,0,1,0,3.71.642.642,0,0,1-.1.121,2.79,2.79,0,0,1-1.976.82H24V38h2.8A2.734,2.734,0,0,1,28.875,38.941Z" transform="translate(-24 -38)" fill="#f0d0b4"/>
          </g>
          <g id="Group_1224382" data-name="Group 1224382" transform="translate(3.729 9.079)">
            <path id="Path_1211224" data-name="Path 1211224" d="M24.643,15.161V19.44a9.33,9.33,0,0,1-9.322,9.322,9.364,9.364,0,0,1-6.59-2.731A9.293,9.293,0,0,1,6,19.44V15.711a3.726,3.726,0,0,1,1.491-2.983l1.314-.988a1.818,1.818,0,0,0,.923.242H21.465a3.183,3.183,0,0,1,3.179,3.179Z" transform="translate(-6 -11.74)" fill="#f0d0b4"/>
          </g>
          <g id="Group_1224383" data-name="Group 1224383" transform="translate(10.487 25.299)">
            <path id="Path_1211225" data-name="Path 1211225" d="M19.589,29.149l.653,1.958-3.5,3.5-3.5-3.5.466-1.4V29.7a9.158,9.158,0,0,0,2.1.242,9.29,9.29,0,0,0,3.775-.8Z" transform="translate(-13.25 -29.14)" fill="#f0d0b4"/>
          </g>
          <g id="Group_1224384" data-name="Group 1224384" transform="translate(10.254 18.643)">
            <path id="Path_1211226" data-name="Path 1211226" d="M18.593,22l-.475,1.92a2.394,2.394,0,0,1-4.642,0L13,22Z" transform="translate(-13 -22)" fill="#ff826e"/>
          </g>
          <g id="Group_1224385" data-name="Group 1224385" transform="translate(9.322 52.202)">
            <path id="Path_1211227" data-name="Path 1211227" d="M16.773,58.82a2.79,2.79,0,0,1,.82,1.976.935.935,0,0,1-.932.932H12.932A.935.935,0,0,1,12,60.8a2.795,2.795,0,0,1,4.773-1.976Z" transform="translate(-12 -58)" fill="#969faa"/>
          </g>
        </g>
        <g id="Group_1224387" data-name="Group 1224387" transform="translate(1 1)">
          <path id="Path_1211228" data-name="Path 1211228" d="M10.864,17.8a.932.932,0,1,1,1.864,0v.932h1.864V17.8A2.8,2.8,0,1,0,9,17.8v.932h1.864Z" transform="translate(-1.543 -1.95)"/>
          <path id="Path_1211229" data-name="Path 1211229" d="M18.864,17.8a.932.932,0,1,1,1.864,0v.932h1.864V17.8A2.8,2.8,0,1,0,17,17.8v.932h1.864Z" transform="translate(-2.085 -1.95)"/>
          <path id="Path_1211230" data-name="Path 1211230" d="M12.489,24.078a3.32,3.32,0,0,0,6.441,0L19.7,21H11.72Zm4.824-1.214-.19.762a1.457,1.457,0,0,1-2.826,0l-.19-.762Z" transform="translate(-1.727 -2.357)"/>
          <path id="Path_1211231" data-name="Path 1211231" d="M43.88,35.49H42.016V31.762a1.855,1.855,0,0,0-.595-1.357l2.392-10.368a2.527,2.527,0,0,0,.067-.584,2.605,2.605,0,0,0-2.551-2.6l-.468-3.417,3.632-3.828-4.96-.195-2.452-4.9-2.452,4.9-4.958.195,3.63,3.828-.467,3.412h-2.19a2.592,2.592,0,0,0-1.68.628V14.983A13.982,13.982,0,1,0,1,14.983v7.2a9.875,9.875,0,0,0,5.479,8.879A6.507,6.507,0,0,0,8.19,41.248L6.364,49.473h3.958V56.93a1.866,1.866,0,0,0,1.864,1.864h3.729a1.844,1.844,0,0,0,.932-.259,1.844,1.844,0,0,0,.932.259h3.729a1.866,1.866,0,0,0,1.864-1.864V49.473h3.991L25.491,41.99a3.7,3.7,0,0,0,2.186-.906h16.2a1.866,1.866,0,0,0,1.864-1.864V37.355A1.866,1.866,0,0,0,43.88,35.49ZM28.9,23.626l1.187,5.339H26.614A10.337,10.337,0,0,0,28.9,23.626ZM33.442,35.49l-1.6-7.194A11.414,11.414,0,0,1,40.527,24.3h.388l-1.3,5.648a3.687,3.687,0,0,0-2.671,5.538Zm4.845-1.864a1.866,1.866,0,0,1,1.864-1.864V35.49A1.866,1.866,0,0,1,38.287,33.626ZM35.8,11.232l1.277-2.554,1.277,2.554,1.951.077L38.893,12.8l.307,2.242-2.119-1.114-2.118,1.114.306-2.242-1.416-1.493Zm1.277,4.8,1.543.811H35.538Zm-6.436,2.675H41.274a.743.743,0,0,1,.742.741.716.716,0,0,1-.02.167l-.651,2.821h-.818a13.265,13.265,0,0,0-9.171,3.665l-1.44-6.482a.764.764,0,0,1-.019-.164.748.748,0,0,1,.748-.748ZM2.864,22.179v-7.2a12.118,12.118,0,1,1,24.237,0V22.44a8.425,8.425,0,0,1-3.136,6.525H20.316L19.9,27.708a10.26,10.26,0,0,0,5.34-9V14.436a4.114,4.114,0,0,0-4.115-4.115H14.983a.932.932,0,0,1,0-1.864h.932V6.593h-.932a2.8,2.8,0,0,0-2.8,2.8,2.765,2.765,0,0,0,.172.932H9.39a.932.932,0,0,1,0-1.864h.932V6.593H9.39a2.79,2.79,0,0,0-2.341,4.319l-.457.342a4.683,4.683,0,0,0-1.863,3.729v3.729a10.264,10.264,0,0,0,6.969,9.7l-.184.55h-.26a6.476,6.476,0,0,0-3.093.782,8.02,8.02,0,0,1-5.3-7.568Zm4.846-9.434.908-.68a2.771,2.771,0,0,0,.771.121H21.122a2.252,2.252,0,0,1,2.25,2.25v4.275a8.39,8.39,0,1,1-16.779,0V14.983a2.81,2.81,0,0,1,1.118-2.237Zm5.807,16.1a9.853,9.853,0,0,0,4.66-.4l.166.5-2.429,2.429-2.429-2.429ZM6.593,35.49a4.666,4.666,0,0,1,4.661-4.661h.26a1.839,1.839,0,0,0,.941-.276l3.458,3.458,3.458-3.458a1.848,1.848,0,0,0,.943.276H30.5l1.036,4.661H27.677a3.693,3.693,0,0,0-2.44-.932H21.508V32.694H19.643v1.864H13.338a2.428,2.428,0,0,1-2.183-1.349l-1.668.834a4.287,4.287,0,0,0,3.851,2.379h8.17v3.729H11.254A4.666,4.666,0,0,1,6.593,35.49Zm9.322,13.983V53.72a3.612,3.612,0,0,0-3.729,0V49.473ZM12.186,56.93a1.864,1.864,0,0,1,3.729-.018v.018Zm5.593,0a1.864,1.864,0,0,1,3.729-.018v.018Zm3.729-3.21a3.612,3.612,0,0,0-3.729,0V49.473h3.729ZM8.687,47.609l1.272-5.724a6.51,6.51,0,0,0,1.295.131H23.577l1.4,5.593Zm16.55-7.457H23.372V36.423h1.864a1.864,1.864,0,1,1,0,3.729Zm18.643-.932H28.833a3.349,3.349,0,0,0,0-1.864H43.88Z" transform="translate(-1 -1)"/>
          <path id="Path_1211232" data-name="Path 1211232" d="M0,0H1.864V5.273H0Z" transform="translate(28.235 3.459) rotate(-45)"/>
          <path id="Path_1211233" data-name="Path 1211233" d="M0,0H5.273V1.864H0Z" transform="translate(40.352 5.869) rotate(-45)"/>
          <path id="Path_1211234" data-name="Path 1211234" d="M0,0H12.506V1.864H0Z" transform="translate(45.238 11.29) rotate(-26.565)"/>
          <path id="Path_1211235" data-name="Path 1211235" d="M51,20h7.457v1.864H51Z" transform="translate(-4.391 -2.289)"/>
          <path id="Path_1211236" data-name="Path 1211236" d="M0,0H1.864V10.911H0Z" transform="translate(46.309 26.04) rotate(-70.007)"/>
          <path id="Path_1211237" data-name="Path 1211237" d="M0,0H1.865V5.969H0Z" transform="matrix(0.625, -0.781, 0.781, 0.625, 45.112, 32.425)"/>
        </g>
      </g>
    </g>
  </g>
</svg>
