<svg xmlns="http://www.w3.org/2000/svg" xmlns:xlink="http://www.w3.org/1999/xlink" width="108" height="108" viewBox="0 0 108 108">
  <defs>
    <filter id="Path_904820" x="0" y="0" width="108" height="108" filterUnits="userSpaceOnUse">
      <feOffset dy="3" input="SourceAlpha"/>
      <feGaussianBlur stdDeviation="3" result="blur"/>
      <feFlood flood-opacity="0.161"/>
      <feComposite operator="in" in2="blur"/>
      <feComposite in="SourceGraphic"/>
    </filter>
  </defs>
  <g id="Group_1224820" data-name="Group 1224820" transform="translate(-166 -3939.5)">
    <g id="Group_1224466" data-name="Group 1224466">
      <g id="Group_1206493" data-name="Group 1206493" transform="translate(0 733)">
        <g id="Group_1203796" data-name="Group 1203796" transform="translate(0 21.5)">
          <g id="Group_1203172" data-name="Group 1203172" transform="translate(0 561)">
            <g id="Group_1202793" data-name="Group 1202793" transform="translate(175 2630)">
              <g id="Group_1178315" data-name="Group 1178315" transform="translate(0 0)">
                <g id="Group_1173585" data-name="Group 1173585" transform="translate(0)">
                  <g id="Group_1173428" data-name="Group 1173428">
                    <g id="Group_1171958" data-name="Group 1171958">
                      <g id="Group_1167341" data-name="Group 1167341">
                        <g id="Group_1166792" data-name="Group 1166792">
                          <g transform="matrix(1, 0, 0, 1, -9, -6)" filter="url(#Path_904820)">
                            <g id="Path_904820-2" data-name="Path 904820" transform="translate(9 6)" fill="#ebe9f0">
                              <path d="M 44.99999618530273 88.49999237060547 C 39.12687301635742 88.49999237060547 33.43022155761719 87.35006713867188 28.06829643249512 85.08216857910156 C 22.88852119445801 82.89130401611328 18.23629570007324 79.75457763671875 14.24084663391113 75.75914001464844 C 10.24540901184082 71.76369476318359 7.108683586120605 67.11146545410156 4.917821407318115 61.93169403076172 C 2.649921178817749 56.56976699829102 1.499996185302734 50.87311553955078 1.499996185302734 44.99999237060547 C 1.499996185302734 39.12686920166016 2.649921178817749 33.43021774291992 4.917821407318115 28.06829261779785 C 7.108683586120605 22.88851737976074 10.24540901184082 18.23630523681641 14.24084663391113 14.24085521697998 C 18.23629570007324 10.24540519714355 22.88852119445801 7.108692169189453 28.06829643249512 4.917829990386963 C 33.43022155761719 2.649929761886597 39.12687301635742 1.500004887580872 44.99999618530273 1.500004887580872 C 50.87311935424805 1.500004887580872 56.56977081298828 2.649929761886597 61.93169784545898 4.917829990386963 C 67.11147308349609 7.108692169189453 71.76369476318359 10.24540519714355 75.75914764404297 14.24085521697998 C 79.75458526611328 18.23630523681641 82.89131164550781 22.88851737976074 85.08216857910156 28.06829261779785 C 87.35007476806641 33.43021774291992 88.5 39.12686920166016 88.5 44.99999237060547 C 88.5 50.87311553955078 87.35007476806641 56.56976699829102 85.08216857910156 61.93169403076172 C 82.89131164550781 67.11146545410156 79.75458526611328 71.76369476318359 75.75914764404297 75.75914001464844 C 71.76369476318359 79.75457763671875 67.11147308349609 82.89130401611328 61.93169784545898 85.08216857910156 C 56.56977081298828 87.35006713867188 50.87311935424805 88.49999237060547 44.99999618530273 88.49999237060547 Z" stroke="none"/>
                              <path d="M 44.99999618530273 2.999992370605469 C 39.32870864868164 2.999992370605469 33.82865142822266 4.11004638671875 28.65262603759766 6.299331665039062 C 23.65165710449219 8.414566040039062 19.15968322753906 11.44333648681641 15.301513671875 15.30150604248047 C 11.44333648681641 19.15967559814453 8.414566040039062 23.65164947509766 6.299339294433594 28.65262222290039 C 4.110054016113281 33.82864761352539 2.999992370605469 39.32870483398438 2.999992370605469 44.99999237060547 C 2.999992370605469 50.67127990722656 4.110054016113281 56.17132186889648 6.299339294433594 61.34736633300781 C 8.414566040039062 66.34833526611328 11.44333648681641 70.84029388427734 15.301513671875 74.69846343994141 C 19.15968322753906 78.55663299560547 23.65165710449219 81.58540344238281 28.65262603759766 83.70063781738281 C 33.82865142822266 85.88992309570312 39.32870864868164 86.99997711181641 44.99999618530273 86.99997711181641 C 50.67128372192383 86.99997711181641 56.17134094238281 85.88992309570312 61.34736633300781 83.70063781738281 C 66.34834289550781 81.58540344238281 70.84030914306641 78.55663299560547 74.69847869873047 74.69846343994141 C 78.55665588378906 70.84029388427734 81.58542633056641 66.34833526611328 83.70065307617188 61.34736633300781 C 85.88993835449219 56.17132186889648 87 50.67127990722656 87 44.99999237060547 C 87 39.32870483398438 85.88993835449219 33.82864761352539 83.70065307617188 28.65262222290039 C 81.58542633056641 23.65164947509766 78.55665588378906 19.15967559814453 74.69847869873047 15.30150604248047 C 70.84030914306641 11.44333648681641 66.34834289550781 8.414566040039062 61.34736633300781 6.299331665039062 C 56.17134094238281 4.11004638671875 50.67128372192383 2.999992370605469 44.99999618530273 2.999992370605469 M 44.99999618530273 -7.62939453125e-06 C 69.85281372070312 -7.62939453125e-06 90 20.14717864990234 90 44.99999237060547 C 90 69.85279083251953 69.85281372070312 89.99997711181641 44.99999618530273 89.99997711181641 C 20.14717864990234 89.99997711181641 -7.62939453125e-06 69.85279083251953 -7.62939453125e-06 44.99999237060547 C -7.62939453125e-06 20.14717864990234 20.14717864990234 -7.62939453125e-06 44.99999618530273 -7.62939453125e-06 Z" stroke="none" fill="#c6c0d6"/>
                            </g>
                          </g>
                        </g>
                      </g>
                    </g>
                  </g>
                </g>
              </g>
            </g>
          </g>
        </g>
      </g>
      <g id="cognitivo_2_" data-name="cognitivo (2)" transform="translate(189.27 3959.973)">
        <g id="Group_1224463" data-name="Group 1224463" transform="translate(1.125 0.891)">
          <path id="Path_1211574" data-name="Path 1211574" d="M97.3,67.625V59.388h-1.69a7.162,7.162,0,0,1-7.135-6.537l-.725-8.265-4.522-1.019a2.387,2.387,0,0,1-1.638-3.34L87.031,28.58c0-11.664,10.018-21.119,22.375-21.119s22.375,9.455,22.375,21.119v3.806a28.733,28.733,0,0,1-6.37,17.954L119.8,57.356V67.625Z" transform="translate(-72.572 -7.461)" fill="#f7e0ba"/>
          <path id="Path_1211575" data-name="Path 1211575" d="M214.852,481.459h22.507v3.581H214.852Z" transform="translate(-190.127 -424.876)" fill="#f5d9ab"/>
          <path id="Path_1211576" data-name="Path 1211576" d="M138.846,363.945l.249,2.836a7.163,7.163,0,0,0,7.135,6.537H155.9v-3.581H145.875A7.163,7.163,0,0,1,138.846,363.945Z" transform="translate(-123.194 -321.39)" fill="#f5d9ab"/>
          <path id="Path_1211577" data-name="Path 1211577" d="M67.73,130.577V125.8H80.861V122.46l9.55,5.73-9.55,5.73v-3.342Z" transform="translate(-60.568 -108.732)" fill="#fff"/>
          <path id="Path_1211578" data-name="Path 1211578" d="M0,0H4.775V3.581H0Z" transform="translate(3.581 17.07) rotate(90)" fill="#fff"/>
          <path id="Path_1211579" data-name="Path 1211579" d="M311.216,127.619v-2.833l-2.371-.843-.854-2.062,1.08-2.273-2-2-2.273,1.08-2.062-.854-.843-2.371h-2.833l-.843,2.371-2.062.854-2.273-1.08-2,2,1.08,2.273-.854,2.062-2.371.843v2.833l2.371.843.854,2.062-1.08,2.273,2,2,2.273-1.08,2.062.854.843,2.371h2.833l.843-2.371,2.062-.854,2.273,1.08,2-2-1.08-2.273.854-2.062Zm-10.744,2.4a3.82,3.82,0,1,1,3.82-3.82A3.82,3.82,0,0,1,300.473,130.023Z" transform="translate(-256.066 -102.567)" fill="#a8e1f8"/>
          <path id="Path_1211580" data-name="Path 1211580" d="M324.188,234.138a17.934,17.934,0,0,1-15.781,0l.372.9-1.08,2.273,2,2,2.273-1.08,2.062.854.843,2.371h2.833l.843-2.371,2.062-.854,2.273,1.08,2-2-1.08-2.273Z" transform="translate(-271.891 -207.079)" fill="#75d2f5"/>
        </g>
        <g id="Group_1224464" data-name="Group 1224464" transform="translate(26.074 48.222)">
          <path id="Path_1211581" data-name="Path 1211581" d="M246.73,403.96h1.791v1.791H246.73Z" transform="translate(-243.149 -403.96)" fill="#fff"/>
          <path id="Path_1211582" data-name="Path 1211582" d="M216.73,403.96h1.791v1.791H216.73Z" transform="translate(-216.73 -403.96)" fill="#fff"/>
        </g>
        <g id="Group_1224465" data-name="Group 1224465" transform="translate(0.23)">
          <path id="Path_1211583" data-name="Path 1211583" d="M154.667,1.79,154.632,0a24.007,24.007,0,0,0-13.143,4.166,22.147,22.147,0,0,0-8.215,10.247l1.669.649c3.018-7.767,10.944-13.1,19.724-13.272Z" transform="translate(-117.392)"/>
          <path id="Path_1211584" data-name="Path 1211584" d="M459.512,142.678l-1.739.425a19.2,19.2,0,0,1,.546,4.552v3.805a27.656,27.656,0,0,1-5.139,16.019l1.463,1.033a29.438,29.438,0,0,0,5.467-17.052v-3.805A21,21,0,0,0,459.512,142.678Z" transform="translate(-399.11 -125.646)"/>
          <path id="Path_1211585" data-name="Path 1211585" d="M346.1,16.057l1.695-.578A22,22,0,0,0,339.971,4.9,23.907,23.907,0,0,0,327.015.272l-.1,1.788C335.7,2.541,343.41,8.166,346.1,16.057Z" transform="translate(-287.919 -0.24)"/>
          <path id="Path_1211586" data-name="Path 1211586" d="M395.9,369.324v10.583h1.791v-9.955l5.4-6.76-1.4-1.118Z" transform="translate(-348.664 -318.852)"/>
          <path id="Path_1211587" data-name="Path 1211587" d="M82.756,234.027l-.782-8.917-5.16-1.163a1.492,1.492,0,0,1-1.024-2.087l3.654-7.817-1.622-.758L74.168,221.1a3.283,3.283,0,0,0,2.252,4.592l3.884.875.668,7.614A8.058,8.058,0,0,0,89,241.538h.795v7.341h1.791v-7.341h7.087v-1.791H89A6.233,6.233,0,0,1,82.756,234.027Z" transform="translate(-65.069 -187.824)"/>
          <path id="Path_1211588" data-name="Path 1211588" d="M73.361,123.836l12.185-7.311-12.185-7.311v4.028H68.6v1.791h6.555v-2.656l6.914,4.149-6.914,4.149v-2.656H62.021v-2.984h4.786v-1.791H60.23v6.566H73.361Z" transform="translate(-53.068 -96.176)"/>
          <path id="Path_1211589" data-name="Path 1211589" d="M.23,149.526H5.6V142.96H.23v6.566Zm1.791-4.775H3.811v2.984H2.021Z" transform="translate(-0.23 -125.894)"/>
          <path id="Path_1211590" data-name="Path 1211590" d="M296.838,128.645l1.327-.55,2.484,1.181,2.9-2.9-1.181-2.484.55-1.327,2.592-.922v-4.1l-2.592-.922-.55-1.327,1.181-2.484-2.9-2.9-2.484,1.181-1.327-.55-.922-2.592h-4.1l-.922,2.592-1.327.55-2.484-1.181-2.9,2.9,1.181,2.484-.55,1.327-2.592.922v4.1l2.592.922.55,1.327-1.181,2.484,2.9,2.9,2.484-1.181,1.327.55.922,2.592h4.1Zm-2.185.8h-1.57l-.765-2.151-2.8-1.159-2.062.98-1.11-1.11.98-2.062-1.159-2.8-2.151-.765v-1.57l2.151-.765,1.159-2.8-.98-2.062,1.11-1.11,2.062.98,2.8-1.159.765-2.151h1.57l.765,2.151,2.8,1.159,2.062-.98,1.11,1.11-.98,2.062,1.159,2.8,2.151.765v1.57l-2.151.765-1.159,2.8.98,2.062-1.11,1.11-2.062-.98-2.8,1.159Z" transform="translate(-248.566 -95.072)"/>
          <path id="Path_1211591" data-name="Path 1211591" d="M344.945,165.96a4.715,4.715,0,1,0,4.715,4.715A4.721,4.721,0,0,0,344.945,165.96Zm0,7.64a2.925,2.925,0,1,1,2.925-2.925A2.928,2.928,0,0,1,344.945,173.6Z" transform="translate(-299.643 -146.149)"/>
        </g>
      </g>
    </g>
  </g>
</svg>
