<svg xmlns="http://www.w3.org/2000/svg" xmlns:xlink="http://www.w3.org/1999/xlink" width="108" height="108" viewBox="0 0 108 108">
  <defs>
    <filter id="Path_904820" x="0" y="0" width="108" height="108" filterUnits="userSpaceOnUse">
      <feOffset dy="3" input="SourceAlpha"/>
      <feGaussianBlur stdDeviation="3" result="blur"/>
      <feFlood flood-opacity="0.161"/>
      <feComposite operator="in" in2="blur"/>
      <feComposite in="SourceGraphic"/>
    </filter>
  </defs>
  <g id="Group_1224833" data-name="Group 1224833" transform="translate(-619.971 -768.686)">
    <g id="Group_1224741" data-name="Group 1224741">
      <g id="Group_1223821" data-name="Group 1223821" transform="translate(-0.029 -112.314)">
        <g id="Group_1203639" data-name="Group 1203639" transform="translate(0 81)">
          <g id="Group_1202437" data-name="Group 1202437" transform="translate(0.523 386.813)">
            <g id="Group_1177315" data-name="Group 1177315" transform="translate(-0.523 -112.813)">
              <g id="Group_1173585" data-name="Group 1173585" transform="translate(629 532)">
                <g id="Group_1173428" data-name="Group 1173428" transform="translate(0 0)">
                  <g id="Group_1171958" data-name="Group 1171958">
                    <g id="Group_1167341" data-name="Group 1167341">
                      <g id="Group_1166792" data-name="Group 1166792">
                        <g transform="matrix(1, 0, 0, 1, -9, -6)" filter="url(#Path_904820)">
                          <g id="Path_904820-2" data-name="Path 904820" transform="translate(9 6)" fill="#fdfbec">
                            <path d="M 44.99999618530273 88.49999237060547 C 39.12687301635742 88.49999237060547 33.43022155761719 87.35006713867188 28.06829643249512 85.08216857910156 C 22.88852119445801 82.89130401611328 18.23629570007324 79.75457763671875 14.24084663391113 75.75914001464844 C 10.24540901184082 71.76369476318359 7.108683586120605 67.11146545410156 4.917821407318115 61.93169403076172 C 2.649921178817749 56.56976699829102 1.499996185302734 50.87311553955078 1.499996185302734 44.99999237060547 C 1.499996185302734 39.12686920166016 2.649921178817749 33.43021774291992 4.917821407318115 28.06829261779785 C 7.108683586120605 22.88851737976074 10.24540901184082 18.23630523681641 14.24084663391113 14.24085521697998 C 18.23629570007324 10.24540519714355 22.88852119445801 7.108692169189453 28.06829643249512 4.917829990386963 C 33.43022155761719 2.649929761886597 39.12687301635742 1.500004887580872 44.99999618530273 1.500004887580872 C 50.87311935424805 1.500004887580872 56.56977081298828 2.649929761886597 61.93169784545898 4.917829990386963 C 67.11147308349609 7.108692169189453 71.76369476318359 10.24540519714355 75.75914764404297 14.24085521697998 C 79.75458526611328 18.23630523681641 82.89131164550781 22.88851737976074 85.08216857910156 28.06829261779785 C 87.35007476806641 33.43021774291992 88.5 39.12686920166016 88.5 44.99999237060547 C 88.5 50.87311553955078 87.35007476806641 56.56976699829102 85.08216857910156 61.93169403076172 C 82.89131164550781 67.11146545410156 79.75458526611328 71.76369476318359 75.75914764404297 75.75914001464844 C 71.76369476318359 79.75457763671875 67.11147308349609 82.89130401611328 61.93169784545898 85.08216857910156 C 56.56977081298828 87.35006713867188 50.87311935424805 88.49999237060547 44.99999618530273 88.49999237060547 Z" stroke="none"/>
                            <path d="M 44.99999618530273 2.999992370605469 C 39.32870864868164 2.999992370605469 33.82865142822266 4.11004638671875 28.65262603759766 6.299331665039062 C 23.65165710449219 8.414566040039062 19.15968322753906 11.44333648681641 15.301513671875 15.30150604248047 C 11.44333648681641 19.15967559814453 8.414566040039062 23.65164947509766 6.299339294433594 28.65262222290039 C 4.110054016113281 33.82864761352539 2.999992370605469 39.32870483398438 2.999992370605469 44.99999237060547 C 2.999992370605469 50.67127990722656 4.110054016113281 56.17132186889648 6.299339294433594 61.34736633300781 C 8.414566040039062 66.34833526611328 11.44333648681641 70.84029388427734 15.301513671875 74.69846343994141 C 19.15968322753906 78.55663299560547 23.65165710449219 81.58540344238281 28.65262603759766 83.70063781738281 C 33.82865142822266 85.88992309570312 39.32870864868164 86.99997711181641 44.99999618530273 86.99997711181641 C 50.67128372192383 86.99997711181641 56.17134094238281 85.88992309570312 61.34736633300781 83.70063781738281 C 66.34834289550781 81.58540344238281 70.84030914306641 78.55663299560547 74.69847869873047 74.69846343994141 C 78.55665588378906 70.84029388427734 81.58542633056641 66.34833526611328 83.70065307617188 61.34736633300781 C 85.88993835449219 56.17132186889648 87 50.67127990722656 87 44.99999237060547 C 87 39.32870483398438 85.88993835449219 33.82864761352539 83.70065307617188 28.65262222290039 C 81.58542633056641 23.65164947509766 78.55665588378906 19.15967559814453 74.69847869873047 15.30150604248047 C 70.84030914306641 11.44333648681641 66.34834289550781 8.414566040039062 61.34736633300781 6.299331665039062 C 56.17134094238281 4.11004638671875 50.67128372192383 2.999992370605469 44.99999618530273 2.999992370605469 M 44.99999618530273 -7.62939453125e-06 C 69.85281372070312 -7.62939453125e-06 90 20.14717864990234 90 44.99999237060547 C 90 69.85279083251953 69.85281372070312 89.99997711181641 44.99999618530273 89.99997711181641 C 20.14717864990234 89.99997711181641 -7.62939453125e-06 69.85279083251953 -7.62939453125e-06 44.99999237060547 C -7.62939453125e-06 20.14717864990234 20.14717864990234 -7.62939453125e-06 44.99999618530273 -7.62939453125e-06 Z" stroke="none" fill="#83793c"/>
                          </g>
                        </g>
                      </g>
                    </g>
                  </g>
                </g>
              </g>
            </g>
          </g>
        </g>
      </g>
      <g id="servicios" transform="translate(644.985 789.021)">
        <path id="Path_1211934" data-name="Path 1211934" d="M84.214,302.851,71.7,311.226l-3.73-.209-.146-1.468a4.766,4.766,0,0,0-4.075-4.247l-9.993-1.151a17.9,17.9,0,0,1-6.534-2.274,17.915,17.915,0,0,0-9.044-2.451h-7.2v16.446l19.043,7.211a5.179,5.179,0,0,0,2.214.147l.013,0,19.171-2.764a8.477,8.477,0,0,0,4.024-1.8l12.391-11.144a2.958,2.958,0,0,0-3.615-4.667Zm0,0" transform="translate(-27.19 -262.858)" fill="#ffe8c2"/>
        <path id="Path_1211935" data-name="Path 1211935" d="M88.038,331.137l-12.6,8.9a8.481,8.481,0,0,1-4.024,1.8L52.242,344.6l-.013,0a5.186,5.186,0,0,1-2.214-.147l-19.043-7.211v6.467l19.043,7.211a5.178,5.178,0,0,0,2.214.147l.013,0L71.414,348.3a8.478,8.478,0,0,0,4.024-1.8l12.391-11.144a2.958,2.958,0,0,0,.481-3.877A3.024,3.024,0,0,0,88.038,331.137Zm0,0" transform="translate(-27.19 -290.697)" fill="#efd5af"/>
        <path id="Path_1211936" data-name="Path 1211936" d="M13.921,297.983H8.364a1.008,1.008,0,0,1-1.008-1.008V274.547a1.008,1.008,0,0,1,1.008-1.008h5.558a1.008,1.008,0,0,1,1.008,1.008v22.429A1.008,1.008,0,0,1,13.921,297.983Zm0,0" transform="translate(-6.457 -240.133)" fill="#ff9248"/>
        <path id="Path_1211937" data-name="Path 1211937" d="M7.355,426.2a1.008,1.008,0,0,0,1.008,1.008h5.558a1.008,1.008,0,0,0,1.008-1.008v-5.459H7.355Zm0,0" transform="translate(-6.457 -369.359)" fill="#f97c28"/>
        <path id="Path_1211938" data-name="Path 1211938" d="M143.063,25.01A17.655,17.655,0,1,1,125.408,7.355,17.655,17.655,0,0,1,143.063,25.01Zm0,0" transform="translate(-94.594 -6.457)" fill="#88dbfd"/>
        <path id="Path_1211939" data-name="Path 1211939" d="M229.073,7.355a17.737,17.737,0,0,0-3.233.3,17.657,17.657,0,0,1,0,34.716,17.656,17.656,0,1,0,3.233-35.013Zm0,0" transform="translate(-198.259 -6.457)" fill="#5abfe9"/>
        <path id="Path_1211940" data-name="Path 1211940" d="M118.951,37.106A18.553,18.553,0,1,0,100.4,18.553a18.574,18.574,0,0,0,18.553,18.553ZM103.485,25h7.178a26.828,26.828,0,0,0,1.868,6.4,14.125,14.125,0,0,0,2.012,3.316A16.834,16.834,0,0,1,103.485,25ZM118.951,1.8c1.715,0,3.457,1.691,4.78,4.64a24.686,24.686,0,0,1,1.685,5.667H112.486a24.687,24.687,0,0,1,1.685-5.667c1.323-2.949,3.065-4.64,4.781-4.64Zm6.738,12.1a38.394,38.394,0,0,1,0,9.3H112.212a38.46,38.46,0,0,1,0-9.3Zm10.018,4.652a16.7,16.7,0,0,1-.657,4.652H127.5a40.138,40.138,0,0,0,0-9.3h7.552A16.7,16.7,0,0,1,135.707,18.553ZM118.951,35.31c-1.715,0-3.458-1.692-4.781-4.64A24.687,24.687,0,0,1,112.486,25h12.931a24.687,24.687,0,0,1-1.685,5.667c-1.323,2.949-3.065,4.64-4.78,4.64Zm-8.548-12.1h-7.552a16.8,16.8,0,0,1,0-9.3H110.4a40.139,40.139,0,0,0,0,9.3ZM123.36,34.721a14.108,14.108,0,0,0,2.011-3.316,26.828,26.828,0,0,0,1.868-6.4h7.178a16.832,16.832,0,0,1-11.057,9.719ZM134.417,12.1h-7.178a26.834,26.834,0,0,0-1.868-6.4,14.108,14.108,0,0,0-2.011-3.316A16.833,16.833,0,0,1,134.417,12.1ZM114.543,2.385A14.118,14.118,0,0,0,112.531,5.7a26.834,26.834,0,0,0-1.869,6.4h-7.177a16.832,16.832,0,0,1,11.057-9.719Zm0,0" transform="translate(-88.137)"/>
        <path id="Path_1211941" data-name="Path 1211941" d="M7.464,266.184H1.906A1.908,1.908,0,0,0,0,268.09v22.429a1.908,1.908,0,0,0,1.906,1.906H7.464a1.908,1.908,0,0,0,1.906-1.906V268.09a1.908,1.908,0,0,0-1.906-1.906Zm.11,24.335a.11.11,0,0,1-.11.109H1.906a.11.11,0,0,1-.11-.109V268.09a.11.11,0,0,1,.11-.109H7.464a.11.11,0,0,1,.11.109Zm0,0" transform="translate(0 -233.676)"/>
        <path id="Path_1211942" data-name="Path 1211942" d="M142.251,296.92a3.866,3.866,0,0,0-5.338-1.033L124.648,304.1l-2.662-.149-.07-.7a5.65,5.65,0,0,0-4.843-5.047l-.023,0-9.982-1.149a16.927,16.927,0,0,1-6.2-2.159,18.906,18.906,0,0,0-8.348-2.539.9.9,0,1,0-.11,1.794,17.094,17.094,0,0,1,7.551,2.3,18.722,18.722,0,0,0,6.862,2.389l.023,0,9.981,1.149a3.858,3.858,0,0,1,3.3,3.445l.063.627-14.151,2.29L99.9,304.832a.9.9,0,0,0-.428,1.745l6.32,1.551a.9.9,0,0,0,.357.014l15.069-2.439,3.632.2a.9.9,0,0,0,.55-.15l12.516-8.377a2.06,2.06,0,0,1,2.513,3.254l-12.374,11.129a7.59,7.59,0,0,1-3.576,1.6l-19.164,2.763H105.3l-.013,0a4.237,4.237,0,0,1-1.794-.115l-10.083-3.818a.9.9,0,1,0-.636,1.68l10.121,3.833a.676.676,0,0,0,.074.024,6.231,6.231,0,0,0,1.7.241,5.821,5.821,0,0,0,.9-.071h.007l19.166-2.763.013,0a9.4,9.4,0,0,0,4.45-1.994l.033-.028,12.387-11.14a3.866,3.866,0,0,0,.627-5.053Zm0,0" transform="translate(-80.388 -256.642)"/>
      </g>
    </g>
  </g>
</svg>
