<svg xmlns="http://www.w3.org/2000/svg" xmlns:xlink="http://www.w3.org/1999/xlink" width="103" height="103" viewBox="0 0 103 103">
  <defs>
    <filter id="Path_978624" x="0" y="0" width="103" height="103" filterUnits="userSpaceOnUse">
      <feOffset dy="3" input="SourceAlpha"/>
      <feGaussianBlur stdDeviation="3" result="blur"/>
      <feFlood flood-opacity="0.161"/>
      <feComposite operator="in" in2="blur"/>
      <feComposite in="SourceGraphic"/>
    </filter>
  </defs>
  <g id="Group_1224786" data-name="Group 1224786" transform="translate(-170 -837)">
    <g id="Group_1224347" data-name="Group 1224347">
      <g id="Group_1206303" data-name="Group 1206303" transform="translate(-1 88)">
        <g id="Group_1203387" data-name="Group 1203387" transform="translate(0 -83)">
          <g id="Group_1178310" data-name="Group 1178310" transform="translate(0 -2034)">
            <g id="Group_1176881" data-name="Group 1176881">
              <g id="Group_1175148" data-name="Group 1175148" transform="translate(0 1580)">
                <g id="Group_1173798" data-name="Group 1173798" transform="translate(-3 -3520)">
                  <g id="Group_1171925" data-name="Group 1171925" transform="translate(-22 -2246)">
                    <g id="Group_1164524" data-name="Group 1164524" transform="translate(205 7058)">
                      <g id="Group_1144123" data-name="Group 1144123">
                        <g transform="matrix(1, 0, 0, 1, -9, -6)" filter="url(#Path_978624)">
                          <g id="Path_978624-2" data-name="Path 978624" transform="translate(9 6)" fill="#ebe9f0">
                            <path d="M 42.5 83.5 C 36.96437835693359 83.5 31.59512901306152 82.41617584228516 26.54141235351562 80.27863311767578 C 21.65934181213379 78.21369171142578 17.27447128295898 75.25723266601562 13.50862312316895 71.49137878417969 C 9.742764472961426 67.72553253173828 6.786305904388428 63.34066009521484 4.721364498138428 58.45858764648438 C 2.583823442459106 53.40486907958984 1.5 48.03562164306641 1.5 42.5 C 1.5 36.96437835693359 2.583823442459106 31.59512901306152 4.721364498138428 26.54141235351562 C 6.786305904388428 21.65934181213379 9.742764472961426 17.27447128295898 13.50862312316895 13.50862312316895 C 17.27447128295898 9.742764472961426 21.65934181213379 6.786305904388428 26.54141235351562 4.721364498138428 C 31.59512901306152 2.583823442459106 36.96437835693359 1.5 42.5 1.5 C 48.03562164306641 1.5 53.40486907958984 2.583823442459106 58.45858764648438 4.721364498138428 C 63.34066009521484 6.786305904388428 67.72553253173828 9.742764472961426 71.49137878417969 13.50862312316895 C 75.25723266601562 17.27447128295898 78.21369171142578 21.65934181213379 80.27863311767578 26.54141235351562 C 82.41617584228516 31.59512901306152 83.5 36.96437835693359 83.5 42.5 C 83.5 48.03562164306641 82.41617584228516 53.40486907958984 80.27863311767578 58.45858764648438 C 78.21369171142578 63.34066009521484 75.25723266601562 67.72553253173828 71.49137878417969 71.49137878417969 C 67.72553253173828 75.25723266601562 63.34066009521484 78.21369171142578 58.45858764648438 80.27863311767578 C 53.40486907958984 82.41617584228516 48.03562164306641 83.5 42.5 83.5 Z" stroke="none"/>
                            <path d="M 42.5 3 C 37.16621398925781 3 31.99356079101562 4.043960571289062 27.125732421875 6.102882385253906 C 22.42246627807617 8.092185974121094 18.19785308837891 10.94070434570312 14.56928253173828 14.56928253173828 C 10.94070434570312 18.19785308837891 8.092185974121094 22.42246627807617 6.102882385253906 27.125732421875 C 4.043960571289062 31.99356079101562 3 37.16621398925781 3 42.5 C 3 47.83378601074219 4.043960571289062 53.00643920898438 6.102882385253906 57.87425231933594 C 8.092185974121094 62.57753372192383 10.94070434570312 66.80213165283203 14.56928253173828 70.43071746826172 C 18.19786834716797 74.05929565429688 22.42246627807617 76.90781402587891 27.125732421875 78.89711761474609 C 31.99356079101562 80.95603942871094 37.16621398925781 82 42.5 82 C 47.83378601074219 82 53.00642395019531 80.95603942871094 57.87425231933594 78.89711761474609 C 62.57753372192383 76.90781402587891 66.80213165283203 74.05929565429688 70.43071746826172 70.43071746826172 C 74.05929565429688 66.80213165283203 76.90781402587891 62.57753372192383 78.89711761474609 57.87425231933594 C 80.95603942871094 53.00642395019531 82 47.83378601074219 82 42.5 C 82 37.16621398925781 80.95603942871094 31.99356079101562 78.89711761474609 27.125732421875 C 76.90781402587891 22.42246627807617 74.05929565429688 18.19786834716797 70.43071746826172 14.56928253173828 C 66.80213165283203 10.94070434570312 62.57753372192383 8.092185974121094 57.87425231933594 6.102882385253906 C 53.00643920898438 4.043960571289062 47.83378601074219 3 42.5 3 M 42.5 0 C 65.97209167480469 0 85 19.02789306640625 85 42.5 C 85 65.97209167480469 65.97209167480469 85 42.5 85 C 19.02789306640625 85 0 65.97209167480469 0 42.5 C 0 19.02789306640625 19.02789306640625 0 42.5 0 Z" stroke="none" fill="#c6c0d6"/>
                          </g>
                        </g>
                      </g>
                    </g>
                  </g>
                </g>
              </g>
            </g>
          </g>
        </g>
      </g>
      <g id="creatividad" transform="translate(192.048 819.066)">
        <g id="Group_1224345" data-name="Group 1224345" transform="translate(0.863 41.18)">
          <g id="Group_1224332" data-name="Group 1224332" transform="translate(1.742 36.521)">
            <path id="Path_1211114" data-name="Path 1211114" d="M49.492,373.182H22.645v-3.573a1.9,1.9,0,0,1,1.658-1.881l19.126-2.422a5.386,5.386,0,0,1,6.063,5.343Z" transform="translate(-22.645 -365.262)" fill="#eef7ff"/>
          </g>
          <g id="Group_1224333" data-name="Group 1224333" transform="translate(1.742 40.989)">
            <path id="Path_1211115" data-name="Path 1211115" d="M22.645,404.1v3.452H49.492v-2.533a5.441,5.441,0,0,0-.078-.918Z" transform="translate(-22.645 -404.101)" fill="#d0e6ff"/>
          </g>
          <g id="Group_1224334" data-name="Group 1224334" transform="translate(28.589 36.521)">
            <path id="Path_1211116" data-name="Path 1211116" d="M256,373.182h26.847v-3.573a1.9,1.9,0,0,0-1.658-1.881l-19.126-2.422A5.386,5.386,0,0,0,256,370.648Z" transform="translate(-256 -365.262)" fill="#e0eeff"/>
          </g>
          <g id="Group_1224335" data-name="Group 1224335" transform="translate(28.589 36.521)">
            <path id="Path_1211117" data-name="Path 1211117" d="M256,373.182h26.847v-3.573a1.9,1.9,0,0,0-1.658-1.881l-19.126-2.422A5.386,5.386,0,0,0,256,370.648Z" transform="translate(-256 -365.262)" fill="#e0eeff"/>
          </g>
          <g id="Group_1224336" data-name="Group 1224336" transform="translate(28.589 36.521)">
            <path id="Path_1211118" data-name="Path 1211118" d="M256,373.182h26.847v-3.573a1.9,1.9,0,0,0-1.658-1.881l-19.126-2.422A5.386,5.386,0,0,0,256,370.648Z" transform="translate(-256 -365.262)" fill="#e0eeff"/>
          </g>
          <g id="Group_1224337" data-name="Group 1224337" transform="translate(28.589 38.76)">
            <path id="Path_1211119" data-name="Path 1211119" d="M281.19,384.947l-1.794-.227a2.23,2.23,0,0,1-2.23,2.23H256.079a5.446,5.446,0,0,0-.078.918V390.4h26.847v-3.573A1.9,1.9,0,0,0,281.19,384.947Z" transform="translate(-256.001 -384.72)" fill="#d0e6ff"/>
          </g>
          <g id="Group_1224338" data-name="Group 1224338" transform="translate(0 44.441)">
            <path id="Path_1211120" data-name="Path 1211120" d="M62.19,437.564H9.988A2.488,2.488,0,0,1,7.5,435.076a.973.973,0,0,1,.973-.973H63.705a.973.973,0,0,1,.973.973,2.488,2.488,0,0,1-2.488,2.488Z" transform="translate(-7.5 -434.103)" fill="#867f8b"/>
          </g>
          <g id="Group_1224339" data-name="Group 1224339" transform="translate(5.72 1.431)">
            <circle id="Ellipse_12666" data-name="Ellipse 12666" cx="2.366" cy="2.366" r="2.366" fill="#90ddaa"/>
          </g>
          <g id="Group_1224340" data-name="Group 1224340" transform="translate(46.726 23.477)">
            <circle id="Ellipse_12667" data-name="Ellipse 12667" cx="2.366" cy="2.366" r="2.366" fill="#90ddaa"/>
          </g>
          <g id="Group_1224341" data-name="Group 1224341" transform="translate(25.464 28.033)">
            <path id="Path_1211121" data-name="Path 1211121" d="M224.645,286.169h-2.46a3.006,3.006,0,0,1-3.006-3.006v-.369h8.472v.369A3.006,3.006,0,0,1,224.645,286.169Z" transform="translate(-219.179 -282.794)" fill="#968e9c"/>
          </g>
          <g id="Group_1224342" data-name="Group 1224342" transform="translate(17.166 -5.197)">
            <path id="Path_1211122" data-name="Path 1211122" d="M167.465,69.528a10.421,10.421,0,0,1,2.805,5.039H181.73a10.274,10.274,0,0,1,2.781-5.014,12.534,12.534,0,1,0-17.045-.025Z" transform="translate(-163.467 -47.815)" fill="#f9d75a"/>
          </g>
          <g id="Group_1224343" data-name="Group 1224343" transform="translate(23.378 22.722)">
            <path id="Path_1211123" data-name="Path 1211123" d="M221.465,249.63h-9.7a1,1,0,0,1-1.057-.932v-2.447a1,1,0,0,1,1.057-.932h9.7a1,1,0,0,1,1.056.932V248.7A1,1,0,0,1,221.465,249.63Z" transform="translate(-210.707 -245.319)" fill="#54afff"/>
          </g>
          <g id="Group_1224344" data-name="Group 1224344" transform="translate(24.353 8.587)">
            <path id="Path_1211124" data-name="Path 1211124" d="M224.063,122.862l.725,1.531a.717.717,0,0,0,.556.4l1.68.216a.717.717,0,0,1,.4,1.232l-1.232,1.163a.717.717,0,0,0-.213.654l.314,1.665a.717.717,0,0,1-1.048.762l-1.487-.813a.717.717,0,0,0-.688,0l-1.487.813a.717.717,0,0,1-1.048-.762l.314-1.665a.717.717,0,0,0-.212-.654l-1.232-1.163a.717.717,0,0,1,.4-1.232l1.68-.216a.717.717,0,0,0,.556-.4l.725-1.531A.717.717,0,0,1,224.063,122.862Z" transform="translate(-219.179 -122.452)" fill="#eef7ff"/>
          </g>
        </g>
        <g id="Group_1224346" data-name="Group 1224346" transform="translate(0 40.317)">
          <path id="Path_1211125" data-name="Path 1211125" d="M160.559,65.246a9.825,9.825,0,0,1,2.579,4.489,2.229,2.229,0,0,0-.373,1.24v3.059a2.246,2.246,0,0,0,1.235,2,4.843,4.843,0,0,0,4.822,4.463H171.9a4.843,4.843,0,0,0,4.822-4.463,2.246,2.246,0,0,0,1.235-2V70.977a2.232,2.232,0,0,0-.377-1.243,9.679,9.679,0,0,1,2.552-4.459,14.437,14.437,0,0,0,4.621-10.567,14.391,14.391,0,1,0-28.782.1A14.448,14.448,0,0,0,160.559,65.246ZM175.71,70.89a.087.087,0,0,1,.086.087v3.058a.087.087,0,0,1-.087.087h-10.7a.087.087,0,0,1-.087-.087V70.975a.083.083,0,0,1,.025-.062.081.081,0,0,1,.06-.025C167.483,70.89,173.236,70.89,175.71,70.89ZM171.9,78.341h-3.076a2.685,2.685,0,0,1-2.608-2.062h8.293A2.685,2.685,0,0,1,171.9,78.341Zm-1.631-35.866h.093a12.233,12.233,0,0,1,12.233,12.233,12.272,12.272,0,0,1-3.929,8.982,11.735,11.735,0,0,0-3.04,5.042l-10.534,0a11.891,11.891,0,0,0-3.061-5.064,12.12,12.12,0,0,1-3.9-8.872A12.249,12.249,0,0,1,170.267,42.475Z" transform="translate(-140.045 -46.895)"/>
          <path id="Path_1211126" data-name="Path 1211126" d="M249.363,76.433a.863.863,0,0,0,.863-.863V74.187a.863.863,0,1,0-1.726,0V75.57A.863.863,0,0,0,249.363,76.433Z" transform="translate(-219.911 -69.527)"/>
          <path id="Path_1211127" data-name="Path 1211127" d="M286.405,96.032a.863.863,0,0,0,1.215-.11l.886-1.063a.863.863,0,0,0-1.326-1.1l-.886,1.063A.863.863,0,0,0,286.405,96.032Z" transform="translate(-253.181 -87.332)"/>
          <path id="Path_1211128" data-name="Path 1211128" d="M204.3,95.922a.863.863,0,1,0,1.326-1.1l-.886-1.063a.863.863,0,1,0-1.326,1.1Z" transform="translate(-179.831 -87.332)"/>
          <path id="Path_1211129" data-name="Path 1211129" d="M211.751,118.6a1.566,1.566,0,0,0,.418,1.637l1.174,1.108-.3,1.587a1.58,1.58,0,0,0,2.31,1.679l1.417-.774,1.417.774a1.58,1.58,0,0,0,2.31-1.679l-.3-1.587,1.174-1.108a1.58,1.58,0,0,0-.883-2.716l-1.6-.206-.691-1.459a1.58,1.58,0,0,0-2.856,0l-.691,1.459-1.6.206A1.567,1.567,0,0,0,211.751,118.6Zm3.2.417a1.573,1.573,0,0,0,1.226-.891l.593-1.253.593,1.253a1.573,1.573,0,0,0,1.226.891l1.375.177-1.008.951a1.573,1.573,0,0,0-.468,1.441l.256,1.362-1.216-.665a1.573,1.573,0,0,0-1.516,0l-1.216.665.256-1.362a1.573,1.573,0,0,0-.468-1.442l-1.008-.951Z" transform="translate(-186.988 -107.063)"/>
          <path id="Path_1211130" data-name="Path 1211130" d="M413.168,98.14h.8v.8a.863.863,0,1,0,1.726,0v-.8h.8a.863.863,0,1,0,0-1.726h-.8v-.8a.863.863,0,1,0-1.726,0v.8h-.8a.863.863,0,1,0,0,1.726Z" transform="translate(-364.871 -88.493)"/>
          <path id="Path_1211131" data-name="Path 1211131" d="M91.528,229.09h-.8a.863.863,0,1,0,0,1.726h.8v.8a.863.863,0,1,0,1.726,0v-.8h.8a.863.863,0,1,0,0-1.726h-.8v-.8a.863.863,0,0,0-1.726,0Z" transform="translate(-79.531 -205.905)"/>
          <path id="Path_1211132" data-name="Path 1211132" d="M57.161,365.692v-2.715a2.764,2.764,0,0,0-2.412-2.737l-3.472-.44a.863.863,0,1,0-.217,1.712l3.472.44a1.035,1.035,0,0,1,.9,1.025v2.71H30.315v-1.67a4.523,4.523,0,0,1,5.092-4.487L47.029,361a.863.863,0,0,0,.217-1.712l-11.623-1.472a6.246,6.246,0,0,0-6.171,3.032,6.246,6.246,0,0,0-6.171-3.032L4.155,360.24a2.764,2.764,0,0,0-2.412,2.737v2.715A1.836,1.836,0,0,0,0,367.522a3.355,3.355,0,0,0,3.351,3.351H6.274a.863.863,0,1,0,0-1.726H3.351a1.627,1.627,0,0,1-1.625-1.625.11.11,0,0,1,.11-.11H57.068a.11.11,0,0,1,.11.11,1.627,1.627,0,0,1-1.625,1.625H10.3a.863.863,0,1,0,0,1.726H55.553a3.355,3.355,0,0,0,3.351-3.351A1.836,1.836,0,0,0,57.161,365.692ZM3.468,362.977a1.035,1.035,0,0,1,.9-1.025L23.5,359.529a4.523,4.523,0,0,1,5.091,4.487v1.67H3.468Z" transform="translate(0 -321.246)"/>
          <path id="Path_1211133" data-name="Path 1211133" d="M52.945,59.213a3.229,3.229,0,1,0-3.229-3.229A3.233,3.233,0,0,0,52.945,59.213Zm0-4.733a1.5,1.5,0,1,1-1.5,1.5A1.505,1.505,0,0,1,52.945,54.481Z" transform="translate(-43.996 -51.324)"/>
          <path id="Path_1211134" data-name="Path 1211134" d="M409.377,250.836a3.229,3.229,0,1,0-3.229-3.229A3.233,3.233,0,0,0,409.377,250.836Zm0-4.733a1.5,1.5,0,1,1-1.5,1.5A1.505,1.505,0,0,1,409.377,246.1Z" transform="translate(-359.422 -220.902)"/>
        </g>
      </g>
    </g>
  </g>
</svg>
