<svg xmlns="http://www.w3.org/2000/svg" xmlns:xlink="http://www.w3.org/1999/xlink" width="103" height="103" viewBox="0 0 103 103">
  <defs>
    <filter id="Path_904820" x="0" y="0" width="103" height="103" filterUnits="userSpaceOnUse">
      <feOffset dy="3" input="SourceAlpha"/>
      <feGaussianBlur stdDeviation="3" result="blur"/>
      <feFlood flood-opacity="0.161"/>
      <feComposite operator="in" in2="blur"/>
      <feComposite in="SourceGraphic"/>
    </filter>
  </defs>
  <g id="Group_1224814" data-name="Group 1224814" transform="translate(-171 -2985.802)">
    <g id="Group_1224462" data-name="Group 1224462">
      <g id="Group_1206314" data-name="Group 1206314" transform="translate(10 -2906.198)">
        <g id="Group_1203801" data-name="Group 1203801" transform="translate(170 5898)">
          <g id="Group_1203172" data-name="Group 1203172" transform="translate(0 0)">
            <g id="Group_1202793" data-name="Group 1202793">
              <g id="Group_1178315" data-name="Group 1178315">
                <g id="Group_1173585" data-name="Group 1173585">
                  <g id="Group_1173428" data-name="Group 1173428">
                    <g id="Group_1171958" data-name="Group 1171958">
                      <g id="Group_1167341" data-name="Group 1167341">
                        <g id="Group_1166792" data-name="Group 1166792">
                          <g transform="matrix(1, 0, 0, 1, -9, -6)" filter="url(#Path_904820)">
                            <g id="Path_904820-2" data-name="Path 904820" transform="translate(9 6)" fill="#effbfe">
                              <path d="M 42.49999618530273 83.49997711181641 C 36.96437454223633 83.49997711181641 31.59512519836426 82.41616058349609 26.54140853881836 80.27861785888672 C 21.65933799743652 78.21367645263672 17.27447891235352 75.25721740722656 13.50861930847168 71.49135589599609 C 9.742773056030273 67.72550964355469 6.786302089691162 63.34065246582031 4.721360683441162 58.45858001708984 C 2.583819627761841 53.40486145019531 1.499996185302734 48.03561401367188 1.499996185302734 42.49999237060547 C 1.499996185302734 36.96437072753906 2.583819627761841 31.59512138366699 4.721360683441162 26.54140472412109 C 6.786302089691162 21.65933418273926 9.742773056030273 17.27447509765625 13.50861930847168 13.50861549377441 C 17.27447891235352 9.742769241333008 21.65933799743652 6.786310195922852 26.54140853881836 4.721368789672852 C 31.59512519836426 2.58382773399353 36.96437454223633 1.500004172325134 42.49999618530273 1.500004172325134 C 48.03561782836914 1.500004172325134 53.40486526489258 2.58382773399353 58.45858383178711 4.721368789672852 C 63.34065628051758 6.786310195922852 67.72551727294922 9.742769241333008 71.49137115478516 13.50861549377441 C 75.25721740722656 17.27447509765625 78.21369171142578 21.65933418273926 80.27863311767578 26.54140472412109 C 82.41617584228516 31.59512138366699 83.5 36.96437072753906 83.5 42.49999237060547 C 83.5 48.03561401367188 82.41617584228516 53.40486145019531 80.27863311767578 58.45858001708984 C 78.21369171142578 63.34065246582031 75.25721740722656 67.72550964355469 71.49137115478516 71.49135589599609 C 67.72551727294922 75.25721740722656 63.34065628051758 78.21367645263672 58.45858383178711 80.27861785888672 C 53.40486526489258 82.41616058349609 48.03561782836914 83.49997711181641 42.49999618530273 83.49997711181641 Z" stroke="none"/>
                              <path d="M 42.49999618530273 2.999992370605469 C 37.16621017456055 2.999992370605469 31.99355697631836 4.043952941894531 27.1257438659668 6.102874755859375 C 22.42246246337891 8.092178344726562 18.19786071777344 10.94069671630859 14.56927490234375 14.56927490234375 C 10.94070434570312 18.19786071777344 8.092185974121094 22.42245864868164 6.102874755859375 27.12572479248047 C 4.043952941894531 31.99355316162109 2.999992370605469 37.16620635986328 2.999992370605469 42.49999237060547 C 2.999992370605469 47.83377838134766 4.043952941894531 53.00641632080078 6.102874755859375 57.87424468994141 C 8.092185974121094 62.5775260925293 10.94070434570312 66.8021240234375 14.56927490234375 70.43070220947266 C 18.19786071777344 74.05927276611328 22.42246246337891 76.90779113769531 27.1257438659668 78.89710998535156 C 31.99355697631836 80.95601654052734 37.16621017456055 81.99997711181641 42.49999618530273 81.99997711181641 C 47.83378219604492 81.99997711181641 53.00643539428711 80.95601654052734 57.87425231933594 78.89710998535156 C 62.57752990722656 76.90779113769531 66.80213165283203 74.05927276611328 70.43071746826172 70.43070220947266 C 74.05928802490234 66.8021240234375 76.90780639648438 62.5775260925293 78.89711761474609 57.87424468994141 C 80.95603942871094 53.00641632080078 82 47.83377838134766 82 42.49999237060547 C 82 37.16620635986328 80.95603942871094 31.99355316162109 78.89711761474609 27.12572479248047 C 76.90780639648438 22.42245864868164 74.05928802490234 18.19786071777344 70.43071746826172 14.56927490234375 C 66.80213165283203 10.94069671630859 62.57752990722656 8.092178344726562 57.87425231933594 6.102874755859375 C 53.00643539428711 4.043952941894531 47.83378219604492 2.999992370605469 42.49999618530273 2.999992370605469 M 42.49999618530273 -7.62939453125e-06 C 65.97209167480469 -7.62939453125e-06 85 19.02788543701172 85 42.49999237060547 C 85 65.97208404541016 65.97209167480469 84.99997711181641 42.49999618530273 84.99997711181641 C 19.02790069580078 84.99997711181641 -7.62939453125e-06 65.97208404541016 -7.62939453125e-06 42.49999237060547 C -7.62939453125e-06 19.02788543701172 19.02790069580078 -7.62939453125e-06 42.49999618530273 -7.62939453125e-06 Z" stroke="none" fill="#6ae2f6"/>
                            </g>
                          </g>
                        </g>
                      </g>
                    </g>
                  </g>
                </g>
              </g>
            </g>
          </g>
        </g>
      </g>
      <g id="cognitivo_1_" data-name="cognitivo (1)" transform="translate(161.02 2994.627)">
        <g id="Group_1224461" data-name="Group 1224461" transform="translate(38.727 19.949)">
          <g id="Group_1224458" data-name="Group 1224458" transform="translate(23.779 0)">
            <path id="Path_1211567" data-name="Path 1211567" d="M263.558,96h2.94l1.386,3.6a18.541,18.541,0,0,1,5.43,2.251l3.528-1.567L281,104.443l-1.567,3.527a18.538,18.538,0,0,1,2.251,5.431l3.6,1.385v5.881l-3.6,1.386a18.545,18.545,0,0,1-2.251,5.43L281,131.011l-4.158,4.158-3.527-1.566a18.54,18.54,0,0,1-5.431,2.251l-1.386,3.6h-2.94V127.983a10.256,10.256,0,1,0,0-20.512Z" transform="translate(-263.558 -96)" fill="#ffe177" fill-rule="evenodd"/>
            <path id="Path_1211568" data-name="Path 1211568" d="M279.433,127.482,281,131.011l-.563.563-1.465-3.3Q279.212,127.884,279.433,127.482Zm0-19.513a18.54,18.54,0,0,1,2.251,5.431l3.6,1.385v1.83l-3.6-1.385a24.683,24.683,0,0,0-2.712-6.223ZM263.557,96h2.94l1.386,3.6a18.542,18.542,0,0,1,5.43,2.251l3.528-1.567L281,104.443l-.563,1.267-3.6-3.6-3.528,1.567a18.542,18.542,0,0,0-5.43-2.251l-1.386-3.6h-2.94V96Z" transform="translate(-263.557 -96)" fill="#ffd064" fill-rule="evenodd"/>
          </g>
          <g id="Group_1224459" data-name="Group 1224459" transform="translate(0)">
            <path id="Path_1211569" data-name="Path 1211569" d="M102.7,99.4a4.893,4.893,0,0,0-4.463,3.758,4.886,4.886,0,0,0-6.029,4.608,4.895,4.895,0,0,0-3.765,4.747,5.21,5.21,0,0,0,5.2,5.218h13.7a4.876,4.876,0,0,0,4.876-4.876V100.875A4.877,4.877,0,0,0,102.7,99.4Z" transform="translate(-88.441 -95.999)" fill="#fe646f" fill-rule="evenodd"/>
            <path id="Path_1211570" data-name="Path 1211570" d="M147.579,103.016a4.8,4.8,0,0,0-.509.045c.158.023.316.053.475.091C147.556,103.107,147.567,103.061,147.579,103.016Zm9.075,14.71h1.358a4.876,4.876,0,0,0,4.876-4.876V100.875a4.878,4.878,0,0,0-5.558-4.828,4.893,4.893,0,0,1,4.2,4.828V112.85a4.876,4.876,0,0,1-4.876,4.876Z" transform="translate(-139.109 -95.999)" fill="#fd4755" fill-rule="evenodd"/>
          </g>
          <g id="Group_1224460" data-name="Group 1224460" transform="translate(0 21.727)">
            <path id="Path_1211571" data-name="Path 1211571" d="M102.7,274.329a4.893,4.893,0,0,1-4.463-3.758,4.887,4.887,0,0,1-6.029-4.608,4.895,4.895,0,0,1-3.765-4.747,5.21,5.21,0,0,1,5.2-5.218h13.7a4.876,4.876,0,0,1,4.876,4.876v11.975a4.877,4.877,0,0,1-9.523,1.48Z" transform="translate(-88.441 -255.998)" fill="#fe646f" fill-rule="evenodd"/>
            <path id="Path_1211572" data-name="Path 1211572" d="M147.579,270.71a4.793,4.793,0,0,1-.509-.045c.158-.023.316-.053.475-.091C147.556,270.619,147.567,270.664,147.579,270.71ZM156.655,256h1.358a4.876,4.876,0,0,1,4.876,4.876v11.975a4.878,4.878,0,0,1-5.558,4.828,4.893,4.893,0,0,0,4.2-4.828V260.876A4.876,4.876,0,0,0,156.655,256Z" transform="translate(-139.109 -256)" fill="#fd4755" fill-rule="evenodd"/>
          </g>
        </g>
        <path id="Path_1211573" data-name="Path 1211573" d="M57.587,49.09a1.086,1.086,0,0,0-1.536-.042,3.764,3.764,0,0,1-3.59.911,3.81,3.81,0,0,1-2.749-2.986,1.087,1.087,0,0,0-2.139.389,5.981,5.981,0,0,0,5.885,4.9,5.925,5.925,0,0,0,4.086-1.639A1.086,1.086,0,0,0,57.587,49.09Zm.043,13.227a3.789,3.789,0,0,1-2.847-6.292,1.086,1.086,0,1,0-1.63-1.435,5.99,5.99,0,0,0-1.48,3.98A3.818,3.818,0,0,1,49.578,56a1.087,1.087,0,0,0-1.315-.807,3.641,3.641,0,0,1-3.322-6.329A1.086,1.086,0,0,0,43.546,47.2a5.982,5.982,0,0,0-1.908,2.926,3.827,3.827,0,0,1-1.825-3.232,4.128,4.128,0,0,1,4.115-4.131h9.1a6,6,0,0,0-.663.993,1.086,1.086,0,1,0,1.917,1.02,3.79,3.79,0,0,1,7.138,1.776v11.98a3.8,3.8,0,0,1-3.79,3.785Zm-13.7-21.727h9.1a6,6,0,0,1-.663-.993,1.086,1.086,0,1,1,1.917-1.02A3.79,3.79,0,0,0,61.42,36.8V24.818a3.79,3.79,0,1,0-6.636,2.508,1.086,1.086,0,1,1-1.63,1.434,5.986,5.986,0,0,1-1.48-3.98,3.82,3.82,0,0,0-2.1,2.571,1.087,1.087,0,0,1-1.315.807,3.715,3.715,0,0,0-.894-.109,3.615,3.615,0,0,0-2.428,6.438,1.086,1.086,0,0,1-1.395,1.666,5.989,5.989,0,0,1-1.908-2.926,3.823,3.823,0,0,0-1.825,3.23,4.128,4.128,0,0,0,4.115,4.132ZM63.593,21.035v9.351a11.341,11.341,0,0,1,0,22.578v9.352H64.7l1.118-2.9a1.082,1.082,0,0,1,.762-.667,17.443,17.443,0,0,0,5.113-2.119,1.083,1.083,0,0,1,1.011-.068l2.845,1.264,3.1-3.1-1.264-2.846a1.089,1.089,0,0,1,.068-1.011,17.447,17.447,0,0,0,2.119-5.113,1.089,1.089,0,0,1,.667-.762l2.9-1.117V39.481l-2.9-1.117a1.085,1.085,0,0,1-.665-.763,17.43,17.43,0,0,0-2.12-5.113,1.085,1.085,0,0,1-.068-1.011l1.263-2.846-3.1-3.1L72.7,26.793a1.085,1.085,0,0,1-1.01-.068,17.474,17.474,0,0,0-5.113-2.119,1.086,1.086,0,0,1-.762-.665L64.7,21.035Zm-2.538,20.64a5.957,5.957,0,0,1,2.537,4.875v4.227a9.167,9.167,0,0,0,0-18.206V36.8a5.958,5.958,0,0,1-2.537,4.876ZM57.631,64.489A5.938,5.938,0,0,1,52.205,61a6.017,6.017,0,0,1-4.427-3.544,5.983,5.983,0,0,1-6.3-5,6.026,6.026,0,0,1-3.839-5.569A6.307,6.307,0,0,1,40.4,41.676a6.307,6.307,0,0,1-2.762-5.218,6.027,6.027,0,0,1,3.839-5.569,5.986,5.986,0,0,1,6.3-5,6.022,6.022,0,0,1,4.427-3.545,5.962,5.962,0,0,1,9.215-2.121v-.276a1.087,1.087,0,0,1,1.087-1.087h2.94a1.085,1.085,0,0,1,1.014.7l1.184,3.076a19.556,19.556,0,0,1,4.691,1.946l3.014-1.339a1.087,1.087,0,0,1,1.21.224l4.158,4.158a1.088,1.088,0,0,1,.226,1.21L79.6,31.846a19.558,19.558,0,0,1,1.944,4.691l3.076,1.184a1.085,1.085,0,0,1,.7,1.013v5.881a1.087,1.087,0,0,1-.7,1.014l-3.076,1.184A19.627,19.627,0,0,1,79.6,51.5l1.339,3.014a1.087,1.087,0,0,1-.226,1.209l-4.158,4.158a1.088,1.088,0,0,1-1.21.225l-3.014-1.339a19.6,19.6,0,0,1-4.691,1.946l-1.182,3.074a1.088,1.088,0,0,1-1.015.7h-2.94A1.086,1.086,0,0,1,61.42,63.4v-.277A5.934,5.934,0,0,1,57.631,64.489Zm-10.278,1.82a1.087,1.087,0,0,1-.543,2.029,1.07,1.07,0,0,1-.541-.146A30.557,30.557,0,0,1,30.915,41.676,30.566,30.566,0,0,1,61.48,11.11c1,0,2,.052,2.993.148L63.035,9.865a1.086,1.086,0,1,1,1.51-1.56l3.907,3.782a1.087,1.087,0,0,1-.179,1.7l-4.608,2.885a1.075,1.075,0,0,1-.576.166,1.087,1.087,0,0,1-.578-2.008L64.7,13.465A28.4,28.4,0,0,0,47.352,66.309ZM87.807,26.139A30.568,30.568,0,0,1,61.48,72.24c-1,0-2-.051-2.993-.148l1.438,1.393a1.086,1.086,0,1,1-1.512,1.56l-3.907-3.782a1.085,1.085,0,0,1,.18-1.7L59.3,66.677a1.086,1.086,0,0,1,1.153,1.841l-2.182,1.368A28.4,28.4,0,0,0,75.608,17.042a1.086,1.086,0,1,1,1.082-1.884A30.744,30.744,0,0,1,87.807,26.139ZM52.461,33.391a3.809,3.809,0,0,0-2.749,2.986,1.087,1.087,0,0,1-1.069.892,1,1,0,0,1-.194-.018,1.086,1.086,0,0,1-.876-1.262,6,6,0,0,1,4.325-4.7,5.926,5.926,0,0,1,5.646,1.433A1.086,1.086,0,1,1,56.051,34.3a3.769,3.769,0,0,0-3.59-.911Z" fill-rule="evenodd"/>
      </g>
    </g>
  </g>
</svg>
