<svg xmlns="http://www.w3.org/2000/svg" xmlns:xlink="http://www.w3.org/1999/xlink" width="97.533" height="97.533" viewBox="0 0 97.533 97.533">
  <defs>
    <filter id="Path_982547" x="0" y="0" width="97.533" height="97.533" filterUnits="userSpaceOnUse">
      <feOffset dy="3" input="SourceAlpha"/>
      <feGaussianBlur stdDeviation="3" result="blur"/>
      <feFlood flood-opacity="0.161"/>
      <feComposite operator="in" in2="blur"/>
      <feComposite in="SourceGraphic"/>
    </filter>
  </defs>
  <g id="Group_1224797" data-name="Group 1224797" transform="translate(-190.466 -3516.727)">
    <g id="Group_1224370" data-name="Group 1224370">
      <g id="Group_1206308" data-name="Group 1206308" transform="translate(0.5 -7003.914)">
        <g id="Group_1204177" data-name="Group 1204177" transform="translate(198.967 10526.641)">
          <g id="Group_1203356" data-name="Group 1203356" transform="translate(0)">
            <g id="Group_1202156" data-name="Group 1202156">
              <g id="Group_1177900" data-name="Group 1177900">
                <g id="Group_1172010" data-name="Group 1172010">
                  <g id="Group_1171046" data-name="Group 1171046">
                    <g id="Group_1148525" data-name="Group 1148525">
                      <g transform="matrix(1, 0, 0, 1, -9, -6)" filter="url(#Path_982547)">
                        <g id="Path_982547-2" data-name="Path 982547" transform="translate(9 6)" fill="#fdfbec">
                          <path d="M 39.7666015625 78.033203125 C 34.59997940063477 78.033203125 29.58870124816895 77.02164459228516 24.87196731567383 75.02663421630859 C 20.31538963317871 73.099365234375 16.22284507751465 70.34000396728516 12.70802402496338 66.82518005371094 C 9.193202018737793 63.31035614013672 6.433835029602051 59.21781158447266 4.506568431854248 54.66123580932617 C 2.511557102203369 49.94449996948242 1.500001549720764 44.93322372436523 1.500001549720764 39.7666015625 C 1.500001549720764 34.59997940063477 2.511557102203369 29.58870124816895 4.506568431854248 24.87196731567383 C 6.433835029602051 20.31538963317871 9.193202018737793 16.22284507751465 12.70802402496338 12.70802402496338 C 16.22284507751465 9.193202018737793 20.31538963317871 6.433835029602051 24.87196731567383 4.506568431854248 C 29.58870124816895 2.511557102203369 34.59997940063477 1.500001549720764 39.7666015625 1.500001549720764 C 44.93322372436523 1.500001549720764 49.94449996948242 2.511557102203369 54.66123580932617 4.506568431854248 C 59.21781158447266 6.433835029602051 63.31035614013672 9.193202018737793 66.82518005371094 12.70802402496338 C 70.34000396728516 16.22284507751465 73.099365234375 20.31538963317871 75.02663421630859 24.87196731567383 C 77.02164459228516 29.58870124816895 78.033203125 34.59997940063477 78.033203125 39.7666015625 C 78.033203125 44.93322372436523 77.02164459228516 49.94449996948242 75.02663421630859 54.66123580932617 C 73.099365234375 59.21781158447266 70.34000396728516 63.31035614013672 66.82518005371094 66.82518005371094 C 63.31035614013672 70.34000396728516 59.21781158447266 73.099365234375 54.66123580932617 75.02663421630859 C 49.94449996948242 77.02164459228516 44.93322372436523 78.033203125 39.7666015625 78.033203125 Z" stroke="none"/>
                          <path d="M 39.7666015625 3 C 34.80181503295898 3 29.98714065551758 3.971687316894531 25.45630264282227 5.888076782226562 C 21.07851409912109 7.739715576171875 17.146240234375 10.39113616943359 13.76869201660156 13.76869201660156 C 10.39113616943359 17.146240234375 7.739715576171875 21.07851409912109 5.888076782226562 25.45630264282227 C 3.971687316894531 29.98714065551758 3 34.80181503295898 3 39.7666015625 C 3 44.73138809204102 3.971687316894531 49.54606628417969 5.888076782226562 54.076904296875 C 7.739715576171875 58.45468902587891 10.39113616943359 62.386962890625 13.76869201660156 65.76451110839844 C 17.146240234375 69.14206695556641 21.07851409912109 71.79348754882812 25.45630264282227 73.64512634277344 C 29.98714065551758 75.56151580810547 34.80181503295898 76.533203125 39.7666015625 76.533203125 C 44.73138809204102 76.533203125 49.54606628417969 75.56151580810547 54.076904296875 73.64512634277344 C 58.45468902587891 71.79348754882812 62.386962890625 69.14206695556641 65.76451110839844 65.76451110839844 C 69.14206695556641 62.386962890625 71.79348754882812 58.45468902587891 73.64512634277344 54.076904296875 C 75.56151580810547 49.54606628417969 76.533203125 44.73138809204102 76.533203125 39.7666015625 C 76.533203125 34.80181503295898 75.56151580810547 29.98714065551758 73.64512634277344 25.45630264282227 C 71.79348754882812 21.07851409912109 69.14206695556641 17.146240234375 65.76451110839844 13.76869201660156 C 62.386962890625 10.39113616943359 58.45468902587891 7.739715576171875 54.076904296875 5.888076782226562 C 49.54606628417969 3.971687316894531 44.73138809204102 3 39.7666015625 3 M 39.7666015625 0 C 61.72908782958984 0 79.533203125 17.80411529541016 79.533203125 39.7666015625 C 79.533203125 61.72908782958984 61.72908782958984 79.533203125 39.7666015625 79.533203125 C 17.80411529541016 79.533203125 0 61.72908782958984 0 39.7666015625 C 0 17.80411529541016 17.80411529541016 0 39.7666015625 0 Z" stroke="none" fill="#83793c"/>
                        </g>
                      </g>
                    </g>
                  </g>
                </g>
              </g>
            </g>
          </g>
        </g>
      </g>
      <g id="recompensa" transform="translate(165.204 3536.032)">
        <g id="Group_1224368" data-name="Group 1224368" transform="translate(53.829 0.775)">
          <path id="Path_1211204" data-name="Path 1211204" d="M64.175,126.1l3.044-1.1a2.682,2.682,0,0,1,3.475,1.746l.938,3.1a2.682,2.682,0,0,0,4.964.426L93.473,96.678l-15.726-7.9L60.87,122.368A2.682,2.682,0,0,0,64.175,126.1Z" transform="translate(-60.576 -80.376)" fill="#fd4755"/>
          <path id="Path_1211205" data-name="Path 1211205" d="M162.446,126.094,159.4,125a2.682,2.682,0,0,0-3.475,1.746l-.938,3.1a2.682,2.682,0,0,1-4.964.427l-4.627-9.21L133.148,96.677l15.726-7.9,12.833,25.542,4.044,8.05A2.682,2.682,0,0,1,162.446,126.094Z" transform="translate(-125.647 -80.374)" fill="#fe646f"/>
          <path id="Path_1211206" data-name="Path 1211206" d="M161.707,114.317a21.953,21.953,0,0,1-15.861,6.746c-.149,0-.3,0-.447-.005l-12.25-24.381,15.726-7.9Z" transform="translate(-125.647 -80.374)" fill="#fd4755"/>
          <circle id="Ellipse_12670" data-name="Ellipse 12670" cx="18.668" cy="18.668" r="18.668" transform="translate(1.531)" fill="#ffe177"/>
          <path id="Path_1211207" data-name="Path 1211207" d="M95.675,44.768q-.8.069-1.62.07a18.668,18.668,0,0,1,0-37.337q.819,0,1.62.07a18.669,18.669,0,0,0,0,37.2Z" transform="translate(-73.856 -7.501)" fill="#ffd15b"/>
          <circle id="Ellipse_12671" data-name="Ellipse 12671" cx="14.07" cy="14.07" r="14.07" transform="translate(6.13 4.599)" fill="#ffd15b"/>
          <path id="Path_1211208" data-name="Path 1211208" d="M256.328,66.062a14.07,14.07,0,0,1-14.07,14.07,14.213,14.213,0,0,1-1.584-.089,14.071,14.071,0,0,0,0-27.962,14.213,14.213,0,0,1,1.584-.089A14.07,14.07,0,0,1,256.328,66.062Z" transform="translate(-222.058 -47.393)" fill="#fec165"/>
          <g id="Group_1224367" data-name="Group 1224367" transform="translate(11.088 9.929)">
            <path id="Path_1211209" data-name="Path 1211209" d="M178.317,104.4l1.643,3.329a1.514,1.514,0,0,0,1.14.828l3.673.534a1.514,1.514,0,0,1,.839,2.582l-2.658,2.591a1.514,1.514,0,0,0-.435,1.34l.627,3.659a1.514,1.514,0,0,1-2.2,1.6l-3.285-1.727a1.514,1.514,0,0,0-1.409,0l-3.285,1.727a1.514,1.514,0,0,1-2.2-1.6l.628-3.659a1.514,1.514,0,0,0-.435-1.34l-2.658-2.591a1.514,1.514,0,0,1,.839-2.582l3.673-.534a1.514,1.514,0,0,0,1.14-.828L175.6,104.4A1.514,1.514,0,0,1,178.317,104.4Z" transform="translate(-167.848 -103.556)" fill="#ffe177"/>
          </g>
        </g>
        <g id="Group_1224369" data-name="Group 1224369" transform="translate(53.052 0)">
          <path id="Path_1211210" data-name="Path 1211210" d="M94.627,42.419l-.783-1.56a.775.775,0,1,0-1.385.7l.783,1.56a1.907,1.907,0,0,1-2.35,2.65l-3.044-1.1a3.458,3.458,0,0,0-4.48,2.252l-.937,3.1a1.907,1.907,0,0,1-3.53.3L73.145,38.866c.293.013.588.021.884.021a19.39,19.39,0,0,0,14.06-6.027l2.747,5.467a.775.775,0,1,0,1.385-.7L89.191,31.6a19.434,19.434,0,0,0,2.2-20.924,19.621,19.621,0,0,0-5.575-6.7.775.775,0,1,0-.94,1.233A17.809,17.809,0,1,1,81.93,3.385a.775.775,0,1,0,.686-1.391A19.248,19.248,0,0,0,74.029,0,19.432,19.432,0,0,0,58.866,31.6L53.431,42.418a3.457,3.457,0,0,0,4.26,4.805l3.044-1.1a1.907,1.907,0,0,1,2.471,1.242l.938,3.095a3.4,3.4,0,0,0,3.012,2.443q.16.014.316.014a3.389,3.389,0,0,0,3.069-1.906l3.486-6.939,3.487,6.94a3.391,3.391,0,0,0,3.07,1.906q.157,0,.317-.014a3.4,3.4,0,0,0,3.013-2.443l.937-3.1a1.907,1.907,0,0,1,2.471-1.242l3.044,1.1a3.458,3.458,0,0,0,4.261-4.8Zm-25.471,7.9a1.906,1.906,0,0,1-3.528-.3l-.938-3.1a3.457,3.457,0,0,0-4.48-2.251l-3.044,1.1a1.907,1.907,0,0,1-2.35-2.65L59.969,32.86A19.413,19.413,0,0,0,71.326,38.7l1.835,3.652Z" transform="translate(-53.052 0)"/>
          <path id="Path_1211211" data-name="Path 1211211" d="M115.212,66.7a.775.775,0,0,0-.2,1.079,14.778,14.778,0,1,0-1.728-3.324.775.775,0,1,0,1.455-.535,13.309,13.309,0,1,1,1.547,2.975A.775.775,0,0,0,115.212,66.7Z" transform="translate(-106.249 -39.891)"/>
          <path id="Path_1211212" data-name="Path 1211212" d="M179.429,105.5a2.289,2.289,0,0,0-1.269-3.9l-3.673-.534a.738.738,0,0,1-.556-.4l-1.643-3.329a2.289,2.289,0,0,0-4.106,0l-1.643,3.329a.739.739,0,0,1-.556.4l-3.673.534a2.289,2.289,0,0,0-1.269,3.9l2.658,2.591a.738.738,0,0,1,.212.654l-.627,3.658a2.286,2.286,0,0,0,3.321,2.413l3.285-1.727a.738.738,0,0,1,.687,0l3.285,1.727a2.289,2.289,0,0,0,3.321-2.413l-.628-3.658a.739.739,0,0,1,.212-.654Zm-3.74,1.481a2.289,2.289,0,0,0-.658,2.026l.628,3.658a.739.739,0,0,1-1.072.779l-3.285-1.727a2.289,2.289,0,0,0-2.131,0l-3.285,1.727a.739.739,0,0,1-1.072-.779l.627-3.658a2.289,2.289,0,0,0-.658-2.026l-2.658-2.591a.739.739,0,0,1,.409-1.26l3.673-.534a2.289,2.289,0,0,0,1.724-1.252l1.643-3.329a.739.739,0,0,1,1.325,0l1.643,3.329a2.289,2.289,0,0,0,1.724,1.252l3.673.534a.739.739,0,0,1,.409,1.26Z" transform="translate(-149.258 -86.126)"/>
        </g>
      </g>
    </g>
  </g>
</svg>
