<svg xmlns="http://www.w3.org/2000/svg" xmlns:xlink="http://www.w3.org/1999/xlink" width="97.533" height="97.533" viewBox="0 0 97.533 97.533">
  <defs>
    <filter id="Path_982547" x="0" y="0" width="97.533" height="97.533" filterUnits="userSpaceOnUse">
      <feOffset dy="3" input="SourceAlpha"/>
      <feGaussianBlur stdDeviation="3" result="blur"/>
      <feFlood flood-opacity="0.161"/>
      <feComposite operator="in" in2="blur"/>
      <feComposite in="SourceGraphic"/>
    </filter>
  </defs>
  <g id="Group_1224796" data-name="Group 1224796" transform="translate(-190.466 -3363.727)">
    <g id="Group_1224366" data-name="Group 1224366">
      <g id="Group_1206307" data-name="Group 1206307" transform="translate(0.5 -7003.914)">
        <g id="Group_1206294" data-name="Group 1206294">
          <g id="Group_1204176" data-name="Group 1204176" transform="translate(198.967 10373.641)">
            <g id="Group_1203355" data-name="Group 1203355" transform="translate(0)">
              <g id="Group_1202156" data-name="Group 1202156">
                <g id="Group_1177900" data-name="Group 1177900">
                  <g id="Group_1172010" data-name="Group 1172010">
                    <g id="Group_1171046" data-name="Group 1171046">
                      <g id="Group_1148525" data-name="Group 1148525">
                        <g transform="matrix(1, 0, 0, 1, -9, -6)" filter="url(#Path_982547)">
                          <g id="Path_982547-2" data-name="Path 982547" transform="translate(9 6)" fill="#fdfbec">
                            <path d="M 39.7666015625 78.033203125 C 34.59997940063477 78.033203125 29.58870124816895 77.02164459228516 24.87196731567383 75.02663421630859 C 20.31538963317871 73.099365234375 16.22284507751465 70.34000396728516 12.70802402496338 66.82518005371094 C 9.193202018737793 63.31035614013672 6.433835029602051 59.21781158447266 4.506568431854248 54.66123580932617 C 2.511557102203369 49.94449996948242 1.500001549720764 44.93322372436523 1.500001549720764 39.7666015625 C 1.500001549720764 34.59997940063477 2.511557102203369 29.58870124816895 4.506568431854248 24.87196731567383 C 6.433835029602051 20.31538963317871 9.193202018737793 16.22284507751465 12.70802402496338 12.70802402496338 C 16.22284507751465 9.193202018737793 20.31538963317871 6.433835029602051 24.87196731567383 4.506568431854248 C 29.58870124816895 2.511557102203369 34.59997940063477 1.500001549720764 39.7666015625 1.500001549720764 C 44.93322372436523 1.500001549720764 49.94449996948242 2.511557102203369 54.66123580932617 4.506568431854248 C 59.21781158447266 6.433835029602051 63.31035614013672 9.193202018737793 66.82518005371094 12.70802402496338 C 70.34000396728516 16.22284507751465 73.099365234375 20.31538963317871 75.02663421630859 24.87196731567383 C 77.02164459228516 29.58870124816895 78.033203125 34.59997940063477 78.033203125 39.7666015625 C 78.033203125 44.93322372436523 77.02164459228516 49.94449996948242 75.02663421630859 54.66123580932617 C 73.099365234375 59.21781158447266 70.34000396728516 63.31035614013672 66.82518005371094 66.82518005371094 C 63.31035614013672 70.34000396728516 59.21781158447266 73.099365234375 54.66123580932617 75.02663421630859 C 49.94449996948242 77.02164459228516 44.93322372436523 78.033203125 39.7666015625 78.033203125 Z" stroke="none"/>
                            <path d="M 39.7666015625 3 C 34.80181503295898 3 29.98714065551758 3.971687316894531 25.45630264282227 5.888076782226562 C 21.07851409912109 7.739715576171875 17.146240234375 10.39113616943359 13.76869201660156 13.76869201660156 C 10.39113616943359 17.146240234375 7.739715576171875 21.07851409912109 5.888076782226562 25.45630264282227 C 3.971687316894531 29.98714065551758 3 34.80181503295898 3 39.7666015625 C 3 44.73138809204102 3.971687316894531 49.54606628417969 5.888076782226562 54.076904296875 C 7.739715576171875 58.45468902587891 10.39113616943359 62.386962890625 13.76869201660156 65.76451110839844 C 17.146240234375 69.14206695556641 21.07851409912109 71.79348754882812 25.45630264282227 73.64512634277344 C 29.98714065551758 75.56151580810547 34.80181503295898 76.533203125 39.7666015625 76.533203125 C 44.73138809204102 76.533203125 49.54606628417969 75.56151580810547 54.076904296875 73.64512634277344 C 58.45468902587891 71.79348754882812 62.386962890625 69.14206695556641 65.76451110839844 65.76451110839844 C 69.14206695556641 62.386962890625 71.79348754882812 58.45468902587891 73.64512634277344 54.076904296875 C 75.56151580810547 49.54606628417969 76.533203125 44.73138809204102 76.533203125 39.7666015625 C 76.533203125 34.80181503295898 75.56151580810547 29.98714065551758 73.64512634277344 25.45630264282227 C 71.79348754882812 21.07851409912109 69.14206695556641 17.146240234375 65.76451110839844 13.76869201660156 C 62.386962890625 10.39113616943359 58.45468902587891 7.739715576171875 54.076904296875 5.888076782226562 C 49.54606628417969 3.971687316894531 44.73138809204102 3 39.7666015625 3 M 39.7666015625 0 C 61.72908782958984 0 79.533203125 17.80411529541016 79.533203125 39.7666015625 C 79.533203125 61.72908782958984 61.72908782958984 79.533203125 39.7666015625 79.533203125 C 17.80411529541016 79.533203125 0 61.72908782958984 0 39.7666015625 C 0 17.80411529541016 17.80411529541016 0 39.7666015625 0 Z" stroke="none" fill="#83793c"/>
                          </g>
                        </g>
                      </g>
                    </g>
                  </g>
                </g>
              </g>
            </g>
          </g>
        </g>
      </g>
      <g id="Filled_outline" data-name="Filled outline" transform="translate(193 3364.121)">
        <path id="Path_1211183" data-name="Path 1211183" d="M232,24.6a2.053,2.053,0,0,0-1.452-.6h-.235a2.053,2.053,0,0,0-1.451.6l-2.751,2.751a2.053,2.053,0,0,0-.591,1.247l-.8,7.98a2.053,2.053,0,0,0,.591,1.656l5.279,5.279,2.742-3.065-4.476-4.415.6-6.229,1.452-1.452a2.053,2.053,0,0,0,2.9,2.9l.968-.968a2.053,2.053,0,0,0,0-2.9Z" transform="translate(-183.47 -7.032)" fill="#fa9f0c"/>
        <path id="Path_1211184" data-name="Path 1211184" d="M347.024,203.132l-2.786-2.786a2.053,2.053,0,0,0-2.9,0l-.968.968a2.053,2.053,0,1,0,2.9,2.9l-1.452,1.451-6.229.6-3.854-3.914-3.427,2.379,5.08,5.08a2.053,2.053,0,0,0,1.656.592l7.98-.8a2.053,2.053,0,0,0,1.247-.591l2.751-2.751a2.052,2.052,0,0,0,.6-1.452v-.235a2.053,2.053,0,0,0-.6-1.451Z" transform="translate(-274.532 -161.519)" fill="#fa9f0c"/>
        <path id="Path_1211185" data-name="Path 1211185" d="M280.425,63.483l-3.768,3.768A20.525,20.525,0,0,1,260.1,73.16l-4.838-4.838q-.067-.677-.09-1.352a20.52,20.52,0,0,1,6-15.2L264.942,48l12.787,12.787Z" transform="translate(-210.235 -28.129)" fill="#ffb531"/>
        <path id="Path_1211186" data-name="Path 1211186" d="M0,0H20.528V6.843H0Z" transform="translate(30.51 54.705) rotate(-45)" fill="#fa9f0c"/>
        <path id="Path_1211187" data-name="Path 1211187" d="M92.815,335.006a4.094,4.094,0,0,1-1.2,2.9l-.968.968-4.413-4.413L80,328.232l.968-.968a4.107,4.107,0,0,1,5.806,0l4.838,4.838a.277.277,0,0,1,.025.028A4.09,4.09,0,0,1,92.815,335.006Z" transform="translate(-56.259 -272.557)" fill="#ffb531"/>
        <path id="Path_1211188" data-name="Path 1211188" d="M43.354,342.515l-4.838,4.838L24,332.838,28.838,328l10.533,10.533Z" transform="translate(-7.033 -274.26)" fill="#92563a"/>
        <path id="Path_1211189" data-name="Path 1211189" d="M171.069,286.681,168,283.612,179.612,272l3.069,3.069a3.871,3.871,0,0,1,0,5.474l-6.138,6.138A3.871,3.871,0,0,1,171.069,286.681Z" transform="translate(-133.614 -225.034)" fill="#feb784"/>
        <path id="Path_1211190" data-name="Path 1211190" d="M124.3,216.684l5.405,5.405a2.336,2.336,0,0,1,0,3.3l-8.308,8.308a2.336,2.336,0,0,1-3.3,0l-5.405-5.405a2.336,2.336,0,0,1,0-3.3l8.308-8.308a2.336,2.336,0,0,1,3.3,0Z" transform="translate(-84.388 -175.808)" fill="#fec9a3"/>
        <path id="Path_1211191" data-name="Path 1211191" d="M205.806,256,200,261.806l.435.435a4.256,4.256,0,0,0,5.371.532,4.256,4.256,0,0,0,.532,5.371l1.4,1.4,3.069-3.069a3.871,3.871,0,0,0,0-5.474Z" transform="translate(-161.744 -210.97)" fill="#ffd5b8"/>
        <path id="Path_1211192" data-name="Path 1211192" d="M288.192,382.515H268.838L264,377.677,273.677,368Z" transform="translate(-218.002 -309.422)" fill="#4d5e78"/>
        <path id="Path_1211193" data-name="Path 1211193" d="M0,0H13.685V6.843H0Z" transform="translate(41.152 63.415) rotate(-45)" fill="#e0e0de"/>
        <path id="Path_1211194" data-name="Path 1211194" d="M128,27.871A6.121,6.121,0,0,0,131.871,24a6.121,6.121,0,0,0,3.871,3.871,6.121,6.121,0,0,0-3.871,3.871A6.121,6.121,0,0,0,128,27.871Z" transform="translate(-98.453 -7.032)" fill="#ffb531"/>
        <path id="Path_1211195" data-name="Path 1211195" d="M119.6,419.062l-4.838,4.838-4.023-4.023,4.88-4.8Z" transform="translate(-83.28 -350.807)" fill="#804a32"/>
        <path id="Path_1211196" data-name="Path 1211196" d="M280.509,156.406l-3.768,3.768a20.525,20.525,0,0,1-16.553,5.909l-4.838-4.838q-.067-.677-.09-1.352a57.419,57.419,0,0,0,22.553-6.182Z" transform="translate(-210.319 -121.053)" fill="#fcac1f"/>
        <path id="Path_1211197" data-name="Path 1211197" d="M138.1,379.105a4.094,4.094,0,0,1-1.2,2.9l-.968.968-4.413-4.413q2.723-1.031,5.406-2.333a4.09,4.09,0,0,1,1.177,2.875Z" transform="translate(-101.547 -316.657)" fill="#fcac1f"/>
        <path id="Path_1211198" data-name="Path 1211198" d="M300.217,464.864H280.864l-3.184-3.184h19.354Z" transform="translate(-230.027 -391.771)" fill="#485870"/>
        <path id="Path_1211199" data-name="Path 1211199" d="M319.76,90.387c.123-.131.249-.262.375-.388l1.031-1.031L319.8,87.6l-1.031,1.031c-.142.142-.283.288-.42.435Z" transform="translate(-265.774 -62.939)"/>
        <path id="Path_1211200" data-name="Path 1211200" d="M280.009,120.564l1.923.21a15.618,15.618,0,0,1,3.023-7.66l-1.548-1.16A17.55,17.55,0,0,0,280.009,120.564Z" transform="translate(-232.075 -84.347)"/>
        <path id="Path_1211201" data-name="Path 1211201" d="M73.176,40.928,70.39,38.143a3,3,0,0,0-.971-.65l1.455-1.455a.968.968,0,0,0,0-1.369L55.391,19.186l-1.369,1.369,14.8,14.8-3.084,3.084A19.48,19.48,0,0,1,50.305,44.1l-4.344-4.344a19.48,19.48,0,0,1,5.661-15.433L52,23.942l.03-.03h0A3.019,3.019,0,0,0,52,19.67l-2.786-2.786A3,3,0,0,0,47.083,16h-.235a3,3,0,0,0-2.136.885l-2.751,2.751a3.029,3.029,0,0,0-.87,1.835l-.8,7.98a3.009,3.009,0,0,0,.87,2.436L44.2,34.923a21.564,21.564,0,0,0-.171,4.9l-1.9,1.9-1.534-1.535a3.3,3.3,0,0,0-4.673,0L27.612,48.5a3.305,3.305,0,0,0-.482,4.062,5.05,5.05,0,0,0-3.106,1.461l-.968.968a.968.968,0,0,0,0,1.369l11.9,11.9-3.47,3.47L18.336,58.578,21.8,55.109l-1.368-1.368-4.153,4.153a.968.968,0,0,0,0,1.369L30.8,73.777a.968.968,0,0,0,1.369,0l4.838-4.838a.968.968,0,0,0,0-1.369l-1.251-1.251.284-.283A5.05,5.05,0,0,0,37.5,62.929a4.833,4.833,0,0,0,2.693.817h.058a.962.962,0,0,0,.225.356L51.12,74.745l1.369-1.369-5.122-5.122,8.308-8.308,14.8,14.8,1.369-1.369L51.521,53.055a.962.962,0,0,0-.354-.224c0-.02,0-.039,0-.059a4.8,4.8,0,0,0-1.077-3.042s-1.758-1.8-1.758-1.8l1.9-1.9q.853.067,1.7.068a21.507,21.507,0,0,0,3.126-.228l3.112,3.111a3.007,3.007,0,0,0,2.132.885q.151,0,.3-.015l7.98-.8a3.028,3.028,0,0,0,1.835-.87l2.751-2.751a3,3,0,0,0,.885-2.135v-.235a3,3,0,0,0-.885-2.136ZM46.454,28.092l.309-3.185,0,0a3,3,0,0,0,1.205.736,21.44,21.44,0,0,0-1.516,2.446Zm-3.922,2.427a1.081,1.081,0,0,1-.312-.875l.8-7.98A1.089,1.089,0,0,1,43.33,21l2.751-2.751a1.078,1.078,0,0,1,.767-.318h.235a1.078,1.078,0,0,1,.767.318l2.786,2.786a1.085,1.085,0,0,1,0,1.535l-.968.968a1.085,1.085,0,0,1-1.535-1.535.968.968,0,0,0-1.369-1.369l-1.452,1.452a.968.968,0,0,0-.279.591l-.6,6.229a.968.968,0,0,0,.292.791l.689.663a21.348,21.348,0,0,0-.745,2.291Zm6.05,20.42v0a2.909,2.909,0,0,1,0,3.662v0a2.927,2.927,0,0,1-.2.219L46,57.209l-.719-.719a3.3,3.3,0,0,1-.411-4.149A.968.968,0,0,0,43.525,51a3.3,3.3,0,0,1-3.887-.176L44.063,46.4l4.32,4.32a2.928,2.928,0,0,1,.2.22Zm-19.9-.626a1.361,1.361,0,0,1,.3-.444l8.308-8.308a1.368,1.368,0,0,1,1.936,0l3.469,3.47L41.16,46.565l-3.186-3.187L36.6,44.747l3.187,3.186-1.535,1.535L35.07,46.281,33.7,47.65l6.09,6.089-1.535,1.535-6.09-6.09L30.8,50.553l6.09,6.09-.567.566a1.368,1.368,0,0,1-1.434.32l-.038-.014-.021-.009a1.361,1.361,0,0,1-.443-.3L31.2,54.023,28.981,51.8a1.368,1.368,0,0,1-.3-1.492ZM25.11,55.675l.284-.283a3.138,3.138,0,0,1,4.438,0l4.838,4.838a3.138,3.138,0,0,1,0,4.438l-.283.284Zm11.4,3.662a3.3,3.3,0,0,0,1.177-.759l4.7-4.7a5.228,5.228,0,0,0,1.516,3.985l.72.719-2.385,2.384a2.9,2.9,0,0,1-4.106,0Zm17.794-.759L46,66.886l-3.47-3.47,8.308-8.308ZM46.966,46.565,43.5,43.1l1.535-1.535,3.47,3.47Zm18.186-3.183,0,0-3.388.329a21.444,21.444,0,0,0,2.627-1.607A3,3,0,0,0,65.151,43.382Zm6.974-.083a1.078,1.078,0,0,1-.318.767l-2.751,2.751a1.087,1.087,0,0,1-.659.312l-7.98.8a1.081,1.081,0,0,1-.875-.312L57.336,45.41a21.359,21.359,0,0,0,2.3-.738l.724.753a.966.966,0,0,0,.791.292l6.229-.6a.968.968,0,0,0,.591-.279l1.452-1.452a.968.968,0,0,0-1.369-1.369,1.085,1.085,0,0,1-1.535-1.534l.968-.968a1.085,1.085,0,0,1,1.534,0L71.808,42.3a1.078,1.078,0,0,1,.318.767Z" transform="translate(0 0)"/>
        <path id="Path_1211202" data-name="Path 1211202" d="M256,400h1.935v1.935H256Z" transform="translate(-210.97 -337.551)"/>
        <path id="Path_1211203" data-name="Path 1211203" d="M120.663,21.757a5.177,5.177,0,0,1,3.259,3.259.968.968,0,0,0,1.836,0,5.177,5.177,0,0,1,3.259-3.259.968.968,0,0,0,0-1.836,5.177,5.177,0,0,1-3.259-3.259.968.968,0,0,0-1.836,0,5.177,5.177,0,0,1-3.259,3.259.968.968,0,0,0,0,1.836Zm4.177-2.664a7.165,7.165,0,0,0,1.746,1.746,7.165,7.165,0,0,0-1.746,1.746,7.165,7.165,0,0,0-1.746-1.746,7.165,7.165,0,0,0,1.746-1.746Z" transform="translate(-91.421 -0.001)"/>
      </g>
    </g>
  </g>
</svg>
